<svg width="100&#37;" height="100&#37;" version="1.1" xmlns="http://www.w3.org/2000/svg" overflow="visible" style="background: black"> <rect x="-65" y="-35" width="130" height="155" stroke="yellow" stroke-dasharray="5,5" stroke-width="3" fill="transparent" /> <text text-anchor="middle" x = "0" y = "-60" transform="rotate(0 0 -60)" fill = "red" font-size = "0">z4p_eqn</text><text text-anchor="start" x = "15" y = "20" transform="rotate(0 15 20)" fill = "violet" font-size = "0">2</text><text text-anchor="start" x = "-25" y = "20" transform="rotate(0 -25 20)" fill = "violet" font-size = "0">1</text><text text-anchor="start" x = "-25" y = "85" transform="rotate(0 -25 85)" fill = "violet" font-size = "0">3</text><text text-anchor="start" x = "15" y = "85" transform="rotate(0 15 85)" fill = "violet" font-size = "0">4</text><text text-anchor="start" x = "-50" y = "0" transform="rotate(0 -50 0)" fill = "white" font-size = "16">P1</text><circle cx="-50" cy="0" r="5" stroke="yellow" stroke-width="3" fill="transparent" /> <text text-anchor="start" x = "50" y = "85" transform="rotate(0 50 85)" fill = "white" font-size = "16">P8</text><circle cx="50" cy="85" r="5" stroke="yellow" stroke-width="3" fill="transparent" /> <text text-anchor="start" x = "50" y = "60" transform="rotate(0 50 60)" fill = "white" font-size = "16">P7</text><circle cx="50" cy="60" r="5" stroke="yellow" stroke-width="3" fill="transparent" /> <text text-anchor="start" x = "-50" y = "85" transform="rotate(0 -50 85)" fill = "white" font-size = "16">P6</text><circle cx="-50" cy="85" r="5" stroke="yellow" stroke-width="3" fill="transparent" /> <text text-anchor="start" x = "-50" y = "60" transform="rotate(0 -50 60)" fill = "white" font-size = "16">P5</text><circle cx="-50" cy="60" r="5" stroke="yellow" stroke-width="3" fill="transparent" /> <text text-anchor="start" x = "50" y = "25" transform="rotate(0 50 25)" fill = "white" font-size = "16">P4</text><circle cx="50" cy="25" r="5" stroke="yellow" stroke-width="3" fill="transparent" /> <text text-anchor="start" x = "50" y = "0" transform="rotate(0 50 0)" fill = "white" font-size = "16">P3</text><circle cx="50" cy="0" r="5" stroke="yellow" stroke-width="3" fill="transparent" /> <text text-anchor="start" x = "-50" y = "25" transform="rotate(0 -50 25)" fill = "white" font-size = "16">P2</text><circle cx="-50" cy="25" r="5" stroke="yellow" stroke-width="3" fill="transparent" /> <path d="M -45 -5 L -45 5" stroke="blue" stroke-width="2" fill="transparent" /><path d="M 25 60 L 25 65" stroke="blue" stroke-width="2" fill="transparent" /><path d="M 20 60 L 30 60" stroke="blue" stroke-width="2" fill="transparent" /><path d="M -25 60 L -25 65" stroke="blue" stroke-width="2" fill="transparent" /><path d="M -30 65 L -20 65" stroke="blue" stroke-width="2" fill="transparent" /><path d="M 25 -5 L 25 5" stroke="blue" stroke-width="2" fill="transparent" /><path d="M 20 0 L 30 0" stroke="blue" stroke-width="2" fill="transparent" /><path d="M -25 -5 L -25 5" stroke="blue" stroke-width="2" fill="transparent" /><path d="M -30 0 L -20 0" stroke="blue" stroke-width="2" fill="transparent" /><path d="M -30 105 L 30 105" stroke="blue" stroke-width="2" fill="transparent" /><path d="M -50 60 L -30 60" stroke="blue" stroke-width="2" fill="transparent" /><path d="M -30 60 L -30 85" stroke="blue" stroke-width="2" fill="transparent" /><path d="M -30 85 L -50 85" stroke="blue" stroke-width="2" fill="transparent" /><path d="M 50 85 L 30 85" stroke="blue" stroke-width="2" fill="transparent" /><path d="M 30 60 L 50 60" stroke="blue" stroke-width="2" fill="transparent" /><path d="M 30 85 L 30 105" stroke="blue" stroke-width="2" fill="transparent" /><path d="M -30 85 L -30 105" stroke="blue" stroke-width="2" fill="transparent" /><path d="M 30 45 L 30 60" stroke="blue" stroke-width="2" fill="transparent" /><path d="M -30 45 L -30 60" stroke="blue" stroke-width="2" fill="transparent" /><path d="M 30 60 L 30 85" stroke="blue" stroke-width="2" fill="transparent" /><path d="M -50 0 L -30 0" stroke="blue" stroke-width="2" fill="transparent" /><path d="M -30 0 L -30 25" stroke="blue" stroke-width="2" fill="transparent" /><path d="M -30 25 L -50 25" stroke="blue" stroke-width="2" fill="transparent" /><path d="M 50 25 L 30 25" stroke="blue" stroke-width="2" fill="transparent" /><path d="M 30 0 L 50 0" stroke="blue" stroke-width="2" fill="transparent" /><path d="M 30 25 L 30 45" stroke="blue" stroke-width="2" fill="transparent" /><path d="M -30 25 L -30 45" stroke="blue" stroke-width="2" fill="transparent" /><path d="M 30 -20 L -30 -20" stroke="blue" stroke-width="2" fill="transparent" /><path d="M 30 -20 L 30 0" stroke="blue" stroke-width="2" fill="transparent" /><path d="M -30 -20 L -30 0" stroke="blue" stroke-width="2" fill="transparent" /><path d="M 30 0 L 30 25" stroke="blue" stroke-width="2" fill="transparent" /><path d="M -10 10 L 10 -10" stroke="white" stroke-width="2" fill="transparent" /><path d="M -10 -10 L 10 10" stroke="white" stroke-width="2" fill="transparent" /><circle cx="0" cy="0" r="4" stroke="white" stroke-width="2" fill="green" /></svg>