<svg width="100&#37;" height="100&#37;" version="1.1" xmlns="http://www.w3.org/2000/svg" overflow="visible" style="background: black"> <text text-anchor="middle" x = "0" y = "50" transform="rotate(0 0 50)" fill = "white" font-size = "29">?</text><text text-anchor="start" x = "80" y = "50" transform="rotate(0 80 50)" fill = "white" font-size = "29">?</text><text text-anchor="end" x = "-80" y = "50" transform="rotate(0 -80 50)" fill = "white" font-size = "29">?</text><text text-anchor="middle" x = "0" y = "-30" transform="rotate(0 0 -30)" fill = "blue" font-size = "48">?</text><rect x="-50" y="-50" width="100" height="100" stroke="yellow" stroke-dasharray="5,5" stroke-width="3" fill="transparent" /> <text text-anchor="start" x = "110" y = "0" transform="rotate(0 110 0)" fill = "white" font-size = "29">B</text><circle cx="100" cy="0" r="5" stroke="yellow" stroke-width="3" fill="red" /> <text text-anchor="end" x = "-125" y = "0" transform="rotate(0 -125 0)" fill = "white" font-size = "29">A</text><circle cx="-100" cy="0" r="5" stroke="yellow" stroke-width="3" fill="red" /> <path d="M 50 0 L 40 -20" stroke="white" stroke-width="2" fill="transparent" /><path d="M -40 -20 L -50 0" stroke="white" stroke-width="2" fill="transparent" /><path d="M -20 20 L 0 -20" stroke="white" stroke-width="2" fill="transparent" /><path d="M 0 -20 L 20 20" stroke="white" stroke-width="2" fill="transparent" /><path d="M 20 20 L 40 -20" stroke="white" stroke-width="2" fill="transparent" /><path d="M -20 20 L -40 -20" stroke="white" stroke-width="2" fill="transparent" /><path d="M 50 0 L 100 0" stroke="white" stroke-width="2" fill="transparent" /><path d="M -50 0 L -100 0" stroke="white" stroke-width="2" fill="transparent" /><path d="M -10 10 L 10 -10" stroke="white" stroke-width="2" fill="transparent" /><path d="M -10 -10 L 10 10" stroke="white" stroke-width="2" fill="transparent" /><circle cx="0" cy="0" r="4" stroke="white" stroke-width="2" fill="green" /></svg>