<svg width="100&#37;" height="100&#37;" version="1.1" xmlns="http://www.w3.org/2000/svg" overflow="visible" style="background: black"> <text text-anchor="start" x = "50" y = "50" transform="rotate(0 50 50)" fill = "white" font-size = "29">?</text><text text-anchor="start" x = "50" y = "20" transform="rotate(0 50 20)" fill = "white" font-size = "29">?</text><text text-anchor="start" x = "50" y = "-10" transform="rotate(0 50 -10)" fill = "white" font-size = "29">?</text><text text-anchor="start" x = "50" y = "-40" transform="rotate(0 50 -40)" fill = "blue" font-size = "48">?</text><rect x="-50" y="-50" width="100" height="100" stroke="yellow" stroke-dasharray="5,5" stroke-width="3" fill="transparent" /> <text text-anchor="end" x = "-25" y = "-100" transform="rotate(0 -25 -100)" fill = "white" font-size = "29">A</text><circle cx="0" cy="-100" r="5" stroke="yellow" stroke-width="3" fill="red" /> <text text-anchor="end" x = "-25" y = "100" transform="rotate(0 -25 100)" fill = "white" font-size = "29">B</text><circle cx="0" cy="100" r="5" stroke="yellow" stroke-width="3" fill="red" /> <path d="M -20 40 L 0 50" stroke="white" stroke-width="2" fill="transparent" /><path d="M 0 -50 L -20 -40" stroke="white" stroke-width="2" fill="transparent" /><path d="M 20 20 L -20 0" stroke="white" stroke-width="2" fill="transparent" /><path d="M 20 20 L -20 40" stroke="white" stroke-width="2" fill="transparent" /><path d="M -20 0 L 20 -20" stroke="white" stroke-width="2" fill="transparent" /><path d="M 20 -20 L -20 -40" stroke="white" stroke-width="2" fill="transparent" /><path d="M 0 -100 L 0 -50" stroke="white" stroke-width="2" fill="transparent" /><path d="M 0 100 L 0 50" stroke="white" stroke-width="2" fill="transparent" /><path d="M -10 10 L 10 -10" stroke="white" stroke-width="2" fill="transparent" /><path d="M -10 -10 L 10 10" stroke="white" stroke-width="2" fill="transparent" /><circle cx="0" cy="0" r="4" stroke="white" stroke-width="2" fill="green" /></svg>