<svg width="100&#37;" height="100&#37;" version="1.1" xmlns="http://www.w3.org/2000/svg" overflow="visible" style="background: black"> <rect x="-65" y="-40" width="130" height="80" stroke="yellow" stroke-dasharray="5,5" stroke-width="3" fill="transparent" /> <text text-anchor="middle" x = "0" y = "-65" transform="rotate(0 0 -65)" fill = "red" font-size = "0">lpf_polezero</text><text text-anchor="start" x = "5" y = "20" transform="rotate(0 5 20)" fill = "white" font-size = "0">LP</text><text text-anchor="start" x = "50" y = "0" transform="rotate(0 50 0)" fill = "white" font-size = "16">P2</text><circle cx="50" cy="0" r="5" stroke="yellow" stroke-width="3" fill="red" /> <text text-anchor="start" x = "-50" y = "0" transform="rotate(0 -50 0)" fill = "white" font-size = "16">P1</text><circle cx="-50" cy="0" r="5" stroke="yellow" stroke-width="3" fill="red" /> <circle cx="-20" cy="-10" r="5" stroke="blue" stroke-width="2" fill="transparent" /><circle cx="-20" cy="10" r="5" stroke="blue" stroke-width="2" fill="transparent" /><path d="M 50 0 L -50 0" stroke="blue" stroke-width="2" fill="transparent" /><path d="M -30 25 L -30 -25" stroke="blue" stroke-width="2" fill="transparent" /><path d="M -30 -25 L 30 -25" stroke="blue" stroke-width="2" fill="transparent" /><path d="M -30 25 L 30 25" stroke="blue" stroke-width="2" fill="transparent" /><path d="M 30 25 L 30 -25" stroke="blue" stroke-width="2" fill="transparent" /><path d="M -45 -5 L -45 5" stroke="blue" stroke-width="2" fill="transparent" /><path d="M 0 -20 L 0 20" stroke="blue" stroke-width="2" fill="transparent" /><path d="M -15 15 L -10 20" stroke="blue" stroke-width="2" fill="transparent" /><path d="M -10 15 L -15 20" stroke="blue" stroke-width="2" fill="transparent" /><path d="M -15 -20 L -5 -15" stroke="blue" stroke-width="2" fill="transparent" /><path d="M -5 -20 L -15 -15" stroke="blue" stroke-width="2" fill="transparent" /><path d="M -10 10 L 10 -10" stroke="white" stroke-width="2" fill="transparent" /><path d="M -10 -10 L 10 10" stroke="white" stroke-width="2" fill="transparent" /><circle cx="0" cy="0" r="4" stroke="white" stroke-width="2" fill="green" /></svg>