<svg width="100&#37;" height="100&#37;" version="1.1" xmlns="http://www.w3.org/2000/svg" overflow="visible" style="background: black"> <text text-anchor="start" x = "470" y = "-400" transform="rotate(0 470 -400)" fill = "white" font-size = "32">?</text><text text-anchor="end" x = "440" y = "-400" transform="rotate(0 440 -400)" fill = "white" font-size = "24">VGA_SGND</text><text text-anchor="start" x = "470" y = "-250" transform="rotate(0 470 -250)" fill = "white" font-size = "32">?</text><text text-anchor="end" x = "440" y = "-250" transform="rotate(0 440 -250)" fill = "white" font-size = "24">DVI_DDC_CLK</text><text text-anchor="start" x = "470" y = "-200" transform="rotate(0 470 -200)" fill = "white" font-size = "32">?</text><text text-anchor="end" x = "440" y = "-200" transform="rotate(0 440 -200)" fill = "white" font-size = "24">DVI_DDC_DATA</text><text text-anchor="start" x = "470" y = "-150" transform="rotate(0 470 -150)" fill = "white" font-size = "32">?</text><text text-anchor="end" x = "440" y = "-150" transform="rotate(0 440 -150)" fill = "white" font-size = "24">DVI_VSYNC</text><text text-anchor="start" x = "470" y = "-100" transform="rotate(0 470 -100)" fill = "white" font-size = "32">?</text><text text-anchor="end" x = "440" y = "-100" transform="rotate(0 440 -100)" fill = "white" font-size = "24">DVI_ANALOG_RED</text><text text-anchor="start" x = "470" y = "-50" transform="rotate(0 470 -50)" fill = "white" font-size = "32">?</text><text text-anchor="end" x = "440" y = "-50" transform="rotate(0 440 -50)" fill = "white" font-size = "24">DVI_ANALOG_GRN</text><text text-anchor="start" x = "470" y = "0" transform="rotate(0 470 0)" fill = "white" font-size = "32">?</text><text text-anchor="end" x = "440" y = "0" transform="rotate(0 440 0)" fill = "white" font-size = "24">DVI_ANALOG_BLUE</text><text text-anchor="start" x = "470" y = "199" transform="rotate(0 470 199)" fill = "white" font-size = "32">?</text><text text-anchor="end" x = "440" y = "200" transform="rotate(0 440 200)" fill = "white" font-size = "24">DVI_TDMS_CLKN</text><text text-anchor="start" x = "470" y = "149" transform="rotate(0 470 149)" fill = "white" font-size = "32">?</text><text text-anchor="end" x = "440" y = "150" transform="rotate(0 440 150)" fill = "white" font-size = "24">DVI_TDMS_CLKP</text><text text-anchor="start" x = "470" y = "99" transform="rotate(0 470 99)" fill = "white" font-size = "32">?</text><text text-anchor="end" x = "440" y = "100" transform="rotate(0 440 100)" fill = "white" font-size = "24">DVI_A_GND_RTN</text><text text-anchor="start" x = "470" y = "49" transform="rotate(0 470 49)" fill = "white" font-size = "32">?</text><text text-anchor="end" x = "440" y = "50" transform="rotate(0 440 50)" fill = "white" font-size = "24">DVI_A_HORZ_SYNC</text><text text-anchor="start" x = "470" y = "249" transform="rotate(0 470 249)" fill = "white" font-size = "32">?</text><text text-anchor="end" x = "440" y = "250" transform="rotate(0 440 250)" fill = "white" font-size = "24">DVI_TDMS_CLK_SHLD</text><text text-anchor="start" x = "470" y = "349" transform="rotate(0 470 349)" fill = "white" font-size = "32">?</text><text text-anchor="end" x = "440" y = "350" transform="rotate(0 440 350)" fill = "white" font-size = "24">DVI_TDMS_SHLD13</text><text text-anchor="start" x = "470" y = "399" transform="rotate(0 470 399)" fill = "white" font-size = "32">?</text><text text-anchor="end" x = "440" y = "400" transform="rotate(0 440 400)" fill = "white" font-size = "24">DVI_TDMS_SHLD24</text><text text-anchor="start" x = "470" y = "449" transform="rotate(0 470 449)" fill = "white" font-size = "32">?</text><text text-anchor="end" x = "440" y = "450" transform="rotate(0 440 450)" fill = "white" font-size = "24">DVI_TDMS_SHLD05</text><text text-anchor="start" x = "470" y = "549" transform="rotate(0 470 549)" fill = "white" font-size = "32">?</text><text text-anchor="end" x = "440" y = "550" transform="rotate(0 440 550)" fill = "white" font-size = "24">DVI_TDMS_DP[0]</text><text text-anchor="start" x = "470" y = "599" transform="rotate(0 470 599)" fill = "white" font-size = "32">?</text><text text-anchor="end" x = "440" y = "600" transform="rotate(0 440 600)" fill = "white" font-size = "24">DVI_TDMS_DN[0]</text><text text-anchor="start" x = "470" y = "649" transform="rotate(0 470 649)" fill = "white" font-size = "32">?</text><text text-anchor="end" x = "440" y = "650" transform="rotate(0 440 650)" fill = "white" font-size = "24">DVI_TDMS_DP[1]</text><text text-anchor="start" x = "470" y = "699" transform="rotate(0 470 699)" fill = "white" font-size = "32">?</text><text text-anchor="end" x = "440" y = "700" transform="rotate(0 440 700)" fill = "white" font-size = "24">DVI_TDMS_DN[1]</text><text text-anchor="start" x = "470" y = "749" transform="rotate(0 470 749)" fill = "white" font-size = "32">?</text><text text-anchor="end" x = "440" y = "750" transform="rotate(0 440 750)" fill = "white" font-size = "24">DVI_TDMS_DP[2]</text><text text-anchor="start" x = "470" y = "-600" transform="rotate(0 470 -600)" fill = "white" font-size = "32">?</text><text text-anchor="end" x = "440" y = "-600" transform="rotate(0 440 -600)" fill = "white" font-size = "24">VGA_VSYNC</text><text text-anchor="start" x = "470" y = "-900" transform="rotate(0 470 -900)" fill = "white" font-size = "32">?</text><text text-anchor="end" x = "440" y = "-900" transform="rotate(0 440 -900)" fill = "white" font-size = "24">VGA_ID3</text><text text-anchor="start" x = "470" y = "-950" transform="rotate(0 470 -950)" fill = "white" font-size = "32">?</text><text text-anchor="end" x = "440" y = "-950" transform="rotate(0 440 -950)" fill = "white" font-size = "24">VGA_BVID</text><text text-anchor="start" x = "470" y = "1099" transform="rotate(0 470 1099)" fill = "white" font-size = "32">?</text><text text-anchor="end" x = "440" y = "1100" transform="rotate(0 440 1100)" fill = "white" font-size = "24">DVI_TDMS_DN[5]</text><text text-anchor="start" x = "470" y = "-850" transform="rotate(0 470 -850)" fill = "white" font-size = "32">?</text><text text-anchor="end" x = "440" y = "-850" transform="rotate(0 440 -850)" fill = "white" font-size = "24">VGA_ID2</text><text text-anchor="start" x = "470" y = "-800" transform="rotate(0 470 -800)" fill = "white" font-size = "32">?</text><text text-anchor="end" x = "440" y = "-800" transform="rotate(0 440 -800)" fill = "white" font-size = "24">VGA_ID1</text><text text-anchor="start" x = "470" y = "-750" transform="rotate(0 470 -750)" fill = "white" font-size = "32">?</text><text text-anchor="end" x = "440" y = "-750" transform="rotate(0 440 -750)" fill = "white" font-size = "24">VGA_ID0</text><text text-anchor="start" x = "470" y = "-550" transform="rotate(0 470 -550)" fill = "white" font-size = "32">?</text><text text-anchor="end" x = "440" y = "-550" transform="rotate(0 440 -550)" fill = "white" font-size = "24">VGA_RGND</text><text text-anchor="start" x = "470" y = "-650" transform="rotate(0 470 -650)" fill = "white" font-size = "32">?</text><text text-anchor="end" x = "440" y = "-650" transform="rotate(0 440 -650)" fill = "white" font-size = "24">VGA_HSYNC</text><text text-anchor="start" x = "470" y = "-1000" transform="rotate(0 470 -1000)" fill = "white" font-size = "32">?</text><text text-anchor="end" x = "440" y = "-1000" transform="rotate(0 440 -1000)" fill = "white" font-size = "24">VGA_GVID</text><text text-anchor="start" x = "470" y = "-1050" transform="rotate(0 470 -1050)" fill = "white" font-size = "32">?</text><text text-anchor="end" x = "440" y = "-1050" transform="rotate(0 440 -1050)" fill = "white" font-size = "24">VGA_RVID</text><text text-anchor="start" x = "470" y = "949" transform="rotate(0 470 949)" fill = "white" font-size = "32">?</text><text text-anchor="end" x = "440" y = "950" transform="rotate(0 440 950)" fill = "white" font-size = "24">DVI_TDMS_DP[4]</text><text text-anchor="start" x = "470" y = "899" transform="rotate(0 470 899)" fill = "white" font-size = "32">?</text><text text-anchor="end" x = "440" y = "900" transform="rotate(0 440 900)" fill = "white" font-size = "24">DVI_TDMS_DN[3]</text><text text-anchor="start" x = "470" y = "1049" transform="rotate(0 470 1049)" fill = "white" font-size = "32">?</text><text text-anchor="end" x = "440" y = "1050" transform="rotate(0 440 1050)" fill = "white" font-size = "24">DVI_TDMS_DP[5]</text><text text-anchor="start" x = "470" y = "999" transform="rotate(0 470 999)" fill = "white" font-size = "32">?</text><text text-anchor="end" x = "440" y = "1000" transform="rotate(0 440 1000)" fill = "white" font-size = "24">DVI_TDMS_DN[4]</text><text text-anchor="start" x = "470" y = "799" transform="rotate(0 470 799)" fill = "white" font-size = "32">?</text><text text-anchor="end" x = "440" y = "800" transform="rotate(0 440 800)" fill = "white" font-size = "24">DVI_TDMS_DN[2]</text><text text-anchor="start" x = "470" y = "849" transform="rotate(0 470 849)" fill = "white" font-size = "32">?</text><text text-anchor="end" x = "440" y = "850" transform="rotate(0 440 850)" fill = "white" font-size = "24">DVI_TDMS_DP[3]</text><text text-anchor="end" x = "-470" y = "249" transform="rotate(0 -470 249)" fill = "white" font-size = "32">?</text><text text-anchor="start" x = "-440" y = "250" transform="rotate(0 -440 250)" fill = "white" font-size = "24">HDMI_TDMS_DN[1]</text><text text-anchor="end" x = "-470" y = "349" transform="rotate(0 -470 349)" fill = "white" font-size = "32">?</text><text text-anchor="start" x = "-440" y = "350" transform="rotate(0 -440 350)" fill = "white" font-size = "24">HDMI_TDMS_DN[2]</text><text text-anchor="end" x = "-470" y = "-400" transform="rotate(0 -470 -400)" fill = "white" font-size = "32">?</text><text text-anchor="start" x = "-440" y = "-400" transform="rotate(0 -440 -400)" fill = "white" font-size = "24">HDMI_DDC_CLK</text><text text-anchor="end" x = "-470" y = "-350" transform="rotate(0 -470 -350)" fill = "white" font-size = "32">?</text><text text-anchor="start" x = "-440" y = "-350" transform="rotate(0 -440 -350)" fill = "white" font-size = "24">HDMI_DDC_DATA</text><text text-anchor="end" x = "-470" y = "-250" transform="rotate(0 -470 -250)" fill = "white" font-size = "32">?</text><text text-anchor="start" x = "-440" y = "-250" transform="rotate(0 -440 -250)" fill = "white" font-size = "24">HDMI_TDMS_CLKSHLD</text><text text-anchor="end" x = "-470" y = "49" transform="rotate(0 -470 49)" fill = "white" font-size = "32">?</text><text text-anchor="start" x = "-440" y = "50" transform="rotate(0 -440 50)" fill = "white" font-size = "24">HDMI_TDMS_CLKN</text><text text-anchor="end" x = "-470" y = "-200" transform="rotate(0 -470 -200)" fill = "white" font-size = "32">?</text><text text-anchor="start" x = "-440" y = "-200" transform="rotate(0 -440 -200)" fill = "white" font-size = "24">HDMI_TDMS_SHLD0</text><text text-anchor="end" x = "-470" y = "-100" transform="rotate(0 -470 -100)" fill = "white" font-size = "32">?</text><text text-anchor="start" x = "-440" y = "-100" transform="rotate(0 -440 -100)" fill = "white" font-size = "24">HDMI_TDMS_SHLD2</text><text text-anchor="end" x = "-470" y = "149" transform="rotate(0 -470 149)" fill = "white" font-size = "32">?</text><text text-anchor="start" x = "-440" y = "150" transform="rotate(0 -440 150)" fill = "white" font-size = "24">HDMI_TDMS_DN[0]</text><text text-anchor="end" x = "-470" y = "-450" transform="rotate(0 -470 -450)" fill = "white" font-size = "32">?</text><text text-anchor="start" x = "-440" y = "-450" transform="rotate(0 -440 -450)" fill = "white" font-size = "24">HDMI_CEC</text><text text-anchor="end" x = "-470" y = "99" transform="rotate(0 -470 99)" fill = "white" font-size = "32">?</text><text text-anchor="start" x = "-440" y = "100" transform="rotate(0 -440 100)" fill = "white" font-size = "24">HDMI_TDMS_DP[0]</text><text text-anchor="end" x = "-470" y = "-500" transform="rotate(0 -470 -500)" fill = "white" font-size = "32">?</text><text text-anchor="start" x = "-440" y = "-500" transform="rotate(0 -440 -500)" fill = "white" font-size = "24">HDMI_HPDTCT</text><text text-anchor="end" x = "-470" y = "199" transform="rotate(0 -470 199)" fill = "white" font-size = "32">?</text><text text-anchor="start" x = "-440" y = "200" transform="rotate(0 -440 200)" fill = "white" font-size = "24">HDMI_TDMS_DP[1]</text><text text-anchor="end" x = "-470" y = "299" transform="rotate(0 -470 299)" fill = "white" font-size = "32">?</text><text text-anchor="start" x = "-440" y = "300" transform="rotate(0 -440 300)" fill = "white" font-size = "24">HDMI_TDMS_DP[2]</text><text text-anchor="end" x = "-470" y = "0" transform="rotate(0 -470 0)" fill = "white" font-size = "32">?</text><text text-anchor="start" x = "-440" y = "0" transform="rotate(0 -440 0)" fill = "white" font-size = "24">HDMI_TDMS_CLKP</text><text text-anchor="end" x = "-470" y = "-150" transform="rotate(0 -470 -150)" fill = "white" font-size = "32">?</text><text text-anchor="start" x = "-440" y = "-150" transform="rotate(0 -440 -150)" fill = "white" font-size = "24">HDMI_TDMS_SHLD1</text><text text-anchor="start" x = "470" y = "-500" transform="rotate(0 470 -500)" fill = "white" font-size = "32">?</text><text text-anchor="end" x = "440" y = "-500" transform="rotate(0 440 -500)" fill = "white" font-size = "24">VGA_GGND</text><text text-anchor="start" x = "470" y = "-450" transform="rotate(0 470 -450)" fill = "white" font-size = "32">?</text><text text-anchor="end" x = "440" y = "-450" transform="rotate(0 440 -450)" fill = "white" font-size = "24">VGA_BGND</text><text text-anchor="middle" x = "0" y = "-1220" transform="rotate(0 0 -1220)" fill = "white" font-size = "64">?</text><rect x="-450" y="-1200" width="900" height="2400" stroke="yellow" stroke-dasharray="5,5" stroke-width="3" fill="transparent" /> <text text-anchor="middle" x = "0" y = "1180" transform="rotate(0 0 1180)" fill = "white" font-size = "40">Symbol 5 of 10</text><text text-anchor="start" x = "-425" y = "-1100" transform="rotate(0 -425 -1100)" fill = "purple" font-size = "48">VIPER_ASIC</text><text text-anchor="start" x = "-425" y = "1100" transform="rotate(0 -425 1100)" fill = "purple" font-size = "64">VIDEO PORTS</text><text text-anchor="start" x = "525" y = "-400" transform="rotate(0 525 -400)" fill = "white" font-size = "32">VGA_SGND</text><circle cx="500" cy="-400" r="5" stroke="yellow" stroke-width="3" fill="red" /> <text text-anchor="start" x = "525" y = "-250" transform="rotate(0 525 -250)" fill = "white" font-size = "32">DVI_DDC_CLK</text><circle cx="500" cy="-250" r="5" stroke="yellow" stroke-width="3" fill="red" /> <text text-anchor="start" x = "525" y = "-200" transform="rotate(0 525 -200)" fill = "white" font-size = "32">DVI_DDC_DATA</text><circle cx="500" cy="-200" r="5" stroke="yellow" stroke-width="3" fill="red" /> <text text-anchor="start" x = "525" y = "-150" transform="rotate(0 525 -150)" fill = "white" font-size = "32">DVI_VSYNC</text><circle cx="500" cy="-150" r="5" stroke="yellow" stroke-width="3" fill="red" /> <text text-anchor="start" x = "525" y = "-100" transform="rotate(0 525 -100)" fill = "white" font-size = "32">DVI_ANALOG_RED</text><circle cx="500" cy="-100" r="5" stroke="yellow" stroke-width="3" fill="red" /> <text text-anchor="start" x = "525" y = "-50" transform="rotate(0 525 -50)" fill = "white" font-size = "32">DVI_ANALOG_GRN</text><circle cx="500" cy="-50" r="5" stroke="yellow" stroke-width="3" fill="red" /> <text text-anchor="start" x = "525" y = "0" transform="rotate(0 525 0)" fill = "white" font-size = "32">DVI_ANALOG_BLUE</text><circle cx="500" cy="0" r="5" stroke="yellow" stroke-width="3" fill="red" /> <text text-anchor="start" x = "525" y = "200" transform="rotate(0 525 200)" fill = "white" font-size = "32">DVI_TDMS_CLKN</text><circle cx="500" cy="200" r="5" stroke="yellow" stroke-width="3" fill="red" /> <text text-anchor="start" x = "525" y = "150" transform="rotate(0 525 150)" fill = "white" font-size = "32">DVI_TDMS_CLKP</text><circle cx="500" cy="150" r="5" stroke="yellow" stroke-width="3" fill="red" /> <text text-anchor="start" x = "525" y = "100" transform="rotate(0 525 100)" fill = "white" font-size = "32">DVI_A_GND_RTN</text><circle cx="500" cy="100" r="5" stroke="yellow" stroke-width="3" fill="red" /> <text text-anchor="start" x = "525" y = "50" transform="rotate(0 525 50)" fill = "white" font-size = "32">DVI_A_HORZ_SYNC</text><circle cx="500" cy="50" r="5" stroke="yellow" stroke-width="3" fill="red" /> <text text-anchor="start" x = "525" y = "250" transform="rotate(0 525 250)" fill = "white" font-size = "32">DVI_TDMS_CLK_SHLD</text><circle cx="500" cy="250" r="5" stroke="yellow" stroke-width="3" fill="red" /> <text text-anchor="start" x = "525" y = "350" transform="rotate(0 525 350)" fill = "white" font-size = "32">DVI_TDMS_SHLD13</text><circle cx="500" cy="350" r="5" stroke="yellow" stroke-width="3" fill="red" /> <text text-anchor="start" x = "525" y = "400" transform="rotate(0 525 400)" fill = "white" font-size = "32">DVI_TDMS_SHLD24</text><circle cx="500" cy="400" r="5" stroke="yellow" stroke-width="3" fill="red" /> <text text-anchor="start" x = "525" y = "450" transform="rotate(0 525 450)" fill = "white" font-size = "32">DVI_TDMS_SHLD05</text><circle cx="500" cy="450" r="5" stroke="yellow" stroke-width="3" fill="red" /> <text text-anchor="start" x = "525" y = "550" transform="rotate(0 525 550)" fill = "white" font-size = "32">DVI_TDMS_DP&lt;0&gt;</text><circle cx="500" cy="550" r="5" stroke="yellow" stroke-width="3" fill="red" /> <text text-anchor="start" x = "525" y = "600" transform="rotate(0 525 600)" fill = "white" font-size = "32">DVI_TDMS_DN&lt;0&gt;</text><circle cx="500" cy="600" r="5" stroke="yellow" stroke-width="3" fill="red" /> <text text-anchor="start" x = "525" y = "650" transform="rotate(0 525 650)" fill = "white" font-size = "32">DVI_TDMS_DP&lt;1&gt;</text><circle cx="500" cy="650" r="5" stroke="yellow" stroke-width="3" fill="red" /> <text text-anchor="start" x = "525" y = "700" transform="rotate(0 525 700)" fill = "white" font-size = "32">DVI_TDMS_DN&lt;1&gt;</text><circle cx="500" cy="700" r="5" stroke="yellow" stroke-width="3" fill="red" /> <text text-anchor="start" x = "525" y = "750" transform="rotate(0 525 750)" fill = "white" font-size = "32">DVI_TDMS_DP&lt;2&gt;</text><circle cx="500" cy="750" r="5" stroke="yellow" stroke-width="3" fill="red" /> <text text-anchor="start" x = "525" y = "-600" transform="rotate(0 525 -600)" fill = "white" font-size = "32">VGA_VSYNC</text><circle cx="500" cy="-600" r="5" stroke="yellow" stroke-width="3" fill="red" /> <text text-anchor="start" x = "525" y = "-900" transform="rotate(0 525 -900)" fill = "white" font-size = "32">VGA_ID3</text><circle cx="500" cy="-900" r="5" stroke="yellow" stroke-width="3" fill="red" /> <text text-anchor="start" x = "525" y = "-950" transform="rotate(0 525 -950)" fill = "white" font-size = "32">VGA_BVID</text><circle cx="500" cy="-950" r="5" stroke="yellow" stroke-width="3" fill="red" /> <text text-anchor="start" x = "525" y = "1100" transform="rotate(0 525 1100)" fill = "white" font-size = "32">DVI_TDMS_DN&lt;5&gt;</text><circle cx="500" cy="1100" r="5" stroke="yellow" stroke-width="3" fill="red" /> <text text-anchor="start" x = "525" y = "-850" transform="rotate(0 525 -850)" fill = "white" font-size = "32">VGA_ID2</text><circle cx="500" cy="-850" r="5" stroke="yellow" stroke-width="3" fill="red" /> <text text-anchor="start" x = "525" y = "-800" transform="rotate(0 525 -800)" fill = "white" font-size = "32">VGA_ID1</text><circle cx="500" cy="-800" r="5" stroke="yellow" stroke-width="3" fill="red" /> <text text-anchor="start" x = "525" y = "-750" transform="rotate(0 525 -750)" fill = "white" font-size = "32">VGA_ID0</text><circle cx="500" cy="-750" r="5" stroke="yellow" stroke-width="3" fill="red" /> <text text-anchor="start" x = "525" y = "-550" transform="rotate(0 525 -550)" fill = "white" font-size = "32">VGA_RGND</text><circle cx="500" cy="-550" r="5" stroke="yellow" stroke-width="3" fill="red" /> <text text-anchor="start" x = "525" y = "-650" transform="rotate(0 525 -650)" fill = "white" font-size = "32">VGA_HSYNC</text><circle cx="500" cy="-650" r="5" stroke="yellow" stroke-width="3" fill="red" /> <text text-anchor="start" x = "525" y = "-1000" transform="rotate(0 525 -1000)" fill = "white" font-size = "32">VGA_GVID</text><circle cx="500" cy="-1000" r="5" stroke="yellow" stroke-width="3" fill="red" /> <text text-anchor="start" x = "525" y = "-1050" transform="rotate(0 525 -1050)" fill = "white" font-size = "32">VGA_RVID</text><circle cx="500" cy="-1050" r="5" stroke="yellow" stroke-width="3" fill="red" /> <text text-anchor="start" x = "525" y = "950" transform="rotate(0 525 950)" fill = "white" font-size = "32">DVI_TDMS_DP&lt;4&gt;</text><circle cx="500" cy="950" r="5" stroke="yellow" stroke-width="3" fill="red" /> <text text-anchor="start" x = "525" y = "900" transform="rotate(0 525 900)" fill = "white" font-size = "32">DVI_TDMS_DN&lt;3&gt;</text><circle cx="500" cy="900" r="5" stroke="yellow" stroke-width="3" fill="red" /> <text text-anchor="start" x = "525" y = "1050" transform="rotate(0 525 1050)" fill = "white" font-size = "32">DVI_TDMS_DP&lt;5&gt;</text><circle cx="500" cy="1050" r="5" stroke="yellow" stroke-width="3" fill="red" /> <text text-anchor="start" x = "525" y = "1000" transform="rotate(0 525 1000)" fill = "white" font-size = "32">DVI_TDMS_DN&lt;4&gt;</text><circle cx="500" cy="1000" r="5" stroke="yellow" stroke-width="3" fill="red" /> <text text-anchor="start" x = "525" y = "800" transform="rotate(0 525 800)" fill = "white" font-size = "32">DVI_TDMS_DN&lt;2&gt;</text><circle cx="500" cy="800" r="5" stroke="yellow" stroke-width="3" fill="red" /> <text text-anchor="start" x = "525" y = "850" transform="rotate(0 525 850)" fill = "white" font-size = "32">DVI_TDMS_DP&lt;3&gt;</text><circle cx="500" cy="850" r="5" stroke="yellow" stroke-width="3" fill="red" /> <text text-anchor="end" x = "-525" y = "250" transform="rotate(0 -525 250)" fill = "white" font-size = "32">HDMI_TDMS_DN&lt;1&gt;</text><circle cx="-500" cy="250" r="5" stroke="yellow" stroke-width="3" fill="red" /> <text text-anchor="end" x = "-525" y = "350" transform="rotate(0 -525 350)" fill = "white" font-size = "32">HDMI_TDMS_DN&lt;2&gt;</text><circle cx="-500" cy="350" r="5" stroke="yellow" stroke-width="3" fill="red" /> <text text-anchor="end" x = "-525" y = "-400" transform="rotate(0 -525 -400)" fill = "white" font-size = "32">HDMI_DDC_CLK</text><circle cx="-500" cy="-400" r="5" stroke="yellow" stroke-width="3" fill="red" /> <text text-anchor="end" x = "-525" y = "-350" transform="rotate(0 -525 -350)" fill = "white" font-size = "32">HDMI_DDC_DATA</text><circle cx="-500" cy="-350" r="5" stroke="yellow" stroke-width="3" fill="red" /> <text text-anchor="end" x = "-525" y = "-250" transform="rotate(0 -525 -250)" fill = "white" font-size = "32">HDMI_TDMS_CLKSHLD</text><circle cx="-500" cy="-250" r="5" stroke="yellow" stroke-width="3" fill="red" /> <text text-anchor="end" x = "-525" y = "50" transform="rotate(0 -525 50)" fill = "white" font-size = "32">HDMI_TDMS_CLKN</text><circle cx="-500" cy="50" r="5" stroke="yellow" stroke-width="3" fill="red" /> <text text-anchor="end" x = "-525" y = "-200" transform="rotate(0 -525 -200)" fill = "white" font-size = "32">HDMI_TDMS_SHLD0</text><circle cx="-500" cy="-200" r="5" stroke="yellow" stroke-width="3" fill="red" /> <text text-anchor="end" x = "-525" y = "-100" transform="rotate(0 -525 -100)" fill = "white" font-size = "32">HDMI_TDMS_SHLD2</text><circle cx="-500" cy="-100" r="5" stroke="yellow" stroke-width="3" fill="red" /> <text text-anchor="end" x = "-525" y = "150" transform="rotate(0 -525 150)" fill = "white" font-size = "32">HDMI_TDMS_DN&lt;0&gt;</text><circle cx="-500" cy="150" r="5" stroke="yellow" stroke-width="3" fill="red" /> <text text-anchor="end" x = "-525" y = "-450" transform="rotate(0 -525 -450)" fill = "white" font-size = "32">HDMI_CEC</text><circle cx="-500" cy="-450" r="5" stroke="yellow" stroke-width="3" fill="red" /> <text text-anchor="end" x = "-525" y = "100" transform="rotate(0 -525 100)" fill = "white" font-size = "32">HDMI_TDMS_DP&lt;0&gt;</text><circle cx="-500" cy="100" r="5" stroke="yellow" stroke-width="3" fill="red" /> <text text-anchor="end" x = "-525" y = "-500" transform="rotate(0 -525 -500)" fill = "white" font-size = "32">HDMI_HPDTCT</text><circle cx="-500" cy="-500" r="5" stroke="yellow" stroke-width="3" fill="red" /> <text text-anchor="end" x = "-525" y = "200" transform="rotate(0 -525 200)" fill = "white" font-size = "32">HDMI_TDMS_DP&lt;1&gt;</text><circle cx="-500" cy="200" r="5" stroke="yellow" stroke-width="3" fill="red" /> <text text-anchor="end" x = "-525" y = "300" transform="rotate(0 -525 300)" fill = "white" font-size = "32">HDMI_TDMS_DP&lt;2&gt;</text><circle cx="-500" cy="300" r="5" stroke="yellow" stroke-width="3" fill="red" /> <text text-anchor="end" x = "-525" y = "0" transform="rotate(0 -525 0)" fill = "white" font-size = "32">HDMI_TDMS_CLKP</text><circle cx="-500" cy="0" r="5" stroke="yellow" stroke-width="3" fill="red" /> <text text-anchor="end" x = "-525" y = "-150" transform="rotate(0 -525 -150)" fill = "white" font-size = "32">HDMI_TDMS_SHLD1</text><circle cx="-500" cy="-150" r="5" stroke="yellow" stroke-width="3" fill="red" /> <text text-anchor="start" x = "525" y = "-500" transform="rotate(0 525 -500)" fill = "white" font-size = "32">VGA_GGND</text><circle cx="500" cy="-500" r="5" stroke="yellow" stroke-width="3" fill="red" /> <text text-anchor="start" x = "525" y = "-450" transform="rotate(0 525 -450)" fill = "white" font-size = "32">VGA_BGND</text><circle cx="500" cy="-450" r="5" stroke="yellow" stroke-width="3" fill="red" /> <path d="M 500 -400 L 450 -400" stroke="white" stroke-width="2" fill="transparent" /><path d="M 500 -250 L 450 -250" stroke="white" stroke-width="2" fill="transparent" /><path d="M 500 -200 L 450 -200" stroke="white" stroke-width="2" fill="transparent" /><path d="M 500 -150 L 450 -150" stroke="white" stroke-width="2" fill="transparent" /><path d="M 500 -100 L 450 -100" stroke="white" stroke-width="2" fill="transparent" /><path d="M 500 -50 L 450 -50" stroke="white" stroke-width="2" fill="transparent" /><path d="M 500 0 L 450 0" stroke="white" stroke-width="2" fill="transparent" /><path d="M 500 200 L 450 200" stroke="white" stroke-width="2" fill="transparent" /><path d="M 500 150 L 450 150" stroke="white" stroke-width="2" fill="transparent" /><path d="M 500 100 L 450 100" stroke="white" stroke-width="2" fill="transparent" /><path d="M 500 50 L 450 50" stroke="white" stroke-width="2" fill="transparent" /><path d="M 500 250 L 450 250" stroke="white" stroke-width="2" fill="transparent" /><path d="M 500 350 L 450 350" stroke="white" stroke-width="2" fill="transparent" /><path d="M 500 400 L 450 400" stroke="white" stroke-width="2" fill="transparent" /><path d="M 500 450 L 450 450" stroke="white" stroke-width="2" fill="transparent" /><path d="M 500 550 L 450 550" stroke="white" stroke-width="2" fill="transparent" /><path d="M 500 600 L 450 600" stroke="white" stroke-width="2" fill="transparent" /><path d="M 500 650 L 450 650" stroke="white" stroke-width="2" fill="transparent" /><path d="M 500 700 L 450 700" stroke="white" stroke-width="2" fill="transparent" /><path d="M 500 750 L 450 750" stroke="white" stroke-width="2" fill="transparent" /><path d="M 500 -600 L 450 -600" stroke="white" stroke-width="2" fill="transparent" /><path d="M 500 -900 L 450 -900" stroke="white" stroke-width="2" fill="transparent" /><path d="M 500 -950 L 450 -950" stroke="white" stroke-width="2" fill="transparent" /><path d="M 500 1100 L 450 1100" stroke="white" stroke-width="2" fill="transparent" /><path d="M 500 -850 L 450 -850" stroke="white" stroke-width="2" fill="transparent" /><path d="M 500 -800 L 450 -800" stroke="white" stroke-width="2" fill="transparent" /><path d="M 500 -750 L 450 -750" stroke="white" stroke-width="2" fill="transparent" /><path d="M 500 -550 L 450 -550" stroke="white" stroke-width="2" fill="transparent" /><path d="M 500 -650 L 450 -650" stroke="white" stroke-width="2" fill="transparent" /><path d="M 500 -1000 L 450 -1000" stroke="white" stroke-width="2" fill="transparent" /><path d="M 500 -1050 L 450 -1050" stroke="white" stroke-width="2" fill="transparent" /><path d="M 500 950 L 450 950" stroke="white" stroke-width="2" fill="transparent" /><path d="M 500 900 L 450 900" stroke="white" stroke-width="2" fill="transparent" /><path d="M 500 1050 L 450 1050" stroke="white" stroke-width="2" fill="transparent" /><path d="M 500 1000 L 450 1000" stroke="white" stroke-width="2" fill="transparent" /><path d="M 500 800 L 450 800" stroke="white" stroke-width="2" fill="transparent" /><path d="M 500 850 L 450 850" stroke="white" stroke-width="2" fill="transparent" /><path d="M -500 250 L -450 250" stroke="white" stroke-width="2" fill="transparent" /><path d="M -500 350 L -450 350" stroke="white" stroke-width="2" fill="transparent" /><path d="M -500 -400 L -450 -400" stroke="white" stroke-width="2" fill="transparent" /><path d="M -500 -350 L -450 -350" stroke="white" stroke-width="2" fill="transparent" /><path d="M -500 -250 L -450 -250" stroke="white" stroke-width="2" fill="transparent" /><path d="M -500 50 L -450 50" stroke="white" stroke-width="2" fill="transparent" /><path d="M -500 -200 L -450 -200" stroke="white" stroke-width="2" fill="transparent" /><path d="M -500 -100 L -450 -100" stroke="white" stroke-width="2" fill="transparent" /><path d="M -500 150 L -450 150" stroke="white" stroke-width="2" fill="transparent" /><path d="M -500 -450 L -450 -450" stroke="white" stroke-width="2" fill="transparent" /><path d="M -500 100 L -450 100" stroke="white" stroke-width="2" fill="transparent" /><path d="M -500 -500 L -450 -500" stroke="white" stroke-width="2" fill="transparent" /><path d="M -500 200 L -450 200" stroke="white" stroke-width="2" fill="transparent" /><path d="M -500 300 L -450 300" stroke="white" stroke-width="2" fill="transparent" /><path d="M -500 0 L -450 0" stroke="white" stroke-width="2" fill="transparent" /><path d="M -500 -150 L -450 -150" stroke="white" stroke-width="2" fill="transparent" /><path d="M 500 -500 L 450 -500" stroke="white" stroke-width="2" fill="transparent" /><path d="M 500 -450 L 450 -450" stroke="white" stroke-width="2" fill="transparent" /><path d="M -450 -1200 L -450 1200" stroke="white" stroke-width="2" fill="transparent" /><path d="M -450 1200 L 450 1200" stroke="white" stroke-width="2" fill="transparent" /><path d="M -450 -1200 L 450 -1200" stroke="white" stroke-width="2" fill="transparent" /><path d="M 450 -1200 L 450 1200" stroke="white" stroke-width="2" fill="transparent" /><path d="M -10 10 L 10 -10" stroke="white" stroke-width="2" fill="transparent" /><path d="M -10 -10 L 10 10" stroke="white" stroke-width="2" fill="transparent" /><circle cx="0" cy="0" r="4" stroke="white" stroke-width="2" fill="green" /></svg>