<svg width="100&#37;" height="100&#37;" version="1.1" xmlns="http://www.w3.org/2000/svg" overflow="visible" style="background: black"> <text text-anchor="start" x = "220" y = "-550" transform="rotate(0 220 -550)" fill = "white" font-size = "32">?</text><text text-anchor="end" x = "190" y = "-550" transform="rotate(0 190 -550)" fill = "white" font-size = "24">GPIO0</text><text text-anchor="start" x = "220" y = "-450" transform="rotate(0 220 -450)" fill = "white" font-size = "32">?</text><text text-anchor="end" x = "190" y = "-450" transform="rotate(0 190 -450)" fill = "white" font-size = "24">GPIO2</text><text text-anchor="start" x = "220" y = "-400" transform="rotate(0 220 -400)" fill = "white" font-size = "32">?</text><text text-anchor="end" x = "190" y = "-400" transform="rotate(0 190 -400)" fill = "white" font-size = "24">GPIO3</text><text text-anchor="start" x = "220" y = "-250" transform="rotate(0 220 -250)" fill = "white" font-size = "32">?</text><text text-anchor="end" x = "190" y = "-250" transform="rotate(0 190 -250)" fill = "white" font-size = "24">GPIO6</text><text text-anchor="end" x = "-220" y = "-250" transform="rotate(0 -220 -250)" fill = "white" font-size = "32">?</text><text text-anchor="start" x = "-190" y = "-250" transform="rotate(0 -190 -250)" fill = "white" font-size = "24">GPIO26</text><text text-anchor="end" x = "-220" y = "-200" transform="rotate(0 -220 -200)" fill = "white" font-size = "32">?</text><text text-anchor="start" x = "-190" y = "-200" transform="rotate(0 -190 -200)" fill = "white" font-size = "24">GPIO27</text><text text-anchor="end" x = "-220" y = "450" transform="rotate(0 -220 450)" fill = "white" font-size = "32">?</text><text text-anchor="start" x = "-190" y = "450" transform="rotate(0 -190 450)" fill = "white" font-size = "24">GPIO40</text><text text-anchor="end" x = "-220" y = "399" transform="rotate(0 -220 399)" fill = "white" font-size = "32">?</text><text text-anchor="start" x = "-190" y = "400" transform="rotate(0 -190 400)" fill = "white" font-size = "24">GPIO39</text><text text-anchor="end" x = "-220" y = "349" transform="rotate(0 -220 349)" fill = "white" font-size = "32">?</text><text text-anchor="start" x = "-190" y = "350" transform="rotate(0 -190 350)" fill = "white" font-size = "24">GPIO38</text><text text-anchor="end" x = "-220" y = "299" transform="rotate(0 -220 299)" fill = "white" font-size = "32">?</text><text text-anchor="start" x = "-190" y = "300" transform="rotate(0 -190 300)" fill = "white" font-size = "24">GPIO37</text><text text-anchor="end" x = "-220" y = "249" transform="rotate(0 -220 249)" fill = "white" font-size = "32">?</text><text text-anchor="start" x = "-190" y = "250" transform="rotate(0 -190 250)" fill = "white" font-size = "24">GPIO36</text><text text-anchor="end" x = "-220" y = "199" transform="rotate(0 -220 199)" fill = "white" font-size = "32">?</text><text text-anchor="start" x = "-190" y = "200" transform="rotate(0 -190 200)" fill = "white" font-size = "24">GPIO35</text><text text-anchor="end" x = "-220" y = "149" transform="rotate(0 -220 149)" fill = "white" font-size = "32">?</text><text text-anchor="start" x = "-190" y = "150" transform="rotate(0 -190 150)" fill = "white" font-size = "24">GPIO34</text><text text-anchor="end" x = "-220" y = "99" transform="rotate(0 -220 99)" fill = "white" font-size = "32">?</text><text text-anchor="start" x = "-190" y = "100" transform="rotate(0 -190 100)" fill = "white" font-size = "24">GPIO33</text><text text-anchor="end" x = "-220" y = "49" transform="rotate(0 -220 49)" fill = "white" font-size = "32">?</text><text text-anchor="start" x = "-190" y = "50" transform="rotate(0 -190 50)" fill = "white" font-size = "24">GPIO32</text><text text-anchor="end" x = "-220" y = "0" transform="rotate(0 -220 0)" fill = "white" font-size = "32">?</text><text text-anchor="start" x = "-190" y = "1" transform="rotate(0 -190 1)" fill = "white" font-size = "24">GPIO31</text><text text-anchor="end" x = "-220" y = "-50" transform="rotate(0 -220 -50)" fill = "white" font-size = "32">?</text><text text-anchor="start" x = "-190" y = "-49" transform="rotate(0 -190 -49)" fill = "white" font-size = "24">GPIO30</text><text text-anchor="end" x = "-220" y = "-100" transform="rotate(0 -220 -100)" fill = "white" font-size = "32">?</text><text text-anchor="start" x = "-190" y = "-99" transform="rotate(0 -190 -99)" fill = "white" font-size = "24">GPIO29</text><text text-anchor="end" x = "-220" y = "-150" transform="rotate(0 -220 -150)" fill = "white" font-size = "32">?</text><text text-anchor="start" x = "-190" y = "-150" transform="rotate(0 -190 -150)" fill = "white" font-size = "24">GPIO28</text><text text-anchor="end" x = "-220" y = "-300" transform="rotate(0 -220 -300)" fill = "white" font-size = "32">?</text><text text-anchor="start" x = "-190" y = "-300" transform="rotate(0 -190 -300)" fill = "white" font-size = "24">GPIO25</text><text text-anchor="end" x = "-220" y = "-350" transform="rotate(0 -220 -350)" fill = "white" font-size = "32">?</text><text text-anchor="start" x = "-190" y = "-350" transform="rotate(0 -190 -350)" fill = "white" font-size = "24">GPIO24</text><text text-anchor="end" x = "-220" y = "-400" transform="rotate(0 -220 -400)" fill = "white" font-size = "32">?</text><text text-anchor="start" x = "-190" y = "-400" transform="rotate(0 -190 -400)" fill = "white" font-size = "24">GPIO23</text><text text-anchor="end" x = "-220" y = "-450" transform="rotate(0 -220 -450)" fill = "white" font-size = "32">?</text><text text-anchor="start" x = "-190" y = "-450" transform="rotate(0 -190 -450)" fill = "white" font-size = "24">GPIO22</text><text text-anchor="start" x = "220" y = "499" transform="rotate(0 220 499)" fill = "white" font-size = "32">?</text><text text-anchor="end" x = "190" y = "499" transform="rotate(0 190 499)" fill = "white" font-size = "24">GPIO21</text><text text-anchor="start" x = "220" y = "449" transform="rotate(0 220 449)" fill = "white" font-size = "32">?</text><text text-anchor="end" x = "190" y = "449" transform="rotate(0 190 449)" fill = "white" font-size = "24">GPIO20</text><text text-anchor="start" x = "220" y = "399" transform="rotate(0 220 399)" fill = "white" font-size = "32">?</text><text text-anchor="end" x = "190" y = "399" transform="rotate(0 190 399)" fill = "white" font-size = "24">GPIO19</text><text text-anchor="start" x = "220" y = "349" transform="rotate(0 220 349)" fill = "white" font-size = "32">?</text><text text-anchor="end" x = "190" y = "349" transform="rotate(0 190 349)" fill = "white" font-size = "24">GPIO18</text><text text-anchor="start" x = "220" y = "299" transform="rotate(0 220 299)" fill = "white" font-size = "32">?</text><text text-anchor="end" x = "190" y = "299" transform="rotate(0 190 299)" fill = "white" font-size = "24">GPIO17</text><text text-anchor="start" x = "220" y = "249" transform="rotate(0 220 249)" fill = "white" font-size = "32">?</text><text text-anchor="end" x = "190" y = "249" transform="rotate(0 190 249)" fill = "white" font-size = "24">GPIO16</text><text text-anchor="start" x = "220" y = "199" transform="rotate(0 220 199)" fill = "white" font-size = "32">?</text><text text-anchor="end" x = "190" y = "199" transform="rotate(0 190 199)" fill = "white" font-size = "24">GPIO15</text><text text-anchor="start" x = "220" y = "149" transform="rotate(0 220 149)" fill = "white" font-size = "32">?</text><text text-anchor="end" x = "190" y = "149" transform="rotate(0 190 149)" fill = "white" font-size = "24">GPIO14</text><text text-anchor="start" x = "220" y = "99" transform="rotate(0 220 99)" fill = "white" font-size = "32">?</text><text text-anchor="end" x = "190" y = "99" transform="rotate(0 190 99)" fill = "white" font-size = "24">GPIO13</text><text text-anchor="start" x = "220" y = "49" transform="rotate(0 220 49)" fill = "white" font-size = "32">?</text><text text-anchor="end" x = "190" y = "49" transform="rotate(0 190 49)" fill = "white" font-size = "24">GPIO12</text><text text-anchor="start" x = "220" y = "0" transform="rotate(0 220 0)" fill = "white" font-size = "32">?</text><text text-anchor="end" x = "190" y = "0" transform="rotate(0 190 0)" fill = "white" font-size = "24">GPIO11</text><text text-anchor="start" x = "220" y = "-50" transform="rotate(0 220 -50)" fill = "white" font-size = "32">?</text><text text-anchor="end" x = "190" y = "-50" transform="rotate(0 190 -50)" fill = "white" font-size = "24">GPIO10</text><text text-anchor="start" x = "220" y = "-100" transform="rotate(0 220 -100)" fill = "white" font-size = "32">?</text><text text-anchor="end" x = "190" y = "-100" transform="rotate(0 190 -100)" fill = "white" font-size = "24">GPIO9</text><text text-anchor="start" x = "220" y = "-150" transform="rotate(0 220 -150)" fill = "white" font-size = "32">?</text><text text-anchor="end" x = "190" y = "-150" transform="rotate(0 190 -150)" fill = "white" font-size = "24">GPIO8</text><text text-anchor="start" x = "220" y = "-200" transform="rotate(0 220 -200)" fill = "white" font-size = "32">?</text><text text-anchor="end" x = "190" y = "-200" transform="rotate(0 190 -200)" fill = "white" font-size = "24">GPIO7</text><text text-anchor="start" x = "220" y = "-300" transform="rotate(0 220 -300)" fill = "white" font-size = "32">?</text><text text-anchor="end" x = "190" y = "-300" transform="rotate(0 190 -300)" fill = "white" font-size = "24">GPIO5</text><text text-anchor="start" x = "220" y = "-350" transform="rotate(0 220 -350)" fill = "white" font-size = "32">?</text><text text-anchor="end" x = "190" y = "-350" transform="rotate(0 190 -350)" fill = "white" font-size = "24">GPIO4</text><text text-anchor="start" x = "220" y = "-500" transform="rotate(0 220 -500)" fill = "white" font-size = "32">?</text><text text-anchor="end" x = "190" y = "-500" transform="rotate(0 190 -500)" fill = "white" font-size = "24">GPIO1</text><text text-anchor="middle" x = "0" y = "-720" transform="rotate(0 0 -720)" fill = "blue" font-size = "48">?</text><rect x="-200" y="-700" width="400" height="1300" stroke="yellow" stroke-dasharray="5,5" stroke-width="3" fill="transparent" /> <text text-anchor="middle" x = "0" y = "560" transform="rotate(0 0 560)" fill = "white" font-size = "32">Symbol 4 of 10</text><text text-anchor="start" x = "-175" y = "-625" transform="rotate(0 -175 -625)" fill = "purple" font-size = "48">VIPER GPIO</text><text text-anchor="start" x = "275" y = "-550" transform="rotate(0 275 -550)" fill = "white" font-size = "32">GPIO0</text><circle cx="250" cy="-550" r="5" stroke="yellow" stroke-width="3" fill="red" /> <text text-anchor="start" x = "275" y = "-450" transform="rotate(0 275 -450)" fill = "white" font-size = "32">GPIO2</text><circle cx="250" cy="-450" r="5" stroke="yellow" stroke-width="3" fill="red" /> <text text-anchor="start" x = "275" y = "-400" transform="rotate(0 275 -400)" fill = "white" font-size = "32">GPIO3</text><circle cx="250" cy="-400" r="5" stroke="yellow" stroke-width="3" fill="red" /> <text text-anchor="start" x = "275" y = "-250" transform="rotate(0 275 -250)" fill = "white" font-size = "32">GPIO6</text><circle cx="250" cy="-250" r="5" stroke="yellow" stroke-width="3" fill="red" /> <text text-anchor="end" x = "-275" y = "-250" transform="rotate(0 -275 -250)" fill = "white" font-size = "32">GPIO26</text><circle cx="-250" cy="-250" r="5" stroke="yellow" stroke-width="3" fill="red" /> <text text-anchor="end" x = "-275" y = "-200" transform="rotate(0 -275 -200)" fill = "white" font-size = "32">GPIO27</text><circle cx="-250" cy="-200" r="5" stroke="yellow" stroke-width="3" fill="red" /> <text text-anchor="end" x = "-275" y = "450" transform="rotate(0 -275 450)" fill = "white" font-size = "32">GPIO40</text><circle cx="-250" cy="450" r="5" stroke="yellow" stroke-width="3" fill="red" /> <text text-anchor="end" x = "-275" y = "400" transform="rotate(0 -275 400)" fill = "white" font-size = "32">GPIO39</text><circle cx="-250" cy="400" r="5" stroke="yellow" stroke-width="3" fill="red" /> <text text-anchor="end" x = "-275" y = "350" transform="rotate(0 -275 350)" fill = "white" font-size = "32">GPIO38</text><circle cx="-250" cy="350" r="5" stroke="yellow" stroke-width="3" fill="red" /> <text text-anchor="end" x = "-275" y = "300" transform="rotate(0 -275 300)" fill = "white" font-size = "32">GPIO37</text><circle cx="-250" cy="300" r="5" stroke="yellow" stroke-width="3" fill="red" /> <text text-anchor="end" x = "-275" y = "250" transform="rotate(0 -275 250)" fill = "white" font-size = "32">GPIO36</text><circle cx="-250" cy="250" r="5" stroke="yellow" stroke-width="3" fill="red" /> <text text-anchor="end" x = "-275" y = "200" transform="rotate(0 -275 200)" fill = "white" font-size = "32">GPIO35</text><circle cx="-250" cy="200" r="5" stroke="yellow" stroke-width="3" fill="red" /> <text text-anchor="end" x = "-275" y = "150" transform="rotate(0 -275 150)" fill = "white" font-size = "32">GPIO34</text><circle cx="-250" cy="150" r="5" stroke="yellow" stroke-width="3" fill="red" /> <text text-anchor="end" x = "-275" y = "100" transform="rotate(0 -275 100)" fill = "white" font-size = "32">GPIO33</text><circle cx="-250" cy="100" r="5" stroke="yellow" stroke-width="3" fill="red" /> <text text-anchor="end" x = "-275" y = "50" transform="rotate(0 -275 50)" fill = "white" font-size = "32">GPIO32</text><circle cx="-250" cy="50" r="5" stroke="yellow" stroke-width="3" fill="red" /> <text text-anchor="end" x = "-275" y = "0" transform="rotate(0 -275 0)" fill = "white" font-size = "32">GPIO31</text><circle cx="-250" cy="0" r="5" stroke="yellow" stroke-width="3" fill="red" /> <text text-anchor="end" x = "-275" y = "-50" transform="rotate(0 -275 -50)" fill = "white" font-size = "32">GPIO30</text><circle cx="-250" cy="-50" r="5" stroke="yellow" stroke-width="3" fill="red" /> <text text-anchor="end" x = "-275" y = "-100" transform="rotate(0 -275 -100)" fill = "white" font-size = "32">GPIO29</text><circle cx="-250" cy="-100" r="5" stroke="yellow" stroke-width="3" fill="red" /> <text text-anchor="end" x = "-275" y = "-150" transform="rotate(0 -275 -150)" fill = "white" font-size = "32">GPIO28</text><circle cx="-250" cy="-150" r="5" stroke="yellow" stroke-width="3" fill="red" /> <text text-anchor="end" x = "-275" y = "-300" transform="rotate(0 -275 -300)" fill = "white" font-size = "32">GPIO25</text><circle cx="-250" cy="-300" r="5" stroke="yellow" stroke-width="3" fill="red" /> <text text-anchor="end" x = "-275" y = "-350" transform="rotate(0 -275 -350)" fill = "white" font-size = "32">GPIO24</text><circle cx="-250" cy="-350" r="5" stroke="yellow" stroke-width="3" fill="red" /> <text text-anchor="end" x = "-275" y = "-400" transform="rotate(0 -275 -400)" fill = "white" font-size = "32">GPIO23</text><circle cx="-250" cy="-400" r="5" stroke="yellow" stroke-width="3" fill="red" /> <text text-anchor="end" x = "-275" y = "-450" transform="rotate(0 -275 -450)" fill = "white" font-size = "32">GPIO22</text><circle cx="-250" cy="-450" r="5" stroke="yellow" stroke-width="3" fill="red" /> <text text-anchor="start" x = "275" y = "500" transform="rotate(0 275 500)" fill = "white" font-size = "32">GPIO21</text><circle cx="250" cy="500" r="5" stroke="yellow" stroke-width="3" fill="red" /> <text text-anchor="start" x = "275" y = "450" transform="rotate(0 275 450)" fill = "white" font-size = "32">GPIO20</text><circle cx="250" cy="450" r="5" stroke="yellow" stroke-width="3" fill="red" /> <text text-anchor="start" x = "275" y = "400" transform="rotate(0 275 400)" fill = "white" font-size = "32">GPIO19</text><circle cx="250" cy="400" r="5" stroke="yellow" stroke-width="3" fill="red" /> <text text-anchor="start" x = "275" y = "350" transform="rotate(0 275 350)" fill = "white" font-size = "32">GPIO18</text><circle cx="250" cy="350" r="5" stroke="yellow" stroke-width="3" fill="red" /> <text text-anchor="start" x = "275" y = "300" transform="rotate(0 275 300)" fill = "white" font-size = "32">GPIO17</text><circle cx="250" cy="300" r="5" stroke="yellow" stroke-width="3" fill="red" /> <text text-anchor="start" x = "275" y = "250" transform="rotate(0 275 250)" fill = "white" font-size = "32">GPIO16</text><circle cx="250" cy="250" r="5" stroke="yellow" stroke-width="3" fill="red" /> <text text-anchor="start" x = "275" y = "200" transform="rotate(0 275 200)" fill = "white" font-size = "32">GPIO15</text><circle cx="250" cy="200" r="5" stroke="yellow" stroke-width="3" fill="red" /> <text text-anchor="start" x = "275" y = "150" transform="rotate(0 275 150)" fill = "white" font-size = "32">GPIO14</text><circle cx="250" cy="150" r="5" stroke="yellow" stroke-width="3" fill="red" /> <text text-anchor="start" x = "275" y = "100" transform="rotate(0 275 100)" fill = "white" font-size = "32">GPIO13</text><circle cx="250" cy="100" r="5" stroke="yellow" stroke-width="3" fill="red" /> <text text-anchor="start" x = "275" y = "50" transform="rotate(0 275 50)" fill = "white" font-size = "32">GPIO12</text><circle cx="250" cy="50" r="5" stroke="yellow" stroke-width="3" fill="red" /> <text text-anchor="start" x = "275" y = "0" transform="rotate(0 275 0)" fill = "white" font-size = "32">GPIO11</text><circle cx="250" cy="0" r="5" stroke="yellow" stroke-width="3" fill="red" /> <text text-anchor="start" x = "275" y = "-50" transform="rotate(0 275 -50)" fill = "white" font-size = "32">GPIO10</text><circle cx="250" cy="-50" r="5" stroke="yellow" stroke-width="3" fill="red" /> <text text-anchor="start" x = "275" y = "-100" transform="rotate(0 275 -100)" fill = "white" font-size = "32">GPIO9</text><circle cx="250" cy="-100" r="5" stroke="yellow" stroke-width="3" fill="red" /> <text text-anchor="start" x = "275" y = "-150" transform="rotate(0 275 -150)" fill = "white" font-size = "32">GPIO8</text><circle cx="250" cy="-150" r="5" stroke="yellow" stroke-width="3" fill="red" /> <text text-anchor="start" x = "275" y = "-200" transform="rotate(0 275 -200)" fill = "white" font-size = "32">GPIO7</text><circle cx="250" cy="-200" r="5" stroke="yellow" stroke-width="3" fill="red" /> <text text-anchor="start" x = "275" y = "-300" transform="rotate(0 275 -300)" fill = "white" font-size = "32">GPIO5</text><circle cx="250" cy="-300" r="5" stroke="yellow" stroke-width="3" fill="red" /> <text text-anchor="start" x = "275" y = "-350" transform="rotate(0 275 -350)" fill = "white" font-size = "32">GPIO4</text><circle cx="250" cy="-350" r="5" stroke="yellow" stroke-width="3" fill="red" /> <text text-anchor="start" x = "275" y = "-500" transform="rotate(0 275 -500)" fill = "white" font-size = "32">GPIO1</text><circle cx="250" cy="-500" r="5" stroke="yellow" stroke-width="3" fill="red" /> <path d="M 250 -550 L 200 -550" stroke="white" stroke-width="2" fill="transparent" /><path d="M 250 -450 L 200 -450" stroke="white" stroke-width="2" fill="transparent" /><path d="M 250 -400 L 200 -400" stroke="white" stroke-width="2" fill="transparent" /><path d="M 250 -250 L 200 -250" stroke="white" stroke-width="2" fill="transparent" /><path d="M -250 -250 L -200 -250" stroke="white" stroke-width="2" fill="transparent" /><path d="M -250 -200 L -200 -200" stroke="white" stroke-width="2" fill="transparent" /><path d="M -250 450 L -200 450" stroke="white" stroke-width="2" fill="transparent" /><path d="M -250 400 L -200 400" stroke="white" stroke-width="2" fill="transparent" /><path d="M -250 350 L -200 350" stroke="white" stroke-width="2" fill="transparent" /><path d="M -250 300 L -200 300" stroke="white" stroke-width="2" fill="transparent" /><path d="M -250 250 L -200 250" stroke="white" stroke-width="2" fill="transparent" /><path d="M -250 200 L -200 200" stroke="white" stroke-width="2" fill="transparent" /><path d="M -250 150 L -200 150" stroke="white" stroke-width="2" fill="transparent" /><path d="M -250 100 L -200 100" stroke="white" stroke-width="2" fill="transparent" /><path d="M -250 50 L -200 50" stroke="white" stroke-width="2" fill="transparent" /><path d="M -250 0 L -200 0" stroke="white" stroke-width="2" fill="transparent" /><path d="M -250 -50 L -200 -50" stroke="white" stroke-width="2" fill="transparent" /><path d="M -250 -100 L -200 -100" stroke="white" stroke-width="2" fill="transparent" /><path d="M -250 -150 L -200 -150" stroke="white" stroke-width="2" fill="transparent" /><path d="M -250 -300 L -200 -300" stroke="white" stroke-width="2" fill="transparent" /><path d="M -250 -350 L -200 -350" stroke="white" stroke-width="2" fill="transparent" /><path d="M -250 -400 L -200 -400" stroke="white" stroke-width="2" fill="transparent" /><path d="M -250 -450 L -200 -450" stroke="white" stroke-width="2" fill="transparent" /><path d="M 250 500 L 200 500" stroke="white" stroke-width="2" fill="transparent" /><path d="M 250 450 L 200 450" stroke="white" stroke-width="2" fill="transparent" /><path d="M 250 400 L 200 400" stroke="white" stroke-width="2" fill="transparent" /><path d="M 250 350 L 200 350" stroke="white" stroke-width="2" fill="transparent" /><path d="M 250 300 L 200 300" stroke="white" stroke-width="2" fill="transparent" /><path d="M 250 250 L 200 250" stroke="white" stroke-width="2" fill="transparent" /><path d="M 250 200 L 200 200" stroke="white" stroke-width="2" fill="transparent" /><path d="M 250 150 L 200 150" stroke="white" stroke-width="2" fill="transparent" /><path d="M 250 100 L 200 100" stroke="white" stroke-width="2" fill="transparent" /><path d="M 250 50 L 200 50" stroke="white" stroke-width="2" fill="transparent" /><path d="M 250 0 L 200 0" stroke="white" stroke-width="2" fill="transparent" /><path d="M 250 -50 L 200 -50" stroke="white" stroke-width="2" fill="transparent" /><path d="M 250 -100 L 200 -100" stroke="white" stroke-width="2" fill="transparent" /><path d="M 250 -150 L 200 -150" stroke="white" stroke-width="2" fill="transparent" /><path d="M 250 -200 L 200 -200" stroke="white" stroke-width="2" fill="transparent" /><path d="M 250 -300 L 200 -300" stroke="white" stroke-width="2" fill="transparent" /><path d="M 250 -350 L 200 -350" stroke="white" stroke-width="2" fill="transparent" /><path d="M 250 -500 L 200 -500" stroke="white" stroke-width="2" fill="transparent" /><path d="M 200 -700 L 200 600" stroke="white" stroke-width="2" fill="transparent" /><path d="M -200 -700 L -200 600" stroke="white" stroke-width="2" fill="transparent" /><path d="M -200 600 L 200 600" stroke="white" stroke-width="2" fill="transparent" /><path d="M -200 -700 L 200 -700" stroke="white" stroke-width="2" fill="transparent" /><path d="M -10 10 L 10 -10" stroke="white" stroke-width="2" fill="transparent" /><path d="M -10 -10 L 10 10" stroke="white" stroke-width="2" fill="transparent" /><circle cx="0" cy="0" r="4" stroke="white" stroke-width="2" fill="green" /></svg>