<svg width="100&#37;" height="100&#37;" version="1.1" xmlns="http://www.w3.org/2000/svg" overflow="visible" style="background: black"> <text text-anchor="start" x = "520" y = "-450" transform="rotate(0 520 -450)" fill = "white" font-size = "32">?</text><text text-anchor="end" x = "490" y = "-450" transform="rotate(0 490 -450)" fill = "white" font-size = "24">DDR1_WE*</text><text text-anchor="start" x = "520" y = "-500" transform="rotate(0 520 -500)" fill = "white" font-size = "32">?</text><text text-anchor="end" x = "490" y = "-500" transform="rotate(0 490 -500)" fill = "white" font-size = "24">DDR1_RESET*</text><text text-anchor="start" x = "520" y = "-550" transform="rotate(0 520 -550)" fill = "white" font-size = "32">?</text><text text-anchor="end" x = "490" y = "-550" transform="rotate(0 490 -550)" fill = "white" font-size = "24">DDR1_RAS*</text><text text-anchor="start" x = "520" y = "-150" transform="rotate(0 520 -150)" fill = "white" font-size = "32">?</text><text text-anchor="end" x = "490" y = "-150" transform="rotate(0 490 -150)" fill = "white" font-size = "24">DDR1_ODT[3]</text><text text-anchor="start" x = "520" y = "150" transform="rotate(0 520 150)" fill = "white" font-size = "32">?</text><text text-anchor="end" x = "490" y = "150" transform="rotate(0 490 150)" fill = "white" font-size = "24">DDR1_ODT[2]</text><text text-anchor="start" x = "520" y = "450" transform="rotate(0 520 450)" fill = "white" font-size = "32">?</text><text text-anchor="end" x = "490" y = "450" transform="rotate(0 490 450)" fill = "white" font-size = "24">DDR1_ODT[1]</text><text text-anchor="start" x = "520" y = "750" transform="rotate(0 520 750)" fill = "white" font-size = "32">?</text><text text-anchor="end" x = "490" y = "750" transform="rotate(0 490 750)" fill = "white" font-size = "24">DDR1_ODT[0]</text><text text-anchor="end" x = "490" y = "-750" transform="rotate(0 490 -750)" fill = "white" font-size = "24">DDR1_MA[15..2]</text><text text-anchor="end" x = "-520" y = "-650" transform="rotate(0 -520 -650)" fill = "white" font-size = "32">?</text><text text-anchor="start" x = "-490" y = "-650" transform="rotate(0 -490 -650)" fill = "white" font-size = "24">DDR1_MA[1]</text><text text-anchor="end" x = "-520" y = "-600" transform="rotate(0 -520 -600)" fill = "white" font-size = "32">?</text><text text-anchor="start" x = "-490" y = "-600" transform="rotate(0 -490 -600)" fill = "white" font-size = "24">DDR1_MA[0]</text><text text-anchor="end" x = "-520" y = "-500" transform="rotate(0 -520 -500)" fill = "white" font-size = "32">?</text><text text-anchor="start" x = "-490" y = "-500" transform="rotate(0 -490 -500)" fill = "white" font-size = "24">DDR1_DQS_P[7]</text><text text-anchor="end" x = "-520" y = "-350" transform="rotate(0 -520 -350)" fill = "white" font-size = "32">?</text><text text-anchor="start" x = "-490" y = "-350" transform="rotate(0 -490 -350)" fill = "white" font-size = "24">DDR1_DQS_P[6]</text><text text-anchor="end" x = "-520" y = "-200" transform="rotate(0 -520 -200)" fill = "white" font-size = "32">?</text><text text-anchor="start" x = "-490" y = "-200" transform="rotate(0 -490 -200)" fill = "white" font-size = "24">DDR1_DQS_P[5]</text><text text-anchor="end" x = "-520" y = "-50" transform="rotate(0 -520 -50)" fill = "white" font-size = "32">?</text><text text-anchor="start" x = "-490" y = "-50" transform="rotate(0 -490 -50)" fill = "white" font-size = "24">DDR1_DQS_P[4]</text><text text-anchor="end" x = "-520" y = "100" transform="rotate(0 -520 100)" fill = "white" font-size = "32">?</text><text text-anchor="start" x = "-490" y = "100" transform="rotate(0 -490 100)" fill = "white" font-size = "24">DDR1_DQS_P[3]</text><text text-anchor="end" x = "-520" y = "250" transform="rotate(0 -520 250)" fill = "white" font-size = "32">?</text><text text-anchor="start" x = "-490" y = "250" transform="rotate(0 -490 250)" fill = "white" font-size = "24">DDR1_DQS_P[2]</text><text text-anchor="end" x = "-520" y = "400" transform="rotate(0 -520 400)" fill = "white" font-size = "32">?</text><text text-anchor="start" x = "-490" y = "400" transform="rotate(0 -490 400)" fill = "white" font-size = "24">DDR1_DQS_P[1]</text><text text-anchor="end" x = "-520" y = "550" transform="rotate(0 -520 550)" fill = "white" font-size = "32">?</text><text text-anchor="start" x = "-490" y = "550" transform="rotate(0 -490 550)" fill = "white" font-size = "24">DDR1_DQS_P[0]</text><text text-anchor="end" x = "-520" y = "-450" transform="rotate(0 -520 -450)" fill = "white" font-size = "32">?</text><text text-anchor="start" x = "-490" y = "-450" transform="rotate(0 -490 -450)" fill = "white" font-size = "24">DDR1_DQS_N[7]</text><text text-anchor="end" x = "-520" y = "-300" transform="rotate(0 -520 -300)" fill = "white" font-size = "32">?</text><text text-anchor="start" x = "-490" y = "-300" transform="rotate(0 -490 -300)" fill = "white" font-size = "24">DDR1_DQS_N[6]</text><text text-anchor="end" x = "-520" y = "-150" transform="rotate(0 -520 -150)" fill = "white" font-size = "32">?</text><text text-anchor="start" x = "-490" y = "-150" transform="rotate(0 -490 -150)" fill = "white" font-size = "24">DDR1_DQS_N[5]</text><text text-anchor="end" x = "-520" y = "0" transform="rotate(0 -520 0)" fill = "white" font-size = "32">?</text><text text-anchor="start" x = "-490" y = "0" transform="rotate(0 -490 0)" fill = "white" font-size = "24">DDR1_DQS_N[4]</text><text text-anchor="end" x = "-520" y = "150" transform="rotate(0 -520 150)" fill = "white" font-size = "32">?</text><text text-anchor="start" x = "-490" y = "150" transform="rotate(0 -490 150)" fill = "white" font-size = "24">DDR1_DQS_N[3]</text><text text-anchor="end" x = "-520" y = "300" transform="rotate(0 -520 300)" fill = "white" font-size = "32">?</text><text text-anchor="start" x = "-490" y = "300" transform="rotate(0 -490 300)" fill = "white" font-size = "24">DDR1_DQS_N[2]</text><text text-anchor="end" x = "-520" y = "450" transform="rotate(0 -520 450)" fill = "white" font-size = "32">?</text><text text-anchor="start" x = "-490" y = "450" transform="rotate(0 -490 450)" fill = "white" font-size = "24">DDR1_DQS_N[1]</text><text text-anchor="end" x = "-520" y = "600" transform="rotate(0 -520 600)" fill = "white" font-size = "32">?</text><text text-anchor="start" x = "-490" y = "600" transform="rotate(0 -490 600)" fill = "white" font-size = "24">DDR1_DQS_N[0]</text><text text-anchor="start" x = "-490" y = "-750" transform="rotate(0 -490 -750)" fill = "white" font-size = "24">DDR1_DQ[63..0]</text><text text-anchor="start" x = "520" y = "-200" transform="rotate(0 520 -200)" fill = "white" font-size = "32">?</text><text text-anchor="end" x = "490" y = "-200" transform="rotate(0 490 -200)" fill = "white" font-size = "24">DDR1_CS_N[3]</text><text text-anchor="start" x = "520" y = "100" transform="rotate(0 520 100)" fill = "white" font-size = "32">?</text><text text-anchor="end" x = "490" y = "100" transform="rotate(0 490 100)" fill = "white" font-size = "24">DDR1_CS_N[2]</text><text text-anchor="start" x = "520" y = "400" transform="rotate(0 520 400)" fill = "white" font-size = "32">?</text><text text-anchor="end" x = "490" y = "400" transform="rotate(0 490 400)" fill = "white" font-size = "24">DDR1_CS_N[1]</text><text text-anchor="start" x = "520" y = "700" transform="rotate(0 520 700)" fill = "white" font-size = "32">?</text><text text-anchor="end" x = "490" y = "700" transform="rotate(0 490 700)" fill = "white" font-size = "24">DDR1_CS_N[0]</text><text text-anchor="start" x = "520" y = "-350" transform="rotate(0 520 -350)" fill = "white" font-size = "32">?</text><text text-anchor="end" x = "490" y = "-350" transform="rotate(0 490 -350)" fill = "white" font-size = "24">DDR1_CLK_P[3]</text><text text-anchor="start" x = "520" y = "-50" transform="rotate(0 520 -50)" fill = "white" font-size = "32">?</text><text text-anchor="end" x = "490" y = "-50" transform="rotate(0 490 -50)" fill = "white" font-size = "24">DDR1_CLK_P[2]</text><text text-anchor="start" x = "520" y = "250" transform="rotate(0 520 250)" fill = "white" font-size = "32">?</text><text text-anchor="end" x = "490" y = "250" transform="rotate(0 490 250)" fill = "white" font-size = "24">DDR1_CLK_P[1]</text><text text-anchor="start" x = "520" y = "550" transform="rotate(0 520 550)" fill = "white" font-size = "32">?</text><text text-anchor="end" x = "490" y = "550" transform="rotate(0 490 550)" fill = "white" font-size = "24">DDR1_CLK_P[0]</text><text text-anchor="start" x = "520" y = "-300" transform="rotate(0 520 -300)" fill = "white" font-size = "32">?</text><text text-anchor="end" x = "490" y = "-300" transform="rotate(0 490 -300)" fill = "white" font-size = "24">DDR1_CLK_N[3]</text><text text-anchor="start" x = "520" y = "0" transform="rotate(0 520 0)" fill = "white" font-size = "32">?</text><text text-anchor="end" x = "490" y = "0" transform="rotate(0 490 0)" fill = "white" font-size = "24">DDR1_CLK_N[2]</text><text text-anchor="start" x = "520" y = "300" transform="rotate(0 520 300)" fill = "white" font-size = "32">?</text><text text-anchor="end" x = "490" y = "300" transform="rotate(0 490 300)" fill = "white" font-size = "24">DDR1_CLK_N[1]</text><text text-anchor="start" x = "520" y = "600" transform="rotate(0 520 600)" fill = "white" font-size = "32">?</text><text text-anchor="end" x = "490" y = "600" transform="rotate(0 490 600)" fill = "white" font-size = "24">DDR1_CLK_N[0]</text><text text-anchor="start" x = "520" y = "-250" transform="rotate(0 520 -250)" fill = "white" font-size = "32">?</text><text text-anchor="end" x = "490" y = "-250" transform="rotate(0 490 -250)" fill = "white" font-size = "24">DDR1_CKE[3]</text><text text-anchor="start" x = "520" y = "50" transform="rotate(0 520 50)" fill = "white" font-size = "32">?</text><text text-anchor="end" x = "490" y = "50" transform="rotate(0 490 50)" fill = "white" font-size = "24">DDR1_CKE[2]</text><text text-anchor="start" x = "520" y = "350" transform="rotate(0 520 350)" fill = "white" font-size = "32">?</text><text text-anchor="end" x = "490" y = "350" transform="rotate(0 490 350)" fill = "white" font-size = "24">DDR1_CKE[1]</text><text text-anchor="start" x = "520" y = "650" transform="rotate(0 520 650)" fill = "white" font-size = "32">?</text><text text-anchor="end" x = "490" y = "650" transform="rotate(0 490 650)" fill = "white" font-size = "24">DDR1_CKE[0]</text><text text-anchor="start" x = "520" y = "-600" transform="rotate(0 520 -600)" fill = "white" font-size = "32">?</text><text text-anchor="end" x = "490" y = "-600" transform="rotate(0 490 -600)" fill = "white" font-size = "24">DDR1_CAS*</text><text text-anchor="end" x = "490" y = "-700" transform="rotate(0 490 -700)" fill = "white" font-size = "24">DDR1_BA[2..0]</text><text text-anchor="middle" x = "0" y = "-920" transform="rotate(0 0 -920)" fill = "blue" font-size = "48">?</text><rect x="-500" y="-900" width="1000" height="1800" stroke="yellow" stroke-dasharray="5,5" stroke-width="3" fill="transparent" /> <text text-anchor="middle" x = "0" y = "880" transform="rotate(0 0 880)" fill = "white" font-size = "32">Symbol 3 of 10</text><text text-anchor="start" x = "-350" y = "-840" transform="rotate(0 -350 -840)" fill = "purple" font-size = "48">VIPER_ASIC</text><text text-anchor="start" x = "-350" y = "800" transform="rotate(0 -350 800)" fill = "purple" font-size = "48">DDR3 BANK 1</text><text text-anchor="start" x = "575" y = "-450" transform="rotate(0 575 -450)" fill = "white" font-size = "32">DDR1_WE*</text><circle cx="550" cy="-450" r="5" stroke="yellow" stroke-width="3" fill="red" /> <text text-anchor="start" x = "575" y = "-500" transform="rotate(0 575 -500)" fill = "white" font-size = "32">DDR1_RESET*</text><circle cx="550" cy="-500" r="5" stroke="yellow" stroke-width="3" fill="red" /> <text text-anchor="start" x = "575" y = "-550" transform="rotate(0 575 -550)" fill = "white" font-size = "32">DDR1_RAS*</text><circle cx="550" cy="-550" r="5" stroke="yellow" stroke-width="3" fill="red" /> <text text-anchor="start" x = "575" y = "-150" transform="rotate(0 575 -150)" fill = "white" font-size = "32">DDR1_ODT&lt;3&gt;</text><circle cx="550" cy="-150" r="5" stroke="yellow" stroke-width="3" fill="red" /> <text text-anchor="start" x = "575" y = "150" transform="rotate(0 575 150)" fill = "white" font-size = "32">DDR1_ODT&lt;2&gt;</text><circle cx="550" cy="150" r="5" stroke="yellow" stroke-width="3" fill="red" /> <text text-anchor="start" x = "575" y = "450" transform="rotate(0 575 450)" fill = "white" font-size = "32">DDR1_ODT&lt;1&gt;</text><circle cx="550" cy="450" r="5" stroke="yellow" stroke-width="3" fill="red" /> <text text-anchor="start" x = "575" y = "750" transform="rotate(0 575 750)" fill = "white" font-size = "32">DDR1_ODT&lt;0&gt;</text><circle cx="550" cy="750" r="5" stroke="yellow" stroke-width="3" fill="red" /> <text text-anchor="start" x = "575" y = "-750" transform="rotate(0 575 -750)" fill = "white" font-size = "32">DDR1_MA&lt;15..2&gt;</text><circle cx="550" cy="-750" r="5" stroke="yellow" stroke-width="3" fill="red" /> <text text-anchor="end" x = "-575" y = "-650" transform="rotate(0 -575 -650)" fill = "white" font-size = "32">DDR1_MA&lt;1&gt;</text><circle cx="-550" cy="-650" r="5" stroke="yellow" stroke-width="3" fill="red" /> <text text-anchor="end" x = "-575" y = "-600" transform="rotate(0 -575 -600)" fill = "white" font-size = "32">DDR1_MA&lt;0&gt;</text><circle cx="-550" cy="-600" r="5" stroke="yellow" stroke-width="3" fill="red" /> <text text-anchor="end" x = "-575" y = "-500" transform="rotate(0 -575 -500)" fill = "white" font-size = "32">DDR1_DQS_P&lt;7&gt;</text><circle cx="-550" cy="-500" r="5" stroke="yellow" stroke-width="3" fill="red" /> <text text-anchor="end" x = "-575" y = "-350" transform="rotate(0 -575 -350)" fill = "white" font-size = "32">DDR1_DQS_P&lt;6&gt;</text><circle cx="-550" cy="-350" r="5" stroke="yellow" stroke-width="3" fill="red" /> <text text-anchor="end" x = "-575" y = "-200" transform="rotate(0 -575 -200)" fill = "white" font-size = "32">DDR1_DQS_P&lt;5&gt;</text><circle cx="-550" cy="-200" r="5" stroke="yellow" stroke-width="3" fill="red" /> <text text-anchor="end" x = "-575" y = "-50" transform="rotate(0 -575 -50)" fill = "white" font-size = "32">DDR1_DQS_P&lt;4&gt;</text><circle cx="-550" cy="-50" r="5" stroke="yellow" stroke-width="3" fill="red" /> <text text-anchor="end" x = "-575" y = "100" transform="rotate(0 -575 100)" fill = "white" font-size = "32">DDR1_DQS_P&lt;3&gt;</text><circle cx="-550" cy="100" r="5" stroke="yellow" stroke-width="3" fill="red" /> <text text-anchor="end" x = "-575" y = "250" transform="rotate(0 -575 250)" fill = "white" font-size = "32">DDR1_DQS_P&lt;2&gt;</text><circle cx="-550" cy="250" r="5" stroke="yellow" stroke-width="3" fill="red" /> <text text-anchor="end" x = "-575" y = "400" transform="rotate(0 -575 400)" fill = "white" font-size = "32">DDR1_DQS_P&lt;1&gt;</text><circle cx="-550" cy="400" r="5" stroke="yellow" stroke-width="3" fill="red" /> <text text-anchor="end" x = "-575" y = "550" transform="rotate(0 -575 550)" fill = "white" font-size = "32">DDR1_DQS_P&lt;0&gt;</text><circle cx="-550" cy="550" r="5" stroke="yellow" stroke-width="3" fill="red" /> <text text-anchor="end" x = "-575" y = "-450" transform="rotate(0 -575 -450)" fill = "white" font-size = "32">DDR1_DQS_M&lt;7&gt;</text><circle cx="-550" cy="-450" r="5" stroke="yellow" stroke-width="3" fill="red" /> <text text-anchor="end" x = "-575" y = "-300" transform="rotate(0 -575 -300)" fill = "white" font-size = "32">DDR1_DQS_M&lt;6&gt;</text><circle cx="-550" cy="-300" r="5" stroke="yellow" stroke-width="3" fill="red" /> <text text-anchor="end" x = "-575" y = "-150" transform="rotate(0 -575 -150)" fill = "white" font-size = "32">DDR1_DQS_M&lt;5&gt;</text><circle cx="-550" cy="-150" r="5" stroke="yellow" stroke-width="3" fill="red" /> <text text-anchor="end" x = "-575" y = "0" transform="rotate(0 -575 0)" fill = "white" font-size = "32">DDR1_DQS_M&lt;4&gt;</text><circle cx="-550" cy="0" r="5" stroke="yellow" stroke-width="3" fill="red" /> <text text-anchor="end" x = "-575" y = "150" transform="rotate(0 -575 150)" fill = "white" font-size = "32">DDR1_DQS_M&lt;3&gt;</text><circle cx="-550" cy="150" r="5" stroke="yellow" stroke-width="3" fill="red" /> <text text-anchor="end" x = "-575" y = "300" transform="rotate(0 -575 300)" fill = "white" font-size = "32">DDR1_DQS_M&lt;2&gt;</text><circle cx="-550" cy="300" r="5" stroke="yellow" stroke-width="3" fill="red" /> <text text-anchor="end" x = "-575" y = "450" transform="rotate(0 -575 450)" fill = "white" font-size = "32">DDR1_DQS_M&lt;1&gt;</text><circle cx="-550" cy="450" r="5" stroke="yellow" stroke-width="3" fill="red" /> <text text-anchor="end" x = "-575" y = "600" transform="rotate(0 -575 600)" fill = "white" font-size = "32">DDR1_DQS_M&lt;0&gt;</text><circle cx="-550" cy="600" r="5" stroke="yellow" stroke-width="3" fill="red" /> <text text-anchor="end" x = "-575" y = "-750" transform="rotate(0 -575 -750)" fill = "white" font-size = "32">DDR1_DQ&lt;63..0&gt;</text><circle cx="-550" cy="-750" r="5" stroke="yellow" stroke-width="3" fill="red" /> <text text-anchor="start" x = "575" y = "-200" transform="rotate(0 575 -200)" fill = "white" font-size = "32">DDR1_CS_M&lt;3&gt;</text><circle cx="550" cy="-200" r="5" stroke="yellow" stroke-width="3" fill="red" /> <text text-anchor="start" x = "575" y = "100" transform="rotate(0 575 100)" fill = "white" font-size = "32">DDR1_CS_M&lt;2&gt;</text><circle cx="550" cy="100" r="5" stroke="yellow" stroke-width="3" fill="red" /> <text text-anchor="start" x = "575" y = "400" transform="rotate(0 575 400)" fill = "white" font-size = "32">DDR1_CS_M&lt;1&gt;</text><circle cx="550" cy="400" r="5" stroke="yellow" stroke-width="3" fill="red" /> <text text-anchor="start" x = "575" y = "700" transform="rotate(0 575 700)" fill = "white" font-size = "32">DDR1_CS_M&lt;0&gt;</text><circle cx="550" cy="700" r="5" stroke="yellow" stroke-width="3" fill="red" /> <text text-anchor="start" x = "575" y = "-350" transform="rotate(0 575 -350)" fill = "white" font-size = "32">DDR1_CLK_P&lt;3&gt;</text><circle cx="550" cy="-350" r="5" stroke="yellow" stroke-width="3" fill="red" /> <text text-anchor="start" x = "575" y = "-50" transform="rotate(0 575 -50)" fill = "white" font-size = "32">DDR1_CLK_P&lt;2&gt;</text><circle cx="550" cy="-50" r="5" stroke="yellow" stroke-width="3" fill="red" /> <text text-anchor="start" x = "575" y = "250" transform="rotate(0 575 250)" fill = "white" font-size = "32">DDR1_CLK_P&lt;1&gt;</text><circle cx="550" cy="250" r="5" stroke="yellow" stroke-width="3" fill="red" /> <text text-anchor="start" x = "575" y = "550" transform="rotate(0 575 550)" fill = "white" font-size = "32">DDR1_CLK_P&lt;0&gt;</text><circle cx="550" cy="550" r="5" stroke="yellow" stroke-width="3" fill="red" /> <text text-anchor="start" x = "575" y = "-300" transform="rotate(0 575 -300)" fill = "white" font-size = "32">DDR1_CLK_M&lt;3&gt;</text><circle cx="550" cy="-300" r="5" stroke="yellow" stroke-width="3" fill="red" /> <text text-anchor="start" x = "575" y = "0" transform="rotate(0 575 0)" fill = "white" font-size = "32">DDR1_CLK_M&lt;2&gt;</text><circle cx="550" cy="0" r="5" stroke="yellow" stroke-width="3" fill="red" /> <text text-anchor="start" x = "575" y = "300" transform="rotate(0 575 300)" fill = "white" font-size = "32">DDR1_CLK_M&lt;1&gt;</text><circle cx="550" cy="300" r="5" stroke="yellow" stroke-width="3" fill="red" /> <text text-anchor="start" x = "575" y = "600" transform="rotate(0 575 600)" fill = "white" font-size = "32">DDR1_CLK_M&lt;0&gt;</text><circle cx="550" cy="600" r="5" stroke="yellow" stroke-width="3" fill="red" /> <text text-anchor="start" x = "575" y = "-250" transform="rotate(0 575 -250)" fill = "white" font-size = "32">DDR1_CKE&lt;3&gt;</text><circle cx="550" cy="-250" r="5" stroke="yellow" stroke-width="3" fill="red" /> <text text-anchor="start" x = "575" y = "50" transform="rotate(0 575 50)" fill = "white" font-size = "32">DDR1_CKE&lt;2&gt;</text><circle cx="550" cy="50" r="5" stroke="yellow" stroke-width="3" fill="red" /> <text text-anchor="start" x = "575" y = "350" transform="rotate(0 575 350)" fill = "white" font-size = "32">DDR1_CKE&lt;1&gt;</text><circle cx="550" cy="350" r="5" stroke="yellow" stroke-width="3" fill="red" /> <text text-anchor="start" x = "575" y = "650" transform="rotate(0 575 650)" fill = "white" font-size = "32">DDR1_CKE&lt;0&gt;</text><circle cx="550" cy="650" r="5" stroke="yellow" stroke-width="3" fill="red" /> <text text-anchor="start" x = "575" y = "-600" transform="rotate(0 575 -600)" fill = "white" font-size = "32">DDR1_CAS*</text><circle cx="550" cy="-600" r="5" stroke="yellow" stroke-width="3" fill="red" /> <text text-anchor="start" x = "575" y = "-700" transform="rotate(0 575 -700)" fill = "white" font-size = "32">DDR1_BA&lt;2..0&gt;</text><circle cx="550" cy="-700" r="5" stroke="yellow" stroke-width="3" fill="red" /> <path d="M 526 -451 A 13 13 0 1 0 526 -450" stroke="white" stroke-width="2" fill="transparent" /><path d="M 526 -501 A 13 13 0 1 0 526 -500" stroke="white" stroke-width="2" fill="transparent" /><path d="M 526 -551 A 13 13 0 1 0 526 -550" stroke="white" stroke-width="2" fill="transparent" /><path d="M 526 -601 A 13 13 0 1 0 526 -600" stroke="white" stroke-width="2" fill="transparent" /><path d="M 550 -450 L 526 -450" stroke="white" stroke-width="2" fill="transparent" /><path d="M 550 -500 L 526 -500" stroke="white" stroke-width="2" fill="transparent" /><path d="M 550 -550 L 526 -550" stroke="white" stroke-width="2" fill="transparent" /><path d="M 550 -150 L 500 -150" stroke="white" stroke-width="2" fill="transparent" /><path d="M 550 150 L 500 150" stroke="white" stroke-width="2" fill="transparent" /><path d="M 550 450 L 500 450" stroke="white" stroke-width="2" fill="transparent" /><path d="M 550 750 L 500 750" stroke="white" stroke-width="2" fill="transparent" /><path d="M 550 -750 L 500 -750" stroke="white" stroke-width="2" fill="transparent" /><path d="M -550 -650 L -500 -650" stroke="white" stroke-width="2" fill="transparent" /><path d="M -550 -600 L -500 -600" stroke="white" stroke-width="2" fill="transparent" /><path d="M -550 -500 L -500 -500" stroke="white" stroke-width="2" fill="transparent" /><path d="M -550 -350 L -500 -350" stroke="white" stroke-width="2" fill="transparent" /><path d="M -550 -200 L -500 -200" stroke="white" stroke-width="2" fill="transparent" /><path d="M -550 -50 L -500 -50" stroke="white" stroke-width="2" fill="transparent" /><path d="M -550 100 L -500 100" stroke="white" stroke-width="2" fill="transparent" /><path d="M -550 250 L -500 250" stroke="white" stroke-width="2" fill="transparent" /><path d="M -550 400 L -500 400" stroke="white" stroke-width="2" fill="transparent" /><path d="M -550 550 L -500 550" stroke="white" stroke-width="2" fill="transparent" /><path d="M -550 -450 L -500 -450" stroke="white" stroke-width="2" fill="transparent" /><path d="M -550 -300 L -500 -300" stroke="white" stroke-width="2" fill="transparent" /><path d="M -550 -150 L -500 -150" stroke="white" stroke-width="2" fill="transparent" /><path d="M -550 0 L -500 0" stroke="white" stroke-width="2" fill="transparent" /><path d="M -550 150 L -500 150" stroke="white" stroke-width="2" fill="transparent" /><path d="M -550 300 L -500 300" stroke="white" stroke-width="2" fill="transparent" /><path d="M -550 450 L -500 450" stroke="white" stroke-width="2" fill="transparent" /><path d="M -550 600 L -500 600" stroke="white" stroke-width="2" fill="transparent" /><path d="M -550 -750 L -500 -750" stroke="white" stroke-width="2" fill="transparent" /><path d="M 550 -200 L 500 -200" stroke="white" stroke-width="2" fill="transparent" /><path d="M 550 100 L 500 100" stroke="white" stroke-width="2" fill="transparent" /><path d="M 550 400 L 500 400" stroke="white" stroke-width="2" fill="transparent" /><path d="M 550 700 L 500 700" stroke="white" stroke-width="2" fill="transparent" /><path d="M 550 -350 L 500 -350" stroke="white" stroke-width="2" fill="transparent" /><path d="M 550 -50 L 500 -50" stroke="white" stroke-width="2" fill="transparent" /><path d="M 550 250 L 500 250" stroke="white" stroke-width="2" fill="transparent" /><path d="M 550 550 L 500 550" stroke="white" stroke-width="2" fill="transparent" /><path d="M 550 -300 L 500 -300" stroke="white" stroke-width="2" fill="transparent" /><path d="M 550 0 L 500 0" stroke="white" stroke-width="2" fill="transparent" /><path d="M 550 300 L 500 300" stroke="white" stroke-width="2" fill="transparent" /><path d="M 550 600 L 500 600" stroke="white" stroke-width="2" fill="transparent" /><path d="M 550 -250 L 500 -250" stroke="white" stroke-width="2" fill="transparent" /><path d="M 550 50 L 500 50" stroke="white" stroke-width="2" fill="transparent" /><path d="M 550 350 L 500 350" stroke="white" stroke-width="2" fill="transparent" /><path d="M 550 650 L 500 650" stroke="white" stroke-width="2" fill="transparent" /><path d="M 550 -600 L 526 -600" stroke="white" stroke-width="2" fill="transparent" /><path d="M 550 -700 L 500 -700" stroke="white" stroke-width="2" fill="transparent" /><path d="M 500 -900 L 500 900" stroke="white" stroke-width="2" fill="transparent" /><path d="M -500 -900 L -500 900" stroke="white" stroke-width="2" fill="transparent" /><path d="M -500 900 L 500 900" stroke="white" stroke-width="2" fill="transparent" /><path d="M -500 -900 L 500 -900" stroke="white" stroke-width="2" fill="transparent" /><path d="M -10 10 L 10 -10" stroke="white" stroke-width="2" fill="transparent" /><path d="M -10 -10 L 10 10" stroke="white" stroke-width="2" fill="transparent" /><circle cx="0" cy="0" r="4" stroke="white" stroke-width="2" fill="green" /></svg>