<svg width="100&#37;" height="100&#37;" version="1.1" xmlns="http://www.w3.org/2000/svg" overflow="visible" style="background: black"> <text text-anchor="start" x = "520" y = "349" transform="rotate(0 520 349)" fill = "white" font-size = "32">?</text><text text-anchor="end" x = "490" y = "350" transform="rotate(0 490 350)" fill = "white" font-size = "24">FPGA_PPC_DATA[8]</text><text text-anchor="start" x = "520" y = "399" transform="rotate(0 520 399)" fill = "white" font-size = "32">?</text><text text-anchor="end" x = "490" y = "400" transform="rotate(0 490 400)" fill = "white" font-size = "24">FPGA_PPC_DATA[7]</text><text text-anchor="start" x = "520" y = "449" transform="rotate(0 520 449)" fill = "white" font-size = "32">?</text><text text-anchor="end" x = "490" y = "450" transform="rotate(0 490 450)" fill = "white" font-size = "24">FPGA_PPC_DATA[6]</text><text text-anchor="start" x = "520" y = "499" transform="rotate(0 520 499)" fill = "white" font-size = "32">?</text><text text-anchor="end" x = "490" y = "500" transform="rotate(0 490 500)" fill = "white" font-size = "24">FPGA_PPC_DATA[5]</text><text text-anchor="start" x = "520" y = "549" transform="rotate(0 520 549)" fill = "white" font-size = "32">?</text><text text-anchor="end" x = "490" y = "550" transform="rotate(0 490 550)" fill = "white" font-size = "24">FPGA_PPC_DATA[4]</text><text text-anchor="start" x = "520" y = "199" transform="rotate(0 520 199)" fill = "white" font-size = "32">?</text><text text-anchor="end" x = "490" y = "200" transform="rotate(0 490 200)" fill = "white" font-size = "24">FPGA_PPC_DATA[11]</text><text text-anchor="start" x = "520" y = "249" transform="rotate(0 520 249)" fill = "white" font-size = "32">?</text><text text-anchor="end" x = "490" y = "250" transform="rotate(0 490 250)" fill = "white" font-size = "24">FPGA_PPC_DATA[10]</text><text text-anchor="start" x = "520" y = "299" transform="rotate(0 520 299)" fill = "white" font-size = "32">?</text><text text-anchor="end" x = "490" y = "300" transform="rotate(0 490 300)" fill = "white" font-size = "24">FPGA_PPC_DATA[9]</text><text text-anchor="start" x = "520" y = "599" transform="rotate(0 520 599)" fill = "white" font-size = "32">?</text><text text-anchor="end" x = "490" y = "600" transform="rotate(0 490 600)" fill = "white" font-size = "24">FPGA_PPC_DATA[3]</text><text text-anchor="start" x = "520" y = "649" transform="rotate(0 520 649)" fill = "white" font-size = "32">?</text><text text-anchor="end" x = "490" y = "650" transform="rotate(0 490 650)" fill = "white" font-size = "24">FPGA_PPC_DATA[2]</text><text text-anchor="start" x = "520" y = "699" transform="rotate(0 520 699)" fill = "white" font-size = "32">?</text><text text-anchor="end" x = "490" y = "700" transform="rotate(0 490 700)" fill = "white" font-size = "24">FPGA_PPC_DATA[1]</text><text text-anchor="start" x = "520" y = "749" transform="rotate(0 520 749)" fill = "white" font-size = "32">?</text><text text-anchor="end" x = "490" y = "750" transform="rotate(0 490 750)" fill = "white" font-size = "24">FPGA_PPC_DATA[0]</text><text text-anchor="end" x = "-520" y = "-500" transform="rotate(0 -520 -500)" fill = "white" font-size = "32">?</text><text text-anchor="start" x = "-485" y = "-500" transform="rotate(0 -485 -500)" fill = "white" font-size = "24">PPC_BDIP/GPL_B5</text><text text-anchor="end" x = "-520" y = "-450" transform="rotate(0 -520 -450)" fill = "white" font-size = "32">?</text><text text-anchor="start" x = "-485" y = "-450" transform="rotate(0 -485 -450)" fill = "white" font-size = "24">FPGA_PPC_ALE_A</text><text text-anchor="end" x = "-520" y = "-400" transform="rotate(0 -520 -400)" fill = "white" font-size = "32">?</text><text text-anchor="start" x = "-485" y = "-400" transform="rotate(0 -485 -400)" fill = "white" font-size = "24">FPGA_PPC_ALE_B</text><text text-anchor="start" x = "520" y = "-300" transform="rotate(0 520 -300)" fill = "white" font-size = "32">?</text><text text-anchor="end" x = "490" y = "-300" transform="rotate(0 490 -300)" fill = "white" font-size = "24">FPGA_PPC_DATA[21]</text><text text-anchor="start" x = "520" y = "-250" transform="rotate(0 520 -250)" fill = "white" font-size = "32">?</text><text text-anchor="end" x = "490" y = "-250" transform="rotate(0 490 -250)" fill = "white" font-size = "24">FPGA_PPC_DATA[20]</text><text text-anchor="start" x = "520" y = "-200" transform="rotate(0 520 -200)" fill = "white" font-size = "32">?</text><text text-anchor="end" x = "490" y = "-200" transform="rotate(0 490 -200)" fill = "white" font-size = "24">FPGA_PPC_DATA[19]</text><text text-anchor="start" x = "520" y = "-350" transform="rotate(0 520 -350)" fill = "white" font-size = "32">?</text><text text-anchor="end" x = "490" y = "-350" transform="rotate(0 490 -350)" fill = "white" font-size = "24">FPGA_PPC_DATA[22]</text><text text-anchor="start" x = "520" y = "-400" transform="rotate(0 520 -400)" fill = "white" font-size = "32">?</text><text text-anchor="end" x = "490" y = "-400" transform="rotate(0 490 -400)" fill = "white" font-size = "24">FPGA_PPC_DATA[23]</text><text text-anchor="start" x = "520" y = "-450" transform="rotate(0 520 -450)" fill = "white" font-size = "32">?</text><text text-anchor="end" x = "490" y = "-450" transform="rotate(0 490 -450)" fill = "white" font-size = "24">FPGA_PPC_DATA[24]</text><text text-anchor="start" x = "520" y = "-150" transform="rotate(0 520 -150)" fill = "white" font-size = "32">?</text><text text-anchor="end" x = "490" y = "-150" transform="rotate(0 490 -150)" fill = "white" font-size = "24">FPGA_PPC_DATA[18]</text><text text-anchor="start" x = "520" y = "-100" transform="rotate(0 520 -100)" fill = "white" font-size = "32">?</text><text text-anchor="end" x = "490" y = "-100" transform="rotate(0 490 -100)" fill = "white" font-size = "24">FPGA_PPC_DATA[17]</text><text text-anchor="end" x = "-520" y = "-200" transform="rotate(0 -520 -200)" fill = "white" font-size = "32">?</text><text text-anchor="start" x = "-485" y = "-200" transform="rotate(0 -485 -200)" fill = "white" font-size = "24">FPGA_PPC_BADDR30/REG</text><text text-anchor="end" x = "-520" y = "-50" transform="rotate(0 -520 -50)" fill = "white" font-size = "32">?</text><text text-anchor="start" x = "-485" y = "-50" transform="rotate(0 -485 -50)" fill = "white" font-size = "24">FPGA_PPC_AS</text><text text-anchor="end" x = "-520" y = "-100" transform="rotate(0 -520 -100)" fill = "white" font-size = "32">?</text><text text-anchor="start" x = "-485" y = "-100" transform="rotate(0 -485 -100)" fill = "white" font-size = "24">FPGA_PPC_CS2</text><text text-anchor="end" x = "-520" y = "-150" transform="rotate(0 -520 -150)" fill = "white" font-size = "32">?</text><text text-anchor="start" x = "-485" y = "-150" transform="rotate(0 -485 -150)" fill = "white" font-size = "24">FPGA_PPC_RD_WR</text><text text-anchor="end" x = "-520" y = "0" transform="rotate(0 -520 0)" fill = "white" font-size = "32">?</text><text text-anchor="start" x = "-485" y = "0" transform="rotate(0 -485 0)" fill = "white" font-size = "24">FPGA_PPC_BR</text><text text-anchor="end" x = "-520" y = "49" transform="rotate(0 -520 49)" fill = "white" font-size = "32">?</text><text text-anchor="start" x = "-485" y = "50" transform="rotate(0 -485 50)" fill = "white" font-size = "24">FPGA_PPC_BS_A0</text><text text-anchor="end" x = "-520" y = "99" transform="rotate(0 -520 99)" fill = "white" font-size = "32">?</text><text text-anchor="start" x = "-485" y = "100" transform="rotate(0 -485 100)" fill = "white" font-size = "24">FPGA_PPC_BS_A1</text><text text-anchor="end" x = "-520" y = "149" transform="rotate(0 -520 149)" fill = "white" font-size = "32">?</text><text text-anchor="start" x = "-485" y = "150" transform="rotate(0 -485 150)" fill = "white" font-size = "24">FPGA_PPC_BS_A2</text><text text-anchor="end" x = "-520" y = "-250" transform="rotate(0 -520 -250)" fill = "white" font-size = "32">?</text><text text-anchor="start" x = "-485" y = "-250" transform="rotate(0 -485 -250)" fill = "white" font-size = "24">FPGA_PPC_BADDR29</text><text text-anchor="end" x = "-520" y = "-350" transform="rotate(0 -520 -350)" fill = "white" font-size = "32">?</text><text text-anchor="start" x = "-485" y = "-350" transform="rotate(0 -485 -350)" fill = "white" font-size = "24">FPGA_PPC_BG</text><text text-anchor="end" x = "-520" y = "-300" transform="rotate(0 -520 -300)" fill = "white" font-size = "32">?</text><text text-anchor="start" x = "-485" y = "-300" transform="rotate(0 -485 -300)" fill = "white" font-size = "24">FPGA_PPC_BADDR28</text><text text-anchor="start" x = "520" y = "-500" transform="rotate(0 520 -500)" fill = "white" font-size = "32">?</text><text text-anchor="end" x = "490" y = "-500" transform="rotate(0 490 -500)" fill = "white" font-size = "24">FPGA_PPC_DATA[25]</text><text text-anchor="start" x = "520" y = "-550" transform="rotate(0 520 -550)" fill = "white" font-size = "32">?</text><text text-anchor="end" x = "490" y = "-550" transform="rotate(0 490 -550)" fill = "white" font-size = "24">FPGA_PPC_DATA[26]</text><text text-anchor="start" x = "520" y = "-600" transform="rotate(0 520 -600)" fill = "white" font-size = "32">?</text><text text-anchor="end" x = "490" y = "-600" transform="rotate(0 490 -600)" fill = "white" font-size = "24">FPGA_PPC_DATA[27]</text><text text-anchor="start" x = "520" y = "-650" transform="rotate(0 520 -650)" fill = "white" font-size = "32">?</text><text text-anchor="end" x = "490" y = "-650" transform="rotate(0 490 -650)" fill = "white" font-size = "24">FPGA_PPC_DATA[28]</text><text text-anchor="start" x = "520" y = "-700" transform="rotate(0 520 -700)" fill = "white" font-size = "32">?</text><text text-anchor="end" x = "490" y = "-700" transform="rotate(0 490 -700)" fill = "white" font-size = "24">FPGA_PPC_DATA[29]</text><text text-anchor="start" x = "520" y = "-750" transform="rotate(0 520 -750)" fill = "white" font-size = "32">?</text><text text-anchor="end" x = "490" y = "-750" transform="rotate(0 490 -750)" fill = "white" font-size = "24">FPGA_PPC_DATA[30]</text><text text-anchor="start" x = "520" y = "-800" transform="rotate(0 520 -800)" fill = "white" font-size = "32">?</text><text text-anchor="end" x = "490" y = "-800" transform="rotate(0 490 -800)" fill = "white" font-size = "24">FPGA_PPC_DATA[31]</text><text text-anchor="end" x = "-520" y = "299" transform="rotate(0 -520 299)" fill = "white" font-size = "32">?</text><text text-anchor="start" x = "-485" y = "300" transform="rotate(0 -485 300)" fill = "white" font-size = "24">FPGA_PPC_CR/IRQ3</text><text text-anchor="end" x = "-520" y = "349" transform="rotate(0 -520 349)" fill = "white" font-size = "32">?</text><text text-anchor="start" x = "-485" y = "350" transform="rotate(0 -485 350)" fill = "white" font-size = "24">FPGA_PPC_BI</text><text text-anchor="end" x = "-520" y = "399" transform="rotate(0 -520 399)" fill = "white" font-size = "32">?</text><text text-anchor="start" x = "-485" y = "400" transform="rotate(0 -485 400)" fill = "white" font-size = "24">FPGA_PPC_BURST</text><text text-anchor="end" x = "-520" y = "449" transform="rotate(0 -520 449)" fill = "white" font-size = "32">?</text><text text-anchor="start" x = "-485" y = "450" transform="rotate(0 -485 450)" fill = "white" font-size = "24">FPGA_PPC_BB</text><text text-anchor="end" x = "-520" y = "199" transform="rotate(0 -520 199)" fill = "white" font-size = "32">?</text><text text-anchor="start" x = "-485" y = "200" transform="rotate(0 -485 200)" fill = "white" font-size = "24">FPGA_PPC_BS_A3</text><text text-anchor="end" x = "-520" y = "249" transform="rotate(0 -520 249)" fill = "white" font-size = "32">?</text><text text-anchor="start" x = "-485" y = "250" transform="rotate(0 -485 250)" fill = "white" font-size = "24">FPGA_PPC_CLKOUT</text><text text-anchor="start" x = "520" y = "149" transform="rotate(0 520 149)" fill = "white" font-size = "32">?</text><text text-anchor="end" x = "490" y = "150" transform="rotate(0 490 150)" fill = "white" font-size = "24">FPGA_PPC_DATA[12]</text><text text-anchor="start" x = "520" y = "99" transform="rotate(0 520 99)" fill = "white" font-size = "32">?</text><text text-anchor="end" x = "490" y = "100" transform="rotate(0 490 100)" fill = "white" font-size = "24">FPGA_PPC_DATA[13]</text><text text-anchor="start" x = "520" y = "49" transform="rotate(0 520 49)" fill = "white" font-size = "32">?</text><text text-anchor="end" x = "490" y = "50" transform="rotate(0 490 50)" fill = "white" font-size = "24">FPGA_PPC_DATA[14]</text><text text-anchor="start" x = "520" y = "0" transform="rotate(0 520 0)" fill = "white" font-size = "32">?</text><text text-anchor="end" x = "490" y = "0" transform="rotate(0 490 0)" fill = "white" font-size = "24">FPGA_PPC_DATA[15]</text><text text-anchor="start" x = "520" y = "-50" transform="rotate(0 520 -50)" fill = "white" font-size = "32">?</text><text text-anchor="end" x = "490" y = "-50" transform="rotate(0 490 -50)" fill = "white" font-size = "24">FPGA_PPC_DATA[16]</text><text text-anchor="middle" x = "0" y = "-920" transform="rotate(0 0 -920)" fill = "blue" font-size = "48">?</text><rect x="-500" y="-900" width="1000" height="1700" stroke="yellow" stroke-dasharray="5,5" stroke-width="3" fill="transparent" /> <text text-anchor="middle" x = "-250" y = "-820" transform="rotate(0 -250 -820)" fill = "purple" font-size = "48">VIPER_ASIC</text><text text-anchor="middle" x = "0" y = "780" transform="rotate(0 0 780)" fill = "white" font-size = "32">Symbol 10 of 10</text><text text-anchor="start" x = "575" y = "350" transform="rotate(0 575 350)" fill = "white" font-size = "32">FPGA_PPC_DATA&lt;8&gt;</text><circle cx="550" cy="350" r="5" stroke="yellow" stroke-width="3" fill="red" /> <text text-anchor="start" x = "575" y = "400" transform="rotate(0 575 400)" fill = "white" font-size = "32">FPGA_PPC_DATA&lt;7&gt;</text><circle cx="550" cy="400" r="5" stroke="yellow" stroke-width="3" fill="red" /> <text text-anchor="start" x = "575" y = "450" transform="rotate(0 575 450)" fill = "white" font-size = "32">FPGA_PPC_DATA&lt;6&gt;</text><circle cx="550" cy="450" r="5" stroke="yellow" stroke-width="3" fill="red" /> <text text-anchor="start" x = "575" y = "500" transform="rotate(0 575 500)" fill = "white" font-size = "32">FPGA_PPC_DATA&lt;5&gt;</text><circle cx="550" cy="500" r="5" stroke="yellow" stroke-width="3" fill="red" /> <text text-anchor="start" x = "575" y = "550" transform="rotate(0 575 550)" fill = "white" font-size = "32">FPGA_PPC_DATA&lt;4&gt;</text><circle cx="550" cy="550" r="5" stroke="yellow" stroke-width="3" fill="red" /> <text text-anchor="start" x = "575" y = "200" transform="rotate(0 575 200)" fill = "white" font-size = "32">FPGA_PPC_DATA&lt;11&gt;</text><circle cx="550" cy="200" r="5" stroke="yellow" stroke-width="3" fill="red" /> <text text-anchor="start" x = "575" y = "250" transform="rotate(0 575 250)" fill = "white" font-size = "32">FPGA_PPC_DATA&lt;10&gt;</text><circle cx="550" cy="250" r="5" stroke="yellow" stroke-width="3" fill="red" /> <text text-anchor="start" x = "575" y = "300" transform="rotate(0 575 300)" fill = "white" font-size = "32">FPGA_PPC_DATA&lt;9&gt;</text><circle cx="550" cy="300" r="5" stroke="yellow" stroke-width="3" fill="red" /> <text text-anchor="start" x = "575" y = "600" transform="rotate(0 575 600)" fill = "white" font-size = "32">FPGA_PPC_DATA&lt;3&gt;</text><circle cx="550" cy="600" r="5" stroke="yellow" stroke-width="3" fill="red" /> <text text-anchor="start" x = "575" y = "650" transform="rotate(0 575 650)" fill = "white" font-size = "32">FPGA_PPC_DATA&lt;2&gt;</text><circle cx="550" cy="650" r="5" stroke="yellow" stroke-width="3" fill="red" /> <text text-anchor="start" x = "575" y = "700" transform="rotate(0 575 700)" fill = "white" font-size = "32">FPGA_PPC_DATA&lt;1&gt;</text><circle cx="550" cy="700" r="5" stroke="yellow" stroke-width="3" fill="red" /> <text text-anchor="start" x = "575" y = "750" transform="rotate(0 575 750)" fill = "white" font-size = "32">FPGA_PPC_DATA&lt;0&gt;</text><circle cx="550" cy="750" r="5" stroke="yellow" stroke-width="3" fill="red" /> <text text-anchor="end" x = "-575" y = "-500" transform="rotate(0 -575 -500)" fill = "white" font-size = "32">PPC_BDIP_GPL_B5</text><circle cx="-550" cy="-500" r="5" stroke="yellow" stroke-width="3" fill="red" /> <text text-anchor="end" x = "-575" y = "-450" transform="rotate(0 -575 -450)" fill = "white" font-size = "32">FPGA_PPC_ALE_A</text><circle cx="-550" cy="-450" r="5" stroke="yellow" stroke-width="3" fill="red" /> <text text-anchor="end" x = "-575" y = "-400" transform="rotate(0 -575 -400)" fill = "white" font-size = "32">FPGA_PPC_ALE_B</text><circle cx="-550" cy="-400" r="5" stroke="yellow" stroke-width="3" fill="red" /> <text text-anchor="start" x = "575" y = "-300" transform="rotate(0 575 -300)" fill = "white" font-size = "32">FPGA_PPC_DATA&lt;21&gt;</text><circle cx="550" cy="-300" r="5" stroke="yellow" stroke-width="3" fill="red" /> <text text-anchor="start" x = "575" y = "-250" transform="rotate(0 575 -250)" fill = "white" font-size = "32">FPGA_PPC_DATA&lt;20&gt;</text><circle cx="550" cy="-250" r="5" stroke="yellow" stroke-width="3" fill="red" /> <text text-anchor="start" x = "575" y = "-200" transform="rotate(0 575 -200)" fill = "white" font-size = "32">FPGA_PPC_DATA&lt;19&gt;</text><circle cx="550" cy="-200" r="5" stroke="yellow" stroke-width="3" fill="red" /> <text text-anchor="start" x = "575" y = "-350" transform="rotate(0 575 -350)" fill = "white" font-size = "32">FPGA_PPC_DATA&lt;22&gt;</text><circle cx="550" cy="-350" r="5" stroke="yellow" stroke-width="3" fill="red" /> <text text-anchor="start" x = "575" y = "-400" transform="rotate(0 575 -400)" fill = "white" font-size = "32">FPGA_PPC_DATA&lt;23&gt;</text><circle cx="550" cy="-400" r="5" stroke="yellow" stroke-width="3" fill="red" /> <text text-anchor="start" x = "575" y = "-450" transform="rotate(0 575 -450)" fill = "white" font-size = "32">FPGA_PPC_DATA&lt;24&gt;</text><circle cx="550" cy="-450" r="5" stroke="yellow" stroke-width="3" fill="red" /> <text text-anchor="start" x = "575" y = "-150" transform="rotate(0 575 -150)" fill = "white" font-size = "32">FPGA_PPC_DATA&lt;18&gt;</text><circle cx="550" cy="-150" r="5" stroke="yellow" stroke-width="3" fill="red" /> <text text-anchor="start" x = "575" y = "-100" transform="rotate(0 575 -100)" fill = "white" font-size = "32">FPGA_PPC_DATA&lt;17&gt;</text><circle cx="550" cy="-100" r="5" stroke="yellow" stroke-width="3" fill="red" /> <text text-anchor="end" x = "-575" y = "-200" transform="rotate(0 -575 -200)" fill = "white" font-size = "32">FPGA_PPC_BADDR30</text><circle cx="-550" cy="-200" r="5" stroke="yellow" stroke-width="3" fill="red" /> <text text-anchor="end" x = "-575" y = "-50" transform="rotate(0 -575 -50)" fill = "white" font-size = "32">FPGA_PPC_AS</text><circle cx="-550" cy="-50" r="5" stroke="yellow" stroke-width="3" fill="red" /> <text text-anchor="end" x = "-575" y = "-100" transform="rotate(0 -575 -100)" fill = "white" font-size = "32">FPGA_PPC_CS2</text><circle cx="-550" cy="-100" r="5" stroke="yellow" stroke-width="3" fill="red" /> <text text-anchor="end" x = "-575" y = "-150" transform="rotate(0 -575 -150)" fill = "white" font-size = "32">FPGA_PPC_RD_WR</text><circle cx="-550" cy="-150" r="5" stroke="yellow" stroke-width="3" fill="red" /> <text text-anchor="end" x = "-575" y = "0" transform="rotate(0 -575 0)" fill = "white" font-size = "32">FPGA_PPC_BR</text><circle cx="-550" cy="0" r="5" stroke="yellow" stroke-width="3" fill="red" /> <text text-anchor="end" x = "-575" y = "50" transform="rotate(0 -575 50)" fill = "white" font-size = "32">FPGA_PPC_BS_A0</text><circle cx="-550" cy="50" r="5" stroke="yellow" stroke-width="3" fill="red" /> <text text-anchor="end" x = "-575" y = "100" transform="rotate(0 -575 100)" fill = "white" font-size = "32">FPGA_PPC_BS_A1</text><circle cx="-550" cy="100" r="5" stroke="yellow" stroke-width="3" fill="red" /> <text text-anchor="end" x = "-575" y = "150" transform="rotate(0 -575 150)" fill = "white" font-size = "32">FPGA_PPC_BS_A2</text><circle cx="-550" cy="150" r="5" stroke="yellow" stroke-width="3" fill="red" /> <text text-anchor="end" x = "-575" y = "-250" transform="rotate(0 -575 -250)" fill = "white" font-size = "32">FPGA_PPC_BADDR29</text><circle cx="-550" cy="-250" r="5" stroke="yellow" stroke-width="3" fill="red" /> <text text-anchor="end" x = "-575" y = "-350" transform="rotate(0 -575 -350)" fill = "white" font-size = "32">FPGA_PPC_BG</text><circle cx="-550" cy="-350" r="5" stroke="yellow" stroke-width="3" fill="red" /> <text text-anchor="end" x = "-575" y = "-300" transform="rotate(0 -575 -300)" fill = "white" font-size = "32">FPGA_PPC_BADDR28</text><circle cx="-550" cy="-300" r="5" stroke="yellow" stroke-width="3" fill="red" /> <text text-anchor="start" x = "575" y = "-500" transform="rotate(0 575 -500)" fill = "white" font-size = "32">FPGA_PPC_DATA&lt;25&gt;</text><circle cx="550" cy="-500" r="5" stroke="yellow" stroke-width="3" fill="red" /> <text text-anchor="start" x = "575" y = "-550" transform="rotate(0 575 -550)" fill = "white" font-size = "32">FPGA_PPC_DATA&lt;26&gt;</text><circle cx="550" cy="-550" r="5" stroke="yellow" stroke-width="3" fill="red" /> <text text-anchor="start" x = "575" y = "-600" transform="rotate(0 575 -600)" fill = "white" font-size = "32">FPGA_PPC_DATA&lt;27&gt;</text><circle cx="550" cy="-600" r="5" stroke="yellow" stroke-width="3" fill="red" /> <text text-anchor="start" x = "575" y = "-650" transform="rotate(0 575 -650)" fill = "white" font-size = "32">FPGA_PPC_DATA&lt;28&gt;</text><circle cx="550" cy="-650" r="5" stroke="yellow" stroke-width="3" fill="red" /> <text text-anchor="start" x = "575" y = "-700" transform="rotate(0 575 -700)" fill = "white" font-size = "32">FPGA_PPC_DATA&lt;29&gt;</text><circle cx="550" cy="-700" r="5" stroke="yellow" stroke-width="3" fill="red" /> <text text-anchor="start" x = "575" y = "-750" transform="rotate(0 575 -750)" fill = "white" font-size = "32">FPGA_PPC_DATA&lt;30&gt;</text><circle cx="550" cy="-750" r="5" stroke="yellow" stroke-width="3" fill="red" /> <text text-anchor="start" x = "575" y = "-800" transform="rotate(0 575 -800)" fill = "white" font-size = "32">FPGA_PPC_DATA&lt;31&gt;</text><circle cx="550" cy="-800" r="5" stroke="yellow" stroke-width="3" fill="red" /> <text text-anchor="end" x = "-575" y = "300" transform="rotate(0 -575 300)" fill = "white" font-size = "32">FPGA_PPC_CR_IRQ3</text><circle cx="-550" cy="300" r="5" stroke="yellow" stroke-width="3" fill="red" /> <text text-anchor="end" x = "-575" y = "350" transform="rotate(0 -575 350)" fill = "white" font-size = "32">FPGA_PPC_BI</text><circle cx="-550" cy="350" r="5" stroke="yellow" stroke-width="3" fill="red" /> <text text-anchor="end" x = "-575" y = "400" transform="rotate(0 -575 400)" fill = "white" font-size = "32">FPGA_PPC_BURST</text><circle cx="-550" cy="400" r="5" stroke="yellow" stroke-width="3" fill="red" /> <text text-anchor="end" x = "-575" y = "450" transform="rotate(0 -575 450)" fill = "white" font-size = "32">FPGA_PPC_BB</text><circle cx="-550" cy="450" r="5" stroke="yellow" stroke-width="3" fill="red" /> <text text-anchor="end" x = "-575" y = "200" transform="rotate(0 -575 200)" fill = "white" font-size = "32">FPGA_PPC_BS_A3</text><circle cx="-550" cy="200" r="5" stroke="yellow" stroke-width="3" fill="red" /> <text text-anchor="end" x = "-575" y = "250" transform="rotate(0 -575 250)" fill = "white" font-size = "32">FPGA_PPC_CLKOUT</text><circle cx="-550" cy="250" r="5" stroke="yellow" stroke-width="3" fill="red" /> <text text-anchor="start" x = "575" y = "150" transform="rotate(0 575 150)" fill = "white" font-size = "32">FPGA_PPC_DATA&lt;12&gt;</text><circle cx="550" cy="150" r="5" stroke="yellow" stroke-width="3" fill="red" /> <text text-anchor="start" x = "575" y = "100" transform="rotate(0 575 100)" fill = "white" font-size = "32">FPGA_PPC_DATA&lt;13&gt;</text><circle cx="550" cy="100" r="5" stroke="yellow" stroke-width="3" fill="red" /> <text text-anchor="start" x = "575" y = "50" transform="rotate(0 575 50)" fill = "white" font-size = "32">FPGA_PPC_DATA&lt;14&gt;</text><circle cx="550" cy="50" r="5" stroke="yellow" stroke-width="3" fill="red" /> <text text-anchor="start" x = "575" y = "0" transform="rotate(0 575 0)" fill = "white" font-size = "32">FPGA_PPC_DATA&lt;15&gt;</text><circle cx="550" cy="0" r="5" stroke="yellow" stroke-width="3" fill="red" /> <text text-anchor="start" x = "575" y = "-50" transform="rotate(0 575 -50)" fill = "white" font-size = "32">FPGA_PPC_DATA&lt;16&gt;</text><circle cx="550" cy="-50" r="5" stroke="yellow" stroke-width="3" fill="red" /> <path d="M 550 350 L 500 350" stroke="white" stroke-width="2" fill="transparent" /><path d="M 550 400 L 500 400" stroke="white" stroke-width="2" fill="transparent" /><path d="M 550 450 L 500 450" stroke="white" stroke-width="2" fill="transparent" /><path d="M 550 500 L 500 500" stroke="white" stroke-width="2" fill="transparent" /><path d="M 550 550 L 500 550" stroke="white" stroke-width="2" fill="transparent" /><path d="M 550 200 L 500 200" stroke="yellow" stroke-width="2" fill="transparent" /><path d="M 550 250 L 500 250" stroke="white" stroke-width="2" fill="transparent" /><path d="M 550 300 L 500 300" stroke="white" stroke-width="2" fill="transparent" /><path d="M 550 600 L 500 600" stroke="white" stroke-width="2" fill="transparent" /><path d="M 550 650 L 500 650" stroke="white" stroke-width="2" fill="transparent" /><path d="M 550 700 L 500 700" stroke="white" stroke-width="2" fill="transparent" /><path d="M 550 750 L 500 750" stroke="white" stroke-width="2" fill="transparent" /><path d="M -550 -500 L -500 -500" stroke="white" stroke-width="2" fill="transparent" /><path d="M -550 -450 L -500 -450" stroke="white" stroke-width="2" fill="transparent" /><path d="M -550 -400 L -500 -400" stroke="white" stroke-width="2" fill="transparent" /><path d="M 550 -300 L 500 -300" stroke="white" stroke-width="2" fill="transparent" /><path d="M 550 -250 L 500 -250" stroke="white" stroke-width="2" fill="transparent" /><path d="M 550 -200 L 500 -200" stroke="white" stroke-width="2" fill="transparent" /><path d="M 550 -350 L 500 -350" stroke="white" stroke-width="2" fill="transparent" /><path d="M 550 -400 L 500 -400" stroke="white" stroke-width="2" fill="transparent" /><path d="M 550 -450 L 500 -450" stroke="white" stroke-width="2" fill="transparent" /><path d="M 550 -150 L 500 -150" stroke="white" stroke-width="2" fill="transparent" /><path d="M 550 -100 L 500 -100" stroke="white" stroke-width="2" fill="transparent" /><path d="M -550 -200 L -500 -200" stroke="white" stroke-width="2" fill="transparent" /><path d="M -550 -50 L -500 -50" stroke="white" stroke-width="2" fill="transparent" /><path d="M -550 -100 L -500 -100" stroke="white" stroke-width="2" fill="transparent" /><path d="M -550 -150 L -500 -150" stroke="white" stroke-width="2" fill="transparent" /><path d="M -550 0 L -500 0" stroke="white" stroke-width="2" fill="transparent" /><path d="M -550 50 L -500 50" stroke="white" stroke-width="2" fill="transparent" /><path d="M -550 100 L -500 100" stroke="white" stroke-width="2" fill="transparent" /><path d="M -550 150 L -500 150" stroke="white" stroke-width="2" fill="transparent" /><path d="M -550 -250 L -500 -250" stroke="white" stroke-width="2" fill="transparent" /><path d="M -550 -350 L -500 -350" stroke="white" stroke-width="2" fill="transparent" /><path d="M -550 -300 L -500 -300" stroke="white" stroke-width="2" fill="transparent" /><path d="M 550 -500 L 500 -500" stroke="white" stroke-width="2" fill="transparent" /><path d="M 550 -550 L 500 -550" stroke="white" stroke-width="2" fill="transparent" /><path d="M 550 -600 L 500 -600" stroke="white" stroke-width="2" fill="transparent" /><path d="M 550 -650 L 500 -650" stroke="white" stroke-width="2" fill="transparent" /><path d="M 550 -700 L 500 -700" stroke="white" stroke-width="2" fill="transparent" /><path d="M 550 -750 L 500 -750" stroke="white" stroke-width="2" fill="transparent" /><path d="M 550 -800 L 500 -800" stroke="white" stroke-width="2" fill="transparent" /><path d="M -550 300 L -500 300" stroke="white" stroke-width="2" fill="transparent" /><path d="M -550 350 L -500 350" stroke="white" stroke-width="2" fill="transparent" /><path d="M -550 400 L -500 400" stroke="white" stroke-width="2" fill="transparent" /><path d="M -550 450 L -500 450" stroke="white" stroke-width="2" fill="transparent" /><path d="M -550 200 L -500 200" stroke="white" stroke-width="2" fill="transparent" /><path d="M -550 250 L -500 250" stroke="white" stroke-width="2" fill="transparent" /><path d="M 550 150 L 500 150" stroke="white" stroke-width="2" fill="transparent" /><path d="M 550 100 L 500 100" stroke="white" stroke-width="2" fill="transparent" /><path d="M 550 50 L 500 50" stroke="white" stroke-width="2" fill="transparent" /><path d="M 550 0 L 500 0" stroke="white" stroke-width="2" fill="transparent" /><path d="M 550 -50 L 500 -50" stroke="white" stroke-width="2" fill="transparent" /><path d="M -500 -900 L -500 800" stroke="white" stroke-width="2" fill="transparent" /><path d="M -500 -900 L 500 -900" stroke="white" stroke-width="2" fill="transparent" /><path d="M -500 800 L 500 800" stroke="white" stroke-width="2" fill="transparent" /><path d="M 500 800 L 500 -900" stroke="white" stroke-width="2" fill="transparent" /><path d="M -10 10 L 10 -10" stroke="white" stroke-width="2" fill="transparent" /><path d="M -10 -10 L 10 10" stroke="white" stroke-width="2" fill="transparent" /><circle cx="0" cy="0" r="4" stroke="white" stroke-width="2" fill="green" /></svg>