<svg width="100&#37;" height="100&#37;" version="1.1" xmlns="http://www.w3.org/2000/svg" overflow="visible" style="background: black"> <text text-anchor="start" x = "320" y = "-150" transform="rotate(0 320 -150)" fill = "white" font-size = "32">?</text><text text-anchor="end" x = "290" y = "-150" transform="rotate(0 290 -150)" fill = "white" font-size = "24">VTT_VID4</text><text text-anchor="end" x = "-320" y = "49" transform="rotate(0 -320 49)" fill = "white" font-size = "32">?</text><text text-anchor="start" x = "-290" y = "50" transform="rotate(0 -290 50)" fill = "white" font-size = "24">VTTPWRGOOD</text><text text-anchor="end" x = "-320" y = "0" transform="rotate(0 -320 0)" fill = "white" font-size = "32">?</text><text text-anchor="start" x = "-290" y = "0" transform="rotate(0 -290 0)" fill = "white" font-size = "24">VDDPWRGOOD</text><text text-anchor="end" x = "-320" y = "-50" transform="rotate(0 -320 -50)" fill = "white" font-size = "32">?</text><text text-anchor="start" x = "-290" y = "-50" transform="rotate(0 -290 -50)" fill = "white" font-size = "24">VCCPWRGOOD</text><text text-anchor="start" x = "320" y = "99" transform="rotate(0 320 99)" fill = "white" font-size = "32">?</text><text text-anchor="end" x = "290" y = "100" transform="rotate(0 290 100)" fill = "white" font-size = "24">VCC_SENSE</text><text text-anchor="start" x = "320" y = "49" transform="rotate(0 320 49)" fill = "white" font-size = "32">?</text><text text-anchor="end" x = "290" y = "50" transform="rotate(0 290 50)" fill = "white" font-size = "24">VTT_SENSE</text><text text-anchor="start" x = "320" y = "-50" transform="rotate(0 320 -50)" fill = "white" font-size = "32">?</text><text text-anchor="end" x = "290" y = "-50" transform="rotate(0 290 -50)" fill = "white" font-size = "24">VTT_VID2</text><text text-anchor="start" x = "320" y = "-100" transform="rotate(0 320 -100)" fill = "white" font-size = "32">?</text><text text-anchor="end" x = "290" y = "-100" transform="rotate(0 290 -100)" fill = "white" font-size = "24">VTT_VID3</text><text text-anchor="middle" x = "0" y = "-320" transform="rotate(0 0 -320)" fill = "blue" font-size = "48">?</text><rect x="-300" y="-300" width="600" height="500" stroke="yellow" stroke-dasharray="5,5" stroke-width="3" fill="transparent" /> <text text-anchor="middle" x = "0" y = "180" transform="rotate(0 0 180)" fill = "white" font-size = "32">Symbol 6 of 10</text><text text-anchor="start" x = "-275" y = "-225" transform="rotate(0 -275 -225)" fill = "purple" font-size = "48">VIPER_ASIC</text><text text-anchor="start" x = "375" y = "-150" transform="rotate(0 375 -150)" fill = "white" font-size = "32">VTT_VID4</text><circle cx="350" cy="-150" r="5" stroke="yellow" stroke-width="3" fill="red" /> <text text-anchor="end" x = "-375" y = "50" transform="rotate(0 -375 50)" fill = "white" font-size = "32">VTTPWRGOOD</text><circle cx="-350" cy="50" r="5" stroke="yellow" stroke-width="3" fill="red" /> <text text-anchor="end" x = "-375" y = "0" transform="rotate(0 -375 0)" fill = "white" font-size = "32">VDDPWRGOOD</text><circle cx="-350" cy="0" r="5" stroke="yellow" stroke-width="3" fill="red" /> <text text-anchor="end" x = "-375" y = "-50" transform="rotate(0 -375 -50)" fill = "white" font-size = "32">VCCPWRGOOD</text><circle cx="-350" cy="-50" r="5" stroke="yellow" stroke-width="3" fill="red" /> <text text-anchor="start" x = "375" y = "100" transform="rotate(0 375 100)" fill = "white" font-size = "32">VCC_SENSE</text><circle cx="350" cy="100" r="5" stroke="yellow" stroke-width="3" fill="red" /> <text text-anchor="start" x = "375" y = "50" transform="rotate(0 375 50)" fill = "white" font-size = "32">VTT_SENSE</text><circle cx="350" cy="50" r="5" stroke="yellow" stroke-width="3" fill="red" /> <text text-anchor="start" x = "375" y = "-50" transform="rotate(0 375 -50)" fill = "white" font-size = "32">VTT_VID2</text><circle cx="350" cy="-50" r="5" stroke="yellow" stroke-width="3" fill="red" /> <text text-anchor="start" x = "375" y = "-100" transform="rotate(0 375 -100)" fill = "white" font-size = "32">VTT_VID3</text><circle cx="350" cy="-100" r="5" stroke="yellow" stroke-width="3" fill="red" /> <path d="M 350 -150 L 300 -150" stroke="white" stroke-width="2" fill="transparent" /><path d="M -350 50 L -300 50" stroke="white" stroke-width="2" fill="transparent" /><path d="M -350 0 L -300 0" stroke="white" stroke-width="2" fill="transparent" /><path d="M -350 -50 L -300 -50" stroke="white" stroke-width="2" fill="transparent" /><path d="M 350 100 L 300 100" stroke="white" stroke-width="2" fill="transparent" /><path d="M 350 50 L 300 50" stroke="white" stroke-width="2" fill="transparent" /><path d="M 350 -50 L 300 -50" stroke="white" stroke-width="2" fill="transparent" /><path d="M 350 -100 L 300 -100" stroke="white" stroke-width="2" fill="transparent" /><path d="M 300 -300 L 300 200" stroke="white" stroke-width="2" fill="transparent" /><path d="M -300 -300 L -300 200" stroke="white" stroke-width="2" fill="transparent" /><path d="M -300 -300 L 300 -300" stroke="white" stroke-width="2" fill="transparent" /><path d="M -300 200 L 300 200" stroke="white" stroke-width="2" fill="transparent" /><path d="M -10 10 L 10 -10" stroke="white" stroke-width="2" fill="transparent" /><path d="M -10 -10 L 10 10" stroke="white" stroke-width="2" fill="transparent" /><circle cx="0" cy="0" r="4" stroke="white" stroke-width="2" fill="green" /></svg>