<svg width="100&#37;" height="100&#37;" version="1.1" xmlns="http://www.w3.org/2000/svg" overflow="visible" style="background: black"> <text text-anchor="end" x = "-320" y = "300" transform="rotate(0 -320 300)" fill = "white" font-size = "32">?</text><text text-anchor="start" x = "-290" y = "300" transform="rotate(0 -290 300)" fill = "white" font-size = "24">DDR_COMP[0]</text><text text-anchor="end" x = "-320" y = "350" transform="rotate(0 -320 350)" fill = "white" font-size = "32">?</text><text text-anchor="start" x = "-290" y = "350" transform="rotate(0 -290 350)" fill = "white" font-size = "24">DDR_COMP[1]</text><text text-anchor="end" x = "-320" y = "400" transform="rotate(0 -320 400)" fill = "white" font-size = "32">?</text><text text-anchor="start" x = "-290" y = "400" transform="rotate(0 -290 400)" fill = "white" font-size = "24">DDR_COMP[2]</text><text text-anchor="end" x = "-320" y = "450" transform="rotate(0 -320 450)" fill = "white" font-size = "32">?</text><text text-anchor="start" x = "-290" y = "450" transform="rotate(0 -290 450)" fill = "white" font-size = "24">FC_AH5</text><text text-anchor="end" x = "-320" y = "-700" transform="rotate(0 -320 -700)" fill = "white" font-size = "32">?</text><text text-anchor="start" x = "-290" y = "-700" transform="rotate(0 -290 -700)" fill = "white" font-size = "24">BCLK_DP</text><text text-anchor="end" x = "-320" y = "-750" transform="rotate(0 -320 -750)" fill = "white" font-size = "32">?</text><text text-anchor="start" x = "-290" y = "-750" transform="rotate(0 -290 -750)" fill = "white" font-size = "24">BCLK_DN</text><text text-anchor="end" x = "-320" y = "-650" transform="rotate(0 -320 -650)" fill = "white" font-size = "32">?</text><text text-anchor="start" x = "-290" y = "-650" transform="rotate(0 -290 -650)" fill = "white" font-size = "24">DBR*</text><text text-anchor="end" x = "-320" y = "-600" transform="rotate(0 -320 -600)" fill = "white" font-size = "32">?</text><text text-anchor="start" x = "-290" y = "-600" transform="rotate(0 -290 -600)" fill = "white" font-size = "24">DDR_VREF</text><text text-anchor="end" x = "-320" y = "-300" transform="rotate(0 -320 -300)" fill = "white" font-size = "32">?</text><text text-anchor="start" x = "-290" y = "-300" transform="rotate(0 -290 -300)" fill = "white" font-size = "24">RESET*</text><text text-anchor="end" x = "-320" y = "0" transform="rotate(0 -320 0)" fill = "white" font-size = "32">?</text><text text-anchor="start" x = "-290" y = "0" transform="rotate(0 -290 0)" fill = "white" font-size = "24">TRST*</text><text text-anchor="end" x = "-320" y = "-200" transform="rotate(0 -320 -200)" fill = "white" font-size = "32">?</text><text text-anchor="start" x = "-290" y = "-200" transform="rotate(0 -290 -200)" fill = "white" font-size = "24">TCK</text><text text-anchor="start" x = "320" y = "250" transform="rotate(0 320 250)" fill = "white" font-size = "32">?</text><text text-anchor="end" x = "290" y = "250" transform="rotate(0 290 250)" fill = "white" font-size = "24">BCLK_ITP_DP</text><text text-anchor="start" x = "320" y = "-100" transform="rotate(0 320 -100)" fill = "white" font-size = "32">?</text><text text-anchor="end" x = "290" y = "-100" transform="rotate(0 290 -100)" fill = "white" font-size = "24">VID[2]</text><text text-anchor="start" x = "320" y = "-50" transform="rotate(0 320 -50)" fill = "white" font-size = "32">?</text><text text-anchor="end" x = "290" y = "-50" transform="rotate(0 290 -50)" fill = "white" font-size = "24">VID[3]</text><text text-anchor="start" x = "320" y = "300" transform="rotate(0 320 300)" fill = "white" font-size = "32">?</text><text text-anchor="end" x = "290" y = "300" transform="rotate(0 290 300)" fill = "white" font-size = "24">PRDY*</text><text text-anchor="start" x = "320" y = "0" transform="rotate(0 320 0)" fill = "white" font-size = "32">?</text><text text-anchor="end" x = "290" y = "0" transform="rotate(0 290 0)" fill = "white" font-size = "24">VID[4]</text><text text-anchor="start" x = "320" y = "-350" transform="rotate(0 320 -350)" fill = "white" font-size = "32">?</text><text text-anchor="end" x = "290" y = "-350" transform="rotate(0 290 -350)" fill = "white" font-size = "24">CAT_ERR*</text><text text-anchor="start" x = "320" y = "-200" transform="rotate(0 320 -200)" fill = "white" font-size = "32">?</text><text text-anchor="end" x = "290" y = "-200" transform="rotate(0 290 -200)" fill = "white" font-size = "24">VID[0]</text><text text-anchor="start" x = "320" y = "-150" transform="rotate(0 320 -150)" fill = "white" font-size = "32">?</text><text text-anchor="end" x = "290" y = "-150" transform="rotate(0 290 -150)" fill = "white" font-size = "24">VID[1]</text><text text-anchor="start" x = "320" y = "200" transform="rotate(0 320 200)" fill = "white" font-size = "32">?</text><text text-anchor="end" x = "290" y = "200" transform="rotate(0 290 200)" fill = "white" font-size = "24">BCLK_ITP_DN</text><text text-anchor="end" x = "-320" y = "250" transform="rotate(0 -320 250)" fill = "white" font-size = "32">?</text><text text-anchor="start" x = "-290" y = "250" transform="rotate(0 -290 250)" fill = "white" font-size = "24">COMP0</text><text text-anchor="end" x = "-320" y = "-50" transform="rotate(0 -320 -50)" fill = "white" font-size = "32">?</text><text text-anchor="start" x = "-290" y = "-50" transform="rotate(0 -290 -50)" fill = "white" font-size = "24">TDO</text><text text-anchor="end" x = "-320" y = "-100" transform="rotate(0 -320 -100)" fill = "white" font-size = "32">?</text><text text-anchor="start" x = "-290" y = "-100" transform="rotate(0 -290 -100)" fill = "white" font-size = "24">TMS</text><text text-anchor="end" x = "-320" y = "-150" transform="rotate(0 -320 -150)" fill = "white" font-size = "32">?</text><text text-anchor="start" x = "-290" y = "-150" transform="rotate(0 -290 -150)" fill = "white" font-size = "24">TDI</text><text text-anchor="end" x = "-320" y = "-500" transform="rotate(0 -320 -500)" fill = "white" font-size = "32">?</text><text text-anchor="start" x = "-290" y = "-500" transform="rotate(0 -290 -500)" fill = "white" font-size = "24">PREQ*</text><text text-anchor="end" x = "-320" y = "-550" transform="rotate(0 -320 -550)" fill = "white" font-size = "32">?</text><text text-anchor="start" x = "-290" y = "-550" transform="rotate(0 -290 -550)" fill = "white" font-size = "24">ISENSE</text><text text-anchor="start" x = "320" y = "550" transform="rotate(0 320 550)" fill = "white" font-size = "32">?</text><text text-anchor="end" x = "290" y = "550" transform="rotate(0 290 550)" fill = "white" font-size = "24">VSS_SENSE</text><text text-anchor="start" x = "320" y = "500" transform="rotate(0 320 500)" fill = "white" font-size = "32">?</text><text text-anchor="end" x = "290" y = "500" transform="rotate(0 290 500)" fill = "white" font-size = "24">THERMTRIP*</text><text text-anchor="start" x = "320" y = "400" transform="rotate(0 320 400)" fill = "white" font-size = "32">?</text><text text-anchor="end" x = "290" y = "400" transform="rotate(0 290 400)" fill = "white" font-size = "24">SKTOCC*</text><text text-anchor="start" x = "320" y = "350" transform="rotate(0 320 350)" fill = "white" font-size = "32">?</text><text text-anchor="end" x = "290" y = "350" transform="rotate(0 290 350)" fill = "white" font-size = "24">PSI*</text><text text-anchor="start" x = "320" y = "150" transform="rotate(0 320 150)" fill = "white" font-size = "32">?</text><text text-anchor="end" x = "290" y = "150" transform="rotate(0 290 150)" fill = "white" font-size = "24">VID[7]</text><text text-anchor="start" x = "320" y = "100" transform="rotate(0 320 100)" fill = "white" font-size = "32">?</text><text text-anchor="end" x = "290" y = "100" transform="rotate(0 290 100)" fill = "white" font-size = "24">VID[6]</text><text text-anchor="start" x = "320" y = "50" transform="rotate(0 320 50)" fill = "white" font-size = "32">?</text><text text-anchor="end" x = "290" y = "50" transform="rotate(0 290 50)" fill = "white" font-size = "24">VID[5]</text><text text-anchor="start" x = "320" y = "-250" transform="rotate(0 320 -250)" fill = "white" font-size = "32">?</text><text text-anchor="end" x = "290" y = "-250" transform="rotate(0 290 -250)" fill = "white" font-size = "24">PROCHOT*</text><text text-anchor="start" x = "320" y = "-300" transform="rotate(0 320 -300)" fill = "white" font-size = "32">?</text><text text-anchor="end" x = "290" y = "-300" transform="rotate(0 290 -300)" fill = "white" font-size = "24">PECI</text><text text-anchor="start" x = "320" y = "-400" transform="rotate(0 320 -400)" fill = "white" font-size = "32">?</text><text text-anchor="end" x = "290" y = "-400" transform="rotate(0 290 -400)" fill = "white" font-size = "24">BPM[7]</text><text text-anchor="start" x = "320" y = "-450" transform="rotate(0 320 -450)" fill = "white" font-size = "32">?</text><text text-anchor="end" x = "290" y = "-450" transform="rotate(0 290 -450)" fill = "white" font-size = "24">BPM[6]</text><text text-anchor="start" x = "320" y = "-500" transform="rotate(0 320 -500)" fill = "white" font-size = "32">?</text><text text-anchor="end" x = "290" y = "-500" transform="rotate(0 290 -500)" fill = "white" font-size = "24">BPM[5]</text><text text-anchor="start" x = "320" y = "-550" transform="rotate(0 320 -550)" fill = "white" font-size = "32">?</text><text text-anchor="end" x = "290" y = "-550" transform="rotate(0 290 -550)" fill = "white" font-size = "24">BPM[4]</text><text text-anchor="start" x = "320" y = "-600" transform="rotate(0 320 -600)" fill = "white" font-size = "32">?</text><text text-anchor="end" x = "290" y = "-600" transform="rotate(0 290 -600)" fill = "white" font-size = "24">BPM[3]</text><text text-anchor="start" x = "320" y = "-650" transform="rotate(0 320 -650)" fill = "white" font-size = "32">?</text><text text-anchor="end" x = "290" y = "-650" transform="rotate(0 290 -650)" fill = "white" font-size = "24">BPM[2]</text><text text-anchor="start" x = "320" y = "-700" transform="rotate(0 320 -700)" fill = "white" font-size = "32">?</text><text text-anchor="end" x = "290" y = "-700" transform="rotate(0 290 -700)" fill = "white" font-size = "24">BPM[1]</text><text text-anchor="start" x = "320" y = "-750" transform="rotate(0 320 -750)" fill = "white" font-size = "32">?</text><text text-anchor="end" x = "290" y = "-750" transform="rotate(0 290 -750)" fill = "white" font-size = "24">BPM[0]</text><text text-anchor="start" x = "320" y = "600" transform="rotate(0 320 600)" fill = "white" font-size = "32">?</text><text text-anchor="end" x = "290" y = "600" transform="rotate(0 290 600)" fill = "white" font-size = "24">VSS_SENSE_VTT</text><text text-anchor="middle" x = "0" y = "-870" transform="rotate(0 0 -870)" fill = "blue" font-size = "48">?</text><rect x="-300" y="-850" width="600" height="1500" stroke="yellow" stroke-dasharray="5,5" stroke-width="3" fill="transparent" /> <text text-anchor="middle" x = "0" y = "640" transform="rotate(0 0 640)" fill = "white" font-size = "32">Symbol 1 of 10</text><text text-anchor="start" x = "-275" y = "-800" transform="rotate(0 -275 -800)" fill = "purple" font-size = "48">VIPER_ASIC</text><text text-anchor="end" x = "-375" y = "300" transform="rotate(0 -375 300)" fill = "white" font-size = "32">DDR_COMP&lt;0&gt;</text><circle cx="-350" cy="300" r="5" stroke="yellow" stroke-width="3" fill="red" /> <text text-anchor="end" x = "-375" y = "350" transform="rotate(0 -375 350)" fill = "white" font-size = "32">DDR_COMP&lt;1&gt;</text><circle cx="-350" cy="350" r="5" stroke="yellow" stroke-width="3" fill="red" /> <text text-anchor="end" x = "-375" y = "400" transform="rotate(0 -375 400)" fill = "white" font-size = "32">DDR_COMP&lt;2&gt;</text><circle cx="-350" cy="400" r="5" stroke="yellow" stroke-width="3" fill="red" /> <text text-anchor="end" x = "-375" y = "450" transform="rotate(0 -375 450)" fill = "white" font-size = "32">FC_AH5</text><circle cx="-350" cy="450" r="5" stroke="yellow" stroke-width="3" fill="red" /> <text text-anchor="end" x = "-375" y = "-700" transform="rotate(0 -375 -700)" fill = "white" font-size = "32">BCLK_DP</text><circle cx="-350" cy="-700" r="5" stroke="yellow" stroke-width="3" fill="red" /> <text text-anchor="end" x = "-375" y = "-750" transform="rotate(0 -375 -750)" fill = "white" font-size = "32">BCLK_DN</text><circle cx="-350" cy="-750" r="5" stroke="yellow" stroke-width="3" fill="red" /> <text text-anchor="end" x = "-375" y = "-650" transform="rotate(0 -375 -650)" fill = "white" font-size = "32">DBR*</text><circle cx="-350" cy="-650" r="5" stroke="yellow" stroke-width="3" fill="red" /> <text text-anchor="end" x = "-375" y = "-600" transform="rotate(0 -375 -600)" fill = "white" font-size = "32">DDR_VREF</text><circle cx="-350" cy="-600" r="5" stroke="yellow" stroke-width="3" fill="red" /> <text text-anchor="end" x = "-375" y = "-300" transform="rotate(0 -375 -300)" fill = "white" font-size = "32">RESET*</text><circle cx="-350" cy="-300" r="5" stroke="yellow" stroke-width="3" fill="red" /> <text text-anchor="end" x = "-375" y = "0" transform="rotate(0 -375 0)" fill = "white" font-size = "32">TRST*</text><circle cx="-350" cy="0" r="5" stroke="yellow" stroke-width="3" fill="red" /> <text text-anchor="end" x = "-375" y = "-200" transform="rotate(0 -375 -200)" fill = "white" font-size = "32">TCK</text><circle cx="-350" cy="-200" r="5" stroke="yellow" stroke-width="3" fill="red" /> <text text-anchor="start" x = "375" y = "250" transform="rotate(0 375 250)" fill = "white" font-size = "32">BCLK_ITP_DP</text><circle cx="350" cy="250" r="5" stroke="yellow" stroke-width="3" fill="red" /> <text text-anchor="start" x = "375" y = "-100" transform="rotate(0 375 -100)" fill = "white" font-size = "32">VID&lt;2&gt;</text><circle cx="350" cy="-100" r="5" stroke="yellow" stroke-width="3" fill="red" /> <text text-anchor="start" x = "375" y = "-50" transform="rotate(0 375 -50)" fill = "white" font-size = "32">VID&lt;3&gt;</text><circle cx="350" cy="-50" r="5" stroke="yellow" stroke-width="3" fill="red" /> <text text-anchor="start" x = "375" y = "300" transform="rotate(0 375 300)" fill = "white" font-size = "32">PRDY*</text><circle cx="350" cy="300" r="5" stroke="yellow" stroke-width="3" fill="red" /> <text text-anchor="start" x = "375" y = "0" transform="rotate(0 375 0)" fill = "white" font-size = "32">VID&lt;4&gt;</text><circle cx="350" cy="0" r="5" stroke="yellow" stroke-width="3" fill="red" /> <text text-anchor="start" x = "375" y = "-350" transform="rotate(0 375 -350)" fill = "white" font-size = "32">CAT_ERR*</text><circle cx="350" cy="-350" r="5" stroke="yellow" stroke-width="3" fill="red" /> <text text-anchor="start" x = "375" y = "-200" transform="rotate(0 375 -200)" fill = "white" font-size = "32">VID&lt;0&gt;</text><circle cx="350" cy="-200" r="5" stroke="yellow" stroke-width="3" fill="red" /> <text text-anchor="start" x = "375" y = "-150" transform="rotate(0 375 -150)" fill = "white" font-size = "32">VID&lt;1&gt;</text><circle cx="350" cy="-150" r="5" stroke="yellow" stroke-width="3" fill="red" /> <text text-anchor="start" x = "375" y = "200" transform="rotate(0 375 200)" fill = "white" font-size = "32">BCLK_ITP_DN</text><circle cx="350" cy="200" r="5" stroke="yellow" stroke-width="3" fill="red" /> <text text-anchor="end" x = "-375" y = "250" transform="rotate(0 -375 250)" fill = "white" font-size = "32">COMP0</text><circle cx="-350" cy="250" r="5" stroke="yellow" stroke-width="3" fill="red" /> <text text-anchor="end" x = "-375" y = "-50" transform="rotate(0 -375 -50)" fill = "white" font-size = "32">TDO</text><circle cx="-350" cy="-50" r="5" stroke="yellow" stroke-width="3" fill="red" /> <text text-anchor="end" x = "-375" y = "-100" transform="rotate(0 -375 -100)" fill = "white" font-size = "32">TMS</text><circle cx="-350" cy="-100" r="5" stroke="yellow" stroke-width="3" fill="red" /> <text text-anchor="end" x = "-375" y = "-150" transform="rotate(0 -375 -150)" fill = "white" font-size = "32">TDI</text><circle cx="-350" cy="-150" r="5" stroke="yellow" stroke-width="3" fill="red" /> <text text-anchor="end" x = "-375" y = "-500" transform="rotate(0 -375 -500)" fill = "white" font-size = "32">PREQ*</text><circle cx="-350" cy="-500" r="5" stroke="yellow" stroke-width="3" fill="red" /> <text text-anchor="end" x = "-375" y = "-550" transform="rotate(0 -375 -550)" fill = "white" font-size = "32">ISENSE</text><circle cx="-350" cy="-550" r="5" stroke="yellow" stroke-width="3" fill="red" /> <text text-anchor="start" x = "375" y = "550" transform="rotate(0 375 550)" fill = "white" font-size = "32">VSS_SENSE</text><circle cx="350" cy="550" r="5" stroke="yellow" stroke-width="3" fill="red" /> <text text-anchor="start" x = "375" y = "500" transform="rotate(0 375 500)" fill = "white" font-size = "32">THERMTRIP*</text><circle cx="350" cy="500" r="5" stroke="yellow" stroke-width="3" fill="red" /> <text text-anchor="start" x = "375" y = "400" transform="rotate(0 375 400)" fill = "white" font-size = "32">SKTOCC*</text><circle cx="350" cy="400" r="5" stroke="yellow" stroke-width="3" fill="red" /> <text text-anchor="start" x = "375" y = "350" transform="rotate(0 375 350)" fill = "white" font-size = "32">PSI*</text><circle cx="350" cy="350" r="5" stroke="yellow" stroke-width="3" fill="red" /> <text text-anchor="start" x = "375" y = "150" transform="rotate(0 375 150)" fill = "white" font-size = "32">VID&lt;7&gt;</text><circle cx="350" cy="150" r="5" stroke="yellow" stroke-width="3" fill="red" /> <text text-anchor="start" x = "375" y = "100" transform="rotate(0 375 100)" fill = "white" font-size = "32">VID&lt;6&gt;</text><circle cx="350" cy="100" r="5" stroke="yellow" stroke-width="3" fill="red" /> <text text-anchor="start" x = "375" y = "50" transform="rotate(0 375 50)" fill = "white" font-size = "32">VID&lt;5&gt;</text><circle cx="350" cy="50" r="5" stroke="yellow" stroke-width="3" fill="red" /> <text text-anchor="start" x = "375" y = "-250" transform="rotate(0 375 -250)" fill = "white" font-size = "32">PROCHOT*</text><circle cx="350" cy="-250" r="5" stroke="yellow" stroke-width="3" fill="red" /> <text text-anchor="start" x = "375" y = "-300" transform="rotate(0 375 -300)" fill = "white" font-size = "32">PECI</text><circle cx="350" cy="-300" r="5" stroke="yellow" stroke-width="3" fill="red" /> <text text-anchor="start" x = "375" y = "-400" transform="rotate(0 375 -400)" fill = "white" font-size = "32">BPM_M&lt;7&gt;</text><circle cx="350" cy="-400" r="5" stroke="yellow" stroke-width="3" fill="red" /> <text text-anchor="start" x = "375" y = "-450" transform="rotate(0 375 -450)" fill = "white" font-size = "32">BPM_M&lt;6&gt;</text><circle cx="350" cy="-450" r="5" stroke="yellow" stroke-width="3" fill="red" /> <text text-anchor="start" x = "375" y = "-500" transform="rotate(0 375 -500)" fill = "white" font-size = "32">BPM_M&lt;5&gt;</text><circle cx="350" cy="-500" r="5" stroke="yellow" stroke-width="3" fill="red" /> <text text-anchor="start" x = "375" y = "-550" transform="rotate(0 375 -550)" fill = "white" font-size = "32">BPM_M&lt;4&gt;</text><circle cx="350" cy="-550" r="5" stroke="yellow" stroke-width="3" fill="red" /> <text text-anchor="start" x = "375" y = "-600" transform="rotate(0 375 -600)" fill = "white" font-size = "32">BPM_M&lt;3&gt;</text><circle cx="350" cy="-600" r="5" stroke="yellow" stroke-width="3" fill="red" /> <text text-anchor="start" x = "375" y = "-650" transform="rotate(0 375 -650)" fill = "white" font-size = "32">BPM_M&lt;2&gt;</text><circle cx="350" cy="-650" r="5" stroke="yellow" stroke-width="3" fill="red" /> <text text-anchor="start" x = "375" y = "-700" transform="rotate(0 375 -700)" fill = "white" font-size = "32">BPM_M&lt;1&gt;</text><circle cx="350" cy="-700" r="5" stroke="yellow" stroke-width="3" fill="red" /> <text text-anchor="start" x = "375" y = "-750" transform="rotate(0 375 -750)" fill = "white" font-size = "32">BPM_M&lt;0&gt;</text><circle cx="350" cy="-750" r="5" stroke="yellow" stroke-width="3" fill="red" /> <text text-anchor="start" x = "375" y = "600" transform="rotate(0 375 600)" fill = "white" font-size = "32">VSS_SENSE_VTT</text><circle cx="350" cy="600" r="5" stroke="yellow" stroke-width="3" fill="red" /> <path d="M -300 -651 A 13 13 0 1 0 -300 -650" stroke="white" stroke-width="2" fill="transparent" /><path d="M -300 -301 A 13 13 0 1 0 -300 -300" stroke="white" stroke-width="2" fill="transparent" /><path d="M -300 -1 A 13 13 0 1 0 -300 0" stroke="white" stroke-width="2" fill="transparent" /><path d="M 326 299 A 13 13 0 1 0 326 300" stroke="white" stroke-width="2" fill="transparent" /><path d="M 326 -351 A 13 13 0 1 0 326 -350" stroke="white" stroke-width="2" fill="transparent" /><path d="M -300 -501 A 13 13 0 1 0 -300 -500" stroke="white" stroke-width="2" fill="transparent" /><path d="M 326 499 A 13 13 0 1 0 326 500" stroke="white" stroke-width="2" fill="transparent" /><path d="M 326 399 A 13 13 0 1 0 326 400" stroke="white" stroke-width="2" fill="transparent" /><path d="M 326 349 A 13 13 0 1 0 326 350" stroke="white" stroke-width="2" fill="transparent" /><path d="M 326 -251 A 13 13 0 1 0 326 -250" stroke="white" stroke-width="2" fill="transparent" /><path d="M 326 -401 A 13 13 0 1 0 326 -400" stroke="white" stroke-width="2" fill="transparent" /><path d="M 326 -451 A 13 13 0 1 0 326 -450" stroke="white" stroke-width="2" fill="transparent" /><path d="M 326 -501 A 13 13 0 1 0 326 -500" stroke="white" stroke-width="2" fill="transparent" /><path d="M 326 -551 A 13 13 0 1 0 326 -550" stroke="white" stroke-width="2" fill="transparent" /><path d="M 326 -601 A 13 13 0 1 0 326 -600" stroke="white" stroke-width="2" fill="transparent" /><path d="M 326 -651 A 13 13 0 1 0 326 -650" stroke="white" stroke-width="2" fill="transparent" /><path d="M 326 -701 A 13 13 0 1 0 326 -700" stroke="white" stroke-width="2" fill="transparent" /><path d="M 326 -751 A 13 13 0 1 0 326 -750" stroke="white" stroke-width="2" fill="transparent" /><path d="M -350 300 L -300 300" stroke="white" stroke-width="2" fill="transparent" /><path d="M -350 350 L -300 350" stroke="white" stroke-width="2" fill="transparent" /><path d="M -350 400 L -300 400" stroke="white" stroke-width="2" fill="transparent" /><path d="M -350 450 L -300 450" stroke="white" stroke-width="2" fill="transparent" /><path d="M -350 -700 L -300 -700" stroke="white" stroke-width="2" fill="transparent" /><path d="M -350 -750 L -300 -750" stroke="white" stroke-width="2" fill="transparent" /><path d="M -350 -650 L -326 -650" stroke="white" stroke-width="2" fill="transparent" /><path d="M -350 -600 L -300 -600" stroke="white" stroke-width="2" fill="transparent" /><path d="M -350 -300 L -326 -300" stroke="white" stroke-width="2" fill="transparent" /><path d="M -350 0 L -326 0" stroke="white" stroke-width="2" fill="transparent" /><path d="M -350 -200 L -300 -200" stroke="white" stroke-width="2" fill="transparent" /><path d="M 350 250 L 300 250" stroke="white" stroke-width="2" fill="transparent" /><path d="M 350 -100 L 300 -100" stroke="white" stroke-width="2" fill="transparent" /><path d="M 350 -50 L 300 -50" stroke="white" stroke-width="2" fill="transparent" /><path d="M 350 300 L 326 300" stroke="white" stroke-width="2" fill="transparent" /><path d="M 350 0 L 300 0" stroke="white" stroke-width="2" fill="transparent" /><path d="M 350 -350 L 326 -350" stroke="white" stroke-width="2" fill="transparent" /><path d="M 350 -200 L 300 -200" stroke="white" stroke-width="2" fill="transparent" /><path d="M 350 -150 L 300 -150" stroke="white" stroke-width="2" fill="transparent" /><path d="M 350 200 L 300 200" stroke="white" stroke-width="2" fill="transparent" /><path d="M -350 250 L -300 250" stroke="white" stroke-width="2" fill="transparent" /><path d="M -350 -50 L -300 -50" stroke="white" stroke-width="2" fill="transparent" /><path d="M -350 -100 L -300 -100" stroke="white" stroke-width="2" fill="transparent" /><path d="M -350 -150 L -300 -150" stroke="white" stroke-width="2" fill="transparent" /><path d="M -350 -500 L -326 -500" stroke="white" stroke-width="2" fill="transparent" /><path d="M -350 -550 L -300 -550" stroke="white" stroke-width="2" fill="transparent" /><path d="M 350 550 L 300 550" stroke="white" stroke-width="2" fill="transparent" /><path d="M 350 500 L 326 500" stroke="white" stroke-width="2" fill="transparent" /><path d="M 350 400 L 326 400" stroke="white" stroke-width="2" fill="transparent" /><path d="M 350 350 L 326 350" stroke="white" stroke-width="2" fill="transparent" /><path d="M 350 150 L 300 150" stroke="white" stroke-width="2" fill="transparent" /><path d="M 350 100 L 300 100" stroke="white" stroke-width="2" fill="transparent" /><path d="M 350 50 L 300 50" stroke="white" stroke-width="2" fill="transparent" /><path d="M 350 -250 L 326 -250" stroke="white" stroke-width="2" fill="transparent" /><path d="M 350 -300 L 300 -300" stroke="white" stroke-width="2" fill="transparent" /><path d="M 350 -400 L 326 -400" stroke="white" stroke-width="2" fill="transparent" /><path d="M 350 -450 L 326 -450" stroke="white" stroke-width="2" fill="transparent" /><path d="M 350 -500 L 326 -500" stroke="white" stroke-width="2" fill="transparent" /><path d="M 350 -550 L 326 -550" stroke="white" stroke-width="2" fill="transparent" /><path d="M 350 -600 L 326 -600" stroke="white" stroke-width="2" fill="transparent" /><path d="M 350 -650 L 326 -650" stroke="white" stroke-width="2" fill="transparent" /><path d="M 350 -700 L 326 -700" stroke="white" stroke-width="2" fill="transparent" /><path d="M 350 -750 L 326 -750" stroke="white" stroke-width="2" fill="transparent" /><path d="M 350 600 L 300 600" stroke="white" stroke-width="2" fill="transparent" /><path d="M 300 -850 L 300 650" stroke="white" stroke-width="2" fill="transparent" /><path d="M -300 650 L 300 650" stroke="white" stroke-width="2" fill="transparent" /><path d="M -300 -850 L 300 -850" stroke="white" stroke-width="2" fill="transparent" /><path d="M -300 -850 L -300 650" stroke="white" stroke-width="2" fill="transparent" /><path d="M -10 10 L 10 -10" stroke="white" stroke-width="2" fill="transparent" /><path d="M -10 -10 L 10 10" stroke="white" stroke-width="2" fill="transparent" /><circle cx="0" cy="0" r="4" stroke="white" stroke-width="2" fill="green" /></svg>