<svg width="100&#37;" height="100&#37;" version="1.1" xmlns="http://www.w3.org/2000/svg" overflow="visible" style="background: black"> <text text-anchor="start" x = "520" y = "-50" transform="rotate(0 520 -50)" fill = "white" font-size = "32">?</text><text text-anchor="end" x = "490" y = "-50" transform="rotate(0 490 -50)" fill = "white" font-size = "24">SATA_RXP[3]</text><text text-anchor="start" x = "520" y = "450" transform="rotate(0 520 450)" fill = "white" font-size = "32">?</text><text text-anchor="end" x = "490" y = "449" transform="rotate(0 490 449)" fill = "white" font-size = "24">SATA_RXP[1]</text><text text-anchor="start" x = "520" y = "-250" transform="rotate(0 520 -250)" fill = "white" font-size = "32">?</text><text text-anchor="end" x = "490" y = "-250" transform="rotate(0 490 -250)" fill = "white" font-size = "24">SATA_RXN[4]</text><text text-anchor="start" x = "520" y = "-300" transform="rotate(0 520 -300)" fill = "white" font-size = "32">?</text><text text-anchor="end" x = "490" y = "-300" transform="rotate(0 490 -300)" fill = "white" font-size = "24">SATA_RXP[4]</text><text text-anchor="start" x = "520" y = "250" transform="rotate(0 520 250)" fill = "white" font-size = "32">?</text><text text-anchor="end" x = "490" y = "250" transform="rotate(0 490 250)" fill = "white" font-size = "24">SATA_RXN[2]</text><text text-anchor="start" x = "520" y = "-400" transform="rotate(0 520 -400)" fill = "white" font-size = "32">?</text><text text-anchor="end" x = "490" y = "-400" transform="rotate(0 490 -400)" fill = "white" font-size = "24">SATA_TXP[4]</text><text text-anchor="start" x = "520" y = "-350" transform="rotate(0 520 -350)" fill = "white" font-size = "32">?</text><text text-anchor="end" x = "490" y = "-350" transform="rotate(0 490 -350)" fill = "white" font-size = "24">SATA_TXN[4]</text><text text-anchor="start" x = "520" y = "-600" transform="rotate(0 520 -600)" fill = "white" font-size = "32">?</text><text text-anchor="end" x = "490" y = "-600" transform="rotate(0 490 -600)" fill = "white" font-size = "24">SATA_TXN[5]</text><text text-anchor="start" x = "520" y = "-650" transform="rotate(0 520 -650)" fill = "white" font-size = "32">?</text><text text-anchor="end" x = "490" y = "-650" transform="rotate(0 490 -650)" fill = "white" font-size = "24">SATA_TXP[5]</text><text text-anchor="start" x = "520" y = "400" transform="rotate(0 520 400)" fill = "white" font-size = "32">?</text><text text-anchor="end" x = "490" y = "399" transform="rotate(0 490 399)" fill = "white" font-size = "24">SATA_TXN[1]</text><text text-anchor="start" x = "520" y = "-100" transform="rotate(0 520 -100)" fill = "white" font-size = "32">?</text><text text-anchor="end" x = "490" y = "-100" transform="rotate(0 490 -100)" fill = "white" font-size = "24">SATA_TXN[3]</text><text text-anchor="start" x = "520" y = "-150" transform="rotate(0 520 -150)" fill = "white" font-size = "32">?</text><text text-anchor="end" x = "490" y = "-150" transform="rotate(0 490 -150)" fill = "white" font-size = "24">SATA_TXP[3]</text><text text-anchor="start" x = "520" y = "150" transform="rotate(0 520 150)" fill = "white" font-size = "32">?</text><text text-anchor="end" x = "490" y = "150" transform="rotate(0 490 150)" fill = "white" font-size = "24">SATA_TXN[2]</text><text text-anchor="start" x = "520" y = "100" transform="rotate(0 520 100)" fill = "white" font-size = "32">?</text><text text-anchor="end" x = "490" y = "100" transform="rotate(0 490 100)" fill = "white" font-size = "24">SATA_TXP[2]</text><text text-anchor="start" x = "520" y = "350" transform="rotate(0 520 350)" fill = "white" font-size = "32">?</text><text text-anchor="end" x = "490" y = "349" transform="rotate(0 490 349)" fill = "white" font-size = "24">SATA_TXP[1]</text><text text-anchor="start" x = "520" y = "650" transform="rotate(0 520 650)" fill = "white" font-size = "32">?</text><text text-anchor="end" x = "490" y = "649" transform="rotate(0 490 649)" fill = "white" font-size = "24">SATA_TXN[0]</text><text text-anchor="start" x = "520" y = "600" transform="rotate(0 520 600)" fill = "white" font-size = "32">?</text><text text-anchor="end" x = "490" y = "599" transform="rotate(0 490 599)" fill = "white" font-size = "24">SATA_TXP[0]</text><text text-anchor="start" x = "520" y = "-500" transform="rotate(0 520 -500)" fill = "white" font-size = "32">?</text><text text-anchor="end" x = "490" y = "-500" transform="rotate(0 490 -500)" fill = "white" font-size = "24">SATA_RXN[5]</text><text text-anchor="start" x = "520" y = "-550" transform="rotate(0 520 -550)" fill = "white" font-size = "32">?</text><text text-anchor="end" x = "490" y = "-550" transform="rotate(0 490 -550)" fill = "white" font-size = "24">SATA_RXP[5]</text><text text-anchor="start" x = "520" y = "0" transform="rotate(0 520 0)" fill = "white" font-size = "32">?</text><text text-anchor="end" x = "490" y = "0" transform="rotate(0 490 0)" fill = "white" font-size = "24">SATA_RXN[3]</text><text text-anchor="start" x = "520" y = "200" transform="rotate(0 520 200)" fill = "white" font-size = "32">?</text><text text-anchor="end" x = "490" y = "200" transform="rotate(0 490 200)" fill = "white" font-size = "24">SATA_RXP[2]</text><text text-anchor="start" x = "520" y = "500" transform="rotate(0 520 500)" fill = "white" font-size = "32">?</text><text text-anchor="end" x = "490" y = "500" transform="rotate(0 490 500)" fill = "white" font-size = "24">SATA_RXN[1]</text><text text-anchor="start" x = "520" y = "750" transform="rotate(0 520 750)" fill = "white" font-size = "32">?</text><text text-anchor="end" x = "490" y = "750" transform="rotate(0 490 750)" fill = "white" font-size = "24">SATA_RXN[0]</text><text text-anchor="start" x = "520" y = "700" transform="rotate(0 520 700)" fill = "white" font-size = "32">?</text><text text-anchor="end" x = "490" y = "700" transform="rotate(0 490 700)" fill = "white" font-size = "24">SATA_RXP[0]</text><text text-anchor="end" x = "-520" y = "50" transform="rotate(0 -520 50)" fill = "white" font-size = "32">?</text><text text-anchor="start" x = "-490" y = "50" transform="rotate(0 -490 50)" fill = "white" font-size = "24">SATA_LED*</text><text text-anchor="end" x = "-520" y = "0" transform="rotate(0 -520 0)" fill = "white" font-size = "32">?</text><text text-anchor="start" x = "-490" y = "0" transform="rotate(0 -490 0)" fill = "white" font-size = "24">SATA_CLK</text><text text-anchor="end" x = "-520" y = "-50" transform="rotate(0 -520 -50)" fill = "white" font-size = "32">?</text><text text-anchor="start" x = "-490" y = "-50" transform="rotate(0 -490 -50)" fill = "white" font-size = "24">SATA_COMPO</text><text text-anchor="end" x = "-520" y = "-100" transform="rotate(0 -520 -100)" fill = "white" font-size = "32">?</text><text text-anchor="start" x = "-490" y = "-100" transform="rotate(0 -490 -100)" fill = "white" font-size = "24">SATA_COMPI</text><text text-anchor="end" x = "-520" y = "200" transform="rotate(0 -520 200)" fill = "white" font-size = "32">?</text><text text-anchor="start" x = "-490" y = "200" transform="rotate(0 -490 200)" fill = "white" font-size = "24">SLOAD</text><text text-anchor="end" x = "-520" y = "150" transform="rotate(0 -520 150)" fill = "white" font-size = "32">?</text><text text-anchor="start" x = "-490" y = "150" transform="rotate(0 -490 150)" fill = "white" font-size = "24">SDATAOUT1</text><text text-anchor="end" x = "-520" y = "100" transform="rotate(0 -520 100)" fill = "white" font-size = "32">?</text><text text-anchor="start" x = "-490" y = "100" transform="rotate(0 -490 100)" fill = "white" font-size = "24">SDATAOUT0</text><text text-anchor="end" x = "-520" y = "-150" transform="rotate(0 -520 -150)" fill = "white" font-size = "32">?</text><text text-anchor="start" x = "-490" y = "-150" transform="rotate(0 -490 -150)" fill = "white" font-size = "24">SATA_BIAS</text><text text-anchor="end" x = "-520" y = "-200" transform="rotate(0 -520 -200)" fill = "white" font-size = "32">?</text><text text-anchor="start" x = "-490" y = "-200" transform="rotate(0 -490 -200)" fill = "white" font-size = "24">SATA3_COMPO</text><text text-anchor="end" x = "-520" y = "-250" transform="rotate(0 -520 -250)" fill = "white" font-size = "32">?</text><text text-anchor="start" x = "-490" y = "-250" transform="rotate(0 -490 -250)" fill = "white" font-size = "24">SATA3_COMPI</text><text text-anchor="middle" x = "0" y = "-770" transform="rotate(0 0 -770)" fill = "white" font-size = "48">?</text><rect x="-500" y="-750" width="1000" height="1550" stroke="yellow" stroke-dasharray="5,5" stroke-width="3" fill="transparent" /> <text text-anchor="middle" x = "0" y = "780" transform="rotate(0 0 780)" fill = "white" font-size = "32">Symbol 9 of 10</text><text text-anchor="start" x = "-450" y = "-680" transform="rotate(0 -450 -680)" fill = "purple" font-size = "48">VIPER_ASIC</text><text text-anchor="start" x = "-450" y = "680" transform="rotate(0 -450 680)" fill = "purple" font-size = "64">SATA PORTS</text><text text-anchor="start" x = "575" y = "-50" transform="rotate(0 575 -50)" fill = "white" font-size = "32">SATA_RXP&lt;3&gt;</text><circle cx="550" cy="-50" r="5" stroke="yellow" stroke-width="3" fill="red" /> <text text-anchor="start" x = "575" y = "450" transform="rotate(0 575 450)" fill = "white" font-size = "32">SATA_RXP&lt;1&gt;</text><circle cx="550" cy="450" r="5" stroke="yellow" stroke-width="3" fill="red" /> <text text-anchor="start" x = "575" y = "-250" transform="rotate(0 575 -250)" fill = "white" font-size = "32">SATA_RXN&lt;4&gt;</text><circle cx="550" cy="-250" r="5" stroke="yellow" stroke-width="3" fill="red" /> <text text-anchor="start" x = "575" y = "-300" transform="rotate(0 575 -300)" fill = "white" font-size = "32">SATA_RXP&lt;4&gt;</text><circle cx="550" cy="-300" r="5" stroke="yellow" stroke-width="3" fill="red" /> <text text-anchor="start" x = "575" y = "250" transform="rotate(0 575 250)" fill = "white" font-size = "32">SATA_RXN&lt;2&gt;</text><circle cx="550" cy="250" r="5" stroke="yellow" stroke-width="3" fill="red" /> <text text-anchor="start" x = "575" y = "-400" transform="rotate(0 575 -400)" fill = "white" font-size = "32">SATA_TXP&lt;4&gt;</text><circle cx="550" cy="-400" r="5" stroke="yellow" stroke-width="3" fill="red" /> <text text-anchor="start" x = "575" y = "-350" transform="rotate(0 575 -350)" fill = "white" font-size = "32">SATA_TXN&lt;4&gt;</text><circle cx="550" cy="-350" r="5" stroke="yellow" stroke-width="3" fill="red" /> <text text-anchor="start" x = "575" y = "-600" transform="rotate(0 575 -600)" fill = "white" font-size = "32">SATA_TXN&lt;5&gt;</text><circle cx="550" cy="-600" r="5" stroke="yellow" stroke-width="3" fill="red" /> <text text-anchor="start" x = "575" y = "-650" transform="rotate(0 575 -650)" fill = "white" font-size = "32">SATA_TXP&lt;5&gt;</text><circle cx="550" cy="-650" r="5" stroke="yellow" stroke-width="3" fill="red" /> <text text-anchor="start" x = "575" y = "400" transform="rotate(0 575 400)" fill = "white" font-size = "32">SATA_TXN&lt;1&gt;</text><circle cx="550" cy="400" r="5" stroke="yellow" stroke-width="3" fill="red" /> <text text-anchor="start" x = "575" y = "-100" transform="rotate(0 575 -100)" fill = "white" font-size = "32">SATA_TXN&lt;3&gt;</text><circle cx="550" cy="-100" r="5" stroke="yellow" stroke-width="3" fill="red" /> <text text-anchor="start" x = "575" y = "-150" transform="rotate(0 575 -150)" fill = "white" font-size = "32">SATA_TXP&lt;3&gt;</text><circle cx="550" cy="-150" r="5" stroke="yellow" stroke-width="3" fill="red" /> <text text-anchor="start" x = "575" y = "150" transform="rotate(0 575 150)" fill = "white" font-size = "32">SATA_TXN&lt;2&gt;</text><circle cx="550" cy="150" r="5" stroke="yellow" stroke-width="3" fill="red" /> <text text-anchor="start" x = "575" y = "100" transform="rotate(0 575 100)" fill = "white" font-size = "32">SATA_TXP&lt;2&gt;</text><circle cx="550" cy="100" r="5" stroke="yellow" stroke-width="3" fill="red" /> <text text-anchor="start" x = "575" y = "350" transform="rotate(0 575 350)" fill = "white" font-size = "32">SATA_TXP&lt;1&gt;</text><circle cx="550" cy="350" r="5" stroke="yellow" stroke-width="3" fill="red" /> <text text-anchor="start" x = "575" y = "650" transform="rotate(0 575 650)" fill = "white" font-size = "32">SATA_TXN&lt;0&gt;</text><circle cx="550" cy="650" r="5" stroke="yellow" stroke-width="3" fill="red" /> <text text-anchor="start" x = "575" y = "600" transform="rotate(0 575 600)" fill = "white" font-size = "32">SATA_TXP&lt;0&gt;</text><circle cx="550" cy="600" r="5" stroke="yellow" stroke-width="3" fill="red" /> <text text-anchor="start" x = "575" y = "-500" transform="rotate(0 575 -500)" fill = "white" font-size = "32">SATA_RXN&lt;5&gt;</text><circle cx="550" cy="-500" r="5" stroke="yellow" stroke-width="3" fill="red" /> <text text-anchor="start" x = "575" y = "-550" transform="rotate(0 575 -550)" fill = "white" font-size = "32">SATA_RXP&lt;5&gt;</text><circle cx="550" cy="-550" r="5" stroke="yellow" stroke-width="3" fill="red" /> <text text-anchor="start" x = "575" y = "0" transform="rotate(0 575 0)" fill = "white" font-size = "32">SATA_RXN&lt;3&gt;</text><circle cx="550" cy="0" r="5" stroke="yellow" stroke-width="3" fill="red" /> <text text-anchor="start" x = "575" y = "200" transform="rotate(0 575 200)" fill = "white" font-size = "32">SATA_RXP&lt;2&gt;</text><circle cx="550" cy="200" r="5" stroke="yellow" stroke-width="3" fill="red" /> <text text-anchor="start" x = "575" y = "500" transform="rotate(0 575 500)" fill = "white" font-size = "32">SATA_RXN&lt;1&gt;</text><circle cx="550" cy="500" r="5" stroke="yellow" stroke-width="3" fill="red" /> <text text-anchor="start" x = "575" y = "750" transform="rotate(0 575 750)" fill = "white" font-size = "32">SATA_RXN&lt;0&gt;</text><circle cx="550" cy="750" r="5" stroke="yellow" stroke-width="3" fill="red" /> <text text-anchor="start" x = "575" y = "700" transform="rotate(0 575 700)" fill = "white" font-size = "32">SATA_RXP&lt;0&gt;</text><circle cx="550" cy="700" r="5" stroke="yellow" stroke-width="3" fill="red" /> <text text-anchor="end" x = "-575" y = "50" transform="rotate(0 -575 50)" fill = "white" font-size = "32">SATA_LED*</text><circle cx="-550" cy="50" r="5" stroke="yellow" stroke-width="3" fill="red" /> <text text-anchor="end" x = "-575" y = "0" transform="rotate(0 -575 0)" fill = "white" font-size = "32">SATA_CLK</text><circle cx="-550" cy="0" r="5" stroke="yellow" stroke-width="3" fill="red" /> <text text-anchor="end" x = "-575" y = "-50" transform="rotate(0 -575 -50)" fill = "white" font-size = "32">SATA_COMPO</text><circle cx="-550" cy="-50" r="5" stroke="yellow" stroke-width="3" fill="red" /> <text text-anchor="end" x = "-575" y = "-100" transform="rotate(0 -575 -100)" fill = "white" font-size = "32">SATA_COMPI</text><circle cx="-550" cy="-100" r="5" stroke="yellow" stroke-width="3" fill="red" /> <text text-anchor="end" x = "-575" y = "200" transform="rotate(0 -575 200)" fill = "white" font-size = "32">SLOAD</text><circle cx="-550" cy="200" r="5" stroke="yellow" stroke-width="3" fill="red" /> <text text-anchor="end" x = "-575" y = "150" transform="rotate(0 -575 150)" fill = "white" font-size = "32">SDATAOUT1</text><circle cx="-550" cy="150" r="5" stroke="yellow" stroke-width="3" fill="red" /> <text text-anchor="end" x = "-575" y = "100" transform="rotate(0 -575 100)" fill = "white" font-size = "32">SDATAOUT0</text><circle cx="-550" cy="100" r="5" stroke="yellow" stroke-width="3" fill="red" /> <text text-anchor="end" x = "-575" y = "-150" transform="rotate(0 -575 -150)" fill = "white" font-size = "32">SATA_BIAS</text><circle cx="-550" cy="-150" r="5" stroke="yellow" stroke-width="3" fill="red" /> <text text-anchor="end" x = "-575" y = "-200" transform="rotate(0 -575 -200)" fill = "white" font-size = "32">SATA3_COMPO</text><circle cx="-550" cy="-200" r="5" stroke="yellow" stroke-width="3" fill="red" /> <text text-anchor="end" x = "-575" y = "-250" transform="rotate(0 -575 -250)" fill = "white" font-size = "32">SATA3_COMPI</text><circle cx="-550" cy="-250" r="5" stroke="yellow" stroke-width="3" fill="red" /> <path d="M 526 -251 A 13 13 0 1 0 526 -250" stroke="white" stroke-width="2" fill="transparent" /><path d="M 526 249 A 13 13 0 1 0 526 250" stroke="white" stroke-width="2" fill="transparent" /><path d="M 526 -351 A 13 13 0 1 0 526 -350" stroke="white" stroke-width="2" fill="transparent" /><path d="M 526 -601 A 13 13 0 1 0 526 -600" stroke="white" stroke-width="2" fill="transparent" /><path d="M 526 399 A 13 13 0 1 0 526 400" stroke="white" stroke-width="2" fill="transparent" /><path d="M 526 -101 A 13 13 0 1 0 526 -100" stroke="white" stroke-width="2" fill="transparent" /><path d="M 526 149 A 13 13 0 1 0 526 150" stroke="white" stroke-width="2" fill="transparent" /><path d="M 526 649 A 13 13 0 1 0 526 650" stroke="white" stroke-width="2" fill="transparent" /><path d="M 526 -501 A 13 13 0 1 0 526 -500" stroke="white" stroke-width="2" fill="transparent" /><path d="M 526 -1 A 13 13 0 1 0 526 0" stroke="white" stroke-width="2" fill="transparent" /><path d="M 526 499 A 13 13 0 1 0 526 500" stroke="white" stroke-width="2" fill="transparent" /><path d="M 526 749 A 13 13 0 1 0 526 750" stroke="white" stroke-width="2" fill="transparent" /><path d="M -500 49 A 13 13 0 1 0 -500 50" stroke="white" stroke-width="2" fill="transparent" /><path d="M 550 -50 L 500 -50" stroke="white" stroke-width="2" fill="transparent" /><path d="M 550 450 L 500 450" stroke="white" stroke-width="2" fill="transparent" /><path d="M 550 -250 L 526 -250" stroke="white" stroke-width="2" fill="transparent" /><path d="M 550 -300 L 500 -300" stroke="white" stroke-width="2" fill="transparent" /><path d="M 550 250 L 526 250" stroke="white" stroke-width="2" fill="transparent" /><path d="M 550 -400 L 500 -400" stroke="white" stroke-width="2" fill="transparent" /><path d="M 550 -350 L 526 -350" stroke="white" stroke-width="2" fill="transparent" /><path d="M 550 -600 L 526 -600" stroke="white" stroke-width="2" fill="transparent" /><path d="M 550 -650 L 500 -650" stroke="white" stroke-width="2" fill="transparent" /><path d="M 550 400 L 526 400" stroke="white" stroke-width="2" fill="transparent" /><path d="M 550 -100 L 526 -100" stroke="white" stroke-width="2" fill="transparent" /><path d="M 550 -150 L 500 -150" stroke="white" stroke-width="2" fill="transparent" /><path d="M 550 150 L 526 150" stroke="white" stroke-width="2" fill="transparent" /><path d="M 550 100 L 500 100" stroke="white" stroke-width="2" fill="transparent" /><path d="M 550 350 L 500 350" stroke="white" stroke-width="2" fill="transparent" /><path d="M 550 650 L 526 650" stroke="white" stroke-width="2" fill="transparent" /><path d="M 550 600 L 500 600" stroke="white" stroke-width="2" fill="transparent" /><path d="M 550 -500 L 526 -500" stroke="white" stroke-width="2" fill="transparent" /><path d="M 550 -550 L 500 -550" stroke="white" stroke-width="2" fill="transparent" /><path d="M 550 0 L 526 0" stroke="white" stroke-width="2" fill="transparent" /><path d="M 550 200 L 500 200" stroke="white" stroke-width="2" fill="transparent" /><path d="M 550 500 L 526 500" stroke="white" stroke-width="2" fill="transparent" /><path d="M 550 750 L 526 750" stroke="white" stroke-width="2" fill="transparent" /><path d="M 550 700 L 500 700" stroke="white" stroke-width="2" fill="transparent" /><path d="M -550 50 L -526 50" stroke="white" stroke-width="2" fill="transparent" /><path d="M -550 0 L -500 0" stroke="white" stroke-width="2" fill="transparent" /><path d="M -550 -50 L -500 -50" stroke="white" stroke-width="2" fill="transparent" /><path d="M -550 -100 L -500 -100" stroke="white" stroke-width="2" fill="transparent" /><path d="M -550 200 L -500 200" stroke="white" stroke-width="2" fill="transparent" /><path d="M -550 150 L -500 150" stroke="white" stroke-width="2" fill="transparent" /><path d="M -550 100 L -500 100" stroke="white" stroke-width="2" fill="transparent" /><path d="M -550 -150 L -500 -150" stroke="white" stroke-width="2" fill="transparent" /><path d="M -550 -200 L -500 -200" stroke="white" stroke-width="2" fill="transparent" /><path d="M -550 -250 L -500 -250" stroke="white" stroke-width="2" fill="transparent" /><path d="M 500 -750 L 500 800" stroke="white" stroke-width="2" fill="transparent" /><path d="M -500 -750 L -500 800" stroke="white" stroke-width="2" fill="transparent" /><path d="M -500 -750 L 500 -750" stroke="white" stroke-width="2" fill="transparent" /><path d="M -500 800 L 500 800" stroke="white" stroke-width="2" fill="transparent" /><path d="M -10 10 L 10 -10" stroke="white" stroke-width="2" fill="transparent" /><path d="M -10 -10 L 10 10" stroke="white" stroke-width="2" fill="transparent" /><circle cx="0" cy="0" r="4" stroke="white" stroke-width="2" fill="green" /></svg>