<svg width="100&#37;" height="100&#37;" version="1.1" xmlns="http://www.w3.org/2000/svg" overflow="visible" style="background: black"> <text text-anchor="end" x = "-370" y = "-200" transform="rotate(0 -370 -200)" fill = "white" font-size = "32">?</text><text text-anchor="start" x = "-340" y = "-200" transform="rotate(0 -340 -200)" fill = "white" font-size = "24">USB3_RXP[3]</text><text text-anchor="start" x = "370" y = "-200" transform="rotate(0 370 -200)" fill = "white" font-size = "32">?</text><text text-anchor="end" x = "340" y = "-200" transform="rotate(0 340 -200)" fill = "white" font-size = "24">USB3_TXP[3]</text><text text-anchor="start" x = "370" y = "-150" transform="rotate(0 370 -150)" fill = "white" font-size = "32">?</text><text text-anchor="end" x = "340" y = "-150" transform="rotate(0 340 -150)" fill = "white" font-size = "24">USB3_TXN[3]</text><text text-anchor="start" x = "370" y = "-100" transform="rotate(0 370 -100)" fill = "white" font-size = "32">?</text><text text-anchor="end" x = "340" y = "-100" transform="rotate(0 340 -100)" fill = "white" font-size = "24">USB3_TXP[2]</text><text text-anchor="start" x = "370" y = "-50" transform="rotate(0 370 -50)" fill = "white" font-size = "32">?</text><text text-anchor="end" x = "340" y = "-50" transform="rotate(0 340 -50)" fill = "white" font-size = "24">USB3_TXN[2]</text><text text-anchor="start" x = "370" y = "0" transform="rotate(0 370 0)" fill = "white" font-size = "32">?</text><text text-anchor="end" x = "340" y = "0" transform="rotate(0 340 0)" fill = "white" font-size = "24">USB3_TXP[1]</text><text text-anchor="start" x = "370" y = "50" transform="rotate(0 370 50)" fill = "white" font-size = "32">?</text><text text-anchor="end" x = "340" y = "50" transform="rotate(0 340 50)" fill = "white" font-size = "24">USB3_TXN[1]</text><text text-anchor="start" x = "370" y = "100" transform="rotate(0 370 100)" fill = "white" font-size = "32">?</text><text text-anchor="end" x = "340" y = "100" transform="rotate(0 340 100)" fill = "white" font-size = "24">USB3_TXP[0]</text><text text-anchor="start" x = "370" y = "150" transform="rotate(0 370 150)" fill = "white" font-size = "32">?</text><text text-anchor="end" x = "340" y = "150" transform="rotate(0 340 150)" fill = "white" font-size = "24">USB3_TXN[0]</text><text text-anchor="end" x = "-370" y = "-150" transform="rotate(0 -370 -150)" fill = "white" font-size = "32">?</text><text text-anchor="start" x = "-340" y = "-150" transform="rotate(0 -340 -150)" fill = "white" font-size = "24">USB3_RXN[3]</text><text text-anchor="end" x = "-370" y = "-100" transform="rotate(0 -370 -100)" fill = "white" font-size = "32">?</text><text text-anchor="start" x = "-340" y = "-100" transform="rotate(0 -340 -100)" fill = "white" font-size = "24">USB3_RXP[2]</text><text text-anchor="end" x = "-370" y = "-50" transform="rotate(0 -370 -50)" fill = "white" font-size = "32">?</text><text text-anchor="start" x = "-340" y = "-50" transform="rotate(0 -340 -50)" fill = "white" font-size = "24">USB3_RXN[2]</text><text text-anchor="end" x = "-370" y = "0" transform="rotate(0 -370 0)" fill = "white" font-size = "32">?</text><text text-anchor="start" x = "-340" y = "0" transform="rotate(0 -340 0)" fill = "white" font-size = "24">USB3_RXP[1]</text><text text-anchor="end" x = "-370" y = "50" transform="rotate(0 -370 50)" fill = "white" font-size = "32">?</text><text text-anchor="start" x = "-340" y = "50" transform="rotate(0 -340 50)" fill = "white" font-size = "24">USB3_RXN[1]</text><text text-anchor="end" x = "-370" y = "100" transform="rotate(0 -370 100)" fill = "white" font-size = "32">?</text><text text-anchor="start" x = "-340" y = "100" transform="rotate(0 -340 100)" fill = "white" font-size = "24">USB3_RXP[0]</text><text text-anchor="end" x = "-370" y = "149" transform="rotate(0 -370 149)" fill = "white" font-size = "32">?</text><text text-anchor="start" x = "-340" y = "150" transform="rotate(0 -340 150)" fill = "white" font-size = "24">USB3_RXN[0]</text><text text-anchor="middle" x = "0" y = "-370" transform="rotate(0 0 -370)" fill = "blue" font-size = "48">?</text><rect x="-350" y="-350" width="700" height="600" stroke="yellow" stroke-dasharray="5,5" stroke-width="3" fill="transparent" /> <text text-anchor="middle" x = "0" y = "230" transform="rotate(0 0 230)" fill = "white" font-size = "32">Symbol 7 of 10</text><text text-anchor="start" x = "-325" y = "-275" transform="rotate(0 -325 -275)" fill = "purple" font-size = "48">VIPER_ASIC</text><text text-anchor="start" x = "-325" y = "225" transform="rotate(0 -325 225)" fill = "purple" font-size = "48">USB3</text><text text-anchor="end" x = "-425" y = "-200" transform="rotate(0 -425 -200)" fill = "white" font-size = "32">USB3_RXP&lt;3&gt;</text><circle cx="-400" cy="-200" r="5" stroke="yellow" stroke-width="3" fill="red" /> <text text-anchor="start" x = "425" y = "-200" transform="rotate(0 425 -200)" fill = "white" font-size = "32">USB3_TXP&lt;3&gt;</text><circle cx="400" cy="-200" r="5" stroke="yellow" stroke-width="3" fill="red" /> <text text-anchor="start" x = "425" y = "-150" transform="rotate(0 425 -150)" fill = "white" font-size = "32">USB3_TXN&lt;3&gt;</text><circle cx="400" cy="-150" r="5" stroke="yellow" stroke-width="3" fill="red" /> <text text-anchor="start" x = "425" y = "-100" transform="rotate(0 425 -100)" fill = "white" font-size = "32">USB3_TXP&lt;2&gt;</text><circle cx="400" cy="-100" r="5" stroke="yellow" stroke-width="3" fill="red" /> <text text-anchor="start" x = "425" y = "-50" transform="rotate(0 425 -50)" fill = "white" font-size = "32">USB3_TXN&lt;2&gt;</text><circle cx="400" cy="-50" r="5" stroke="yellow" stroke-width="3" fill="red" /> <text text-anchor="start" x = "425" y = "0" transform="rotate(0 425 0)" fill = "white" font-size = "32">USB3_TXP&lt;1&gt;</text><circle cx="400" cy="0" r="5" stroke="yellow" stroke-width="3" fill="red" /> <text text-anchor="start" x = "425" y = "50" transform="rotate(0 425 50)" fill = "white" font-size = "32">USB3_TXN&lt;1&gt;</text><circle cx="400" cy="50" r="5" stroke="yellow" stroke-width="3" fill="red" /> <text text-anchor="start" x = "425" y = "100" transform="rotate(0 425 100)" fill = "white" font-size = "32">USB3_TXP&lt;0&gt;</text><circle cx="400" cy="100" r="5" stroke="yellow" stroke-width="3" fill="red" /> <text text-anchor="start" x = "425" y = "150" transform="rotate(0 425 150)" fill = "white" font-size = "32">USB3_TXN&lt;0&gt;</text><circle cx="400" cy="150" r="5" stroke="yellow" stroke-width="3" fill="red" /> <text text-anchor="end" x = "-425" y = "-150" transform="rotate(0 -425 -150)" fill = "white" font-size = "32">USB3_RXN&lt;3&gt;</text><circle cx="-400" cy="-150" r="5" stroke="yellow" stroke-width="3" fill="red" /> <text text-anchor="end" x = "-425" y = "-100" transform="rotate(0 -425 -100)" fill = "white" font-size = "32">USB3_RXP&lt;2&gt;</text><circle cx="-400" cy="-100" r="5" stroke="yellow" stroke-width="3" fill="red" /> <text text-anchor="end" x = "-425" y = "-50" transform="rotate(0 -425 -50)" fill = "white" font-size = "32">USB3_RXN&lt;2&gt;</text><circle cx="-400" cy="-50" r="5" stroke="yellow" stroke-width="3" fill="red" /> <text text-anchor="end" x = "-425" y = "0" transform="rotate(0 -425 0)" fill = "white" font-size = "32">USB3_RXP&lt;1&gt;</text><circle cx="-400" cy="0" r="5" stroke="yellow" stroke-width="3" fill="red" /> <text text-anchor="end" x = "-425" y = "50" transform="rotate(0 -425 50)" fill = "white" font-size = "32">USB3_RXN&lt;1&gt;</text><circle cx="-400" cy="50" r="5" stroke="yellow" stroke-width="3" fill="red" /> <text text-anchor="end" x = "-425" y = "100" transform="rotate(0 -425 100)" fill = "white" font-size = "32">USB3_RXP&lt;0&gt;</text><circle cx="-400" cy="100" r="5" stroke="yellow" stroke-width="3" fill="red" /> <text text-anchor="end" x = "-425" y = "150" transform="rotate(0 -425 150)" fill = "white" font-size = "32">USB3_RXN&lt;0&gt;</text><circle cx="-400" cy="150" r="5" stroke="yellow" stroke-width="3" fill="red" /> <path d="M 376 -151 A 13 13 0 1 0 376 -150" stroke="white" stroke-width="2" fill="transparent" /><path d="M 376 -51 A 13 13 0 1 0 376 -50" stroke="white" stroke-width="2" fill="transparent" /><path d="M 376 49 A 13 13 0 1 0 376 50" stroke="white" stroke-width="2" fill="transparent" /><path d="M 376 149 A 13 13 0 1 0 376 150" stroke="white" stroke-width="2" fill="transparent" /><path d="M -350 -151 A 13 13 0 1 0 -350 -150" stroke="white" stroke-width="2" fill="transparent" /><path d="M -350 -51 A 13 13 0 1 0 -350 -50" stroke="white" stroke-width="2" fill="transparent" /><path d="M -350 49 A 13 13 0 1 0 -350 50" stroke="white" stroke-width="2" fill="transparent" /><path d="M -350 149 A 13 13 0 1 0 -350 150" stroke="white" stroke-width="2" fill="transparent" /><path d="M -400 -200 L -350 -200" stroke="white" stroke-width="2" fill="transparent" /><path d="M 400 -200 L 350 -200" stroke="white" stroke-width="2" fill="transparent" /><path d="M 400 -150 L 376 -150" stroke="white" stroke-width="2" fill="transparent" /><path d="M 400 -100 L 350 -100" stroke="white" stroke-width="2" fill="transparent" /><path d="M 400 -50 L 376 -50" stroke="white" stroke-width="2" fill="transparent" /><path d="M 400 0 L 350 0" stroke="white" stroke-width="2" fill="transparent" /><path d="M 400 50 L 376 50" stroke="white" stroke-width="2" fill="transparent" /><path d="M 400 100 L 350 100" stroke="white" stroke-width="2" fill="transparent" /><path d="M 400 150 L 376 150" stroke="white" stroke-width="2" fill="transparent" /><path d="M -400 -150 L -376 -150" stroke="white" stroke-width="2" fill="transparent" /><path d="M -400 -100 L -350 -100" stroke="white" stroke-width="2" fill="transparent" /><path d="M -400 -50 L -376 -50" stroke="white" stroke-width="2" fill="transparent" /><path d="M -400 0 L -350 0" stroke="white" stroke-width="2" fill="transparent" /><path d="M -400 50 L -376 50" stroke="white" stroke-width="2" fill="transparent" /><path d="M -400 100 L -350 100" stroke="white" stroke-width="2" fill="transparent" /><path d="M -400 150 L -376 150" stroke="white" stroke-width="2" fill="transparent" /><path d="M -350 -350 L 350 -350" stroke="white" stroke-width="2" fill="transparent" /><path d="M 350 -350 L 350 250" stroke="white" stroke-width="2" fill="transparent" /><path d="M -350 -350 L -350 250" stroke="white" stroke-width="2" fill="transparent" /><path d="M -350 250 L 350 250" stroke="white" stroke-width="2" fill="transparent" /><path d="M -10 10 L 10 -10" stroke="white" stroke-width="2" fill="transparent" /><path d="M -10 -10 L 10 10" stroke="white" stroke-width="2" fill="transparent" /><circle cx="0" cy="0" r="4" stroke="white" stroke-width="2" fill="green" /></svg>