<svg width="100&#37;" height="100&#37;" version="1.1" xmlns="http://www.w3.org/2000/svg" overflow="visible" style="background: black"> <text text-anchor="end" x = "-370" y = "-50" transform="rotate(0 -370 -50)" fill = "white" font-size = "32">?</text><text text-anchor="start" x = "-340" y = "-50" transform="rotate(0 -340 -50)" fill = "white" font-size = "24">PCIE_RXN[4]</text><text text-anchor="end" x = "-370" y = "0" transform="rotate(0 -370 0)" fill = "white" font-size = "32">?</text><text text-anchor="start" x = "-340" y = "0" transform="rotate(0 -340 0)" fill = "white" font-size = "24">PCIE_RXP[3]</text><text text-anchor="end" x = "-370" y = "49" transform="rotate(0 -370 49)" fill = "white" font-size = "32">?</text><text text-anchor="start" x = "-340" y = "50" transform="rotate(0 -340 50)" fill = "white" font-size = "24">PCIE_RXN[3]</text><text text-anchor="end" x = "-370" y = "99" transform="rotate(0 -370 99)" fill = "white" font-size = "32">?</text><text text-anchor="start" x = "-340" y = "100" transform="rotate(0 -340 100)" fill = "white" font-size = "24">PCIE_RXP[2]</text><text text-anchor="end" x = "-370" y = "-400" transform="rotate(0 -370 -400)" fill = "white" font-size = "32">?</text><text text-anchor="start" x = "-340" y = "-400" transform="rotate(0 -340 -400)" fill = "white" font-size = "24">PCIE_RXP[7]</text><text text-anchor="start" x = "370" y = "-300" transform="rotate(0 370 -300)" fill = "white" font-size = "32">?</text><text text-anchor="end" x = "340" y = "-300" transform="rotate(0 340 -300)" fill = "white" font-size = "24">PCIE_TXP[6]</text><text text-anchor="start" x = "370" y = "-400" transform="rotate(0 370 -400)" fill = "white" font-size = "32">?</text><text text-anchor="end" x = "340" y = "-400" transform="rotate(0 340 -400)" fill = "white" font-size = "24">PCIE_TXP[7]</text><text text-anchor="start" x = "370" y = "299" transform="rotate(0 370 299)" fill = "white" font-size = "32">?</text><text text-anchor="end" x = "340" y = "300" transform="rotate(0 340 300)" fill = "white" font-size = "24">PCIE_TXP[0]</text><text text-anchor="start" x = "370" y = "199" transform="rotate(0 370 199)" fill = "white" font-size = "32">?</text><text text-anchor="end" x = "340" y = "200" transform="rotate(0 340 200)" fill = "white" font-size = "24">PCIE_TXP[1]</text><text text-anchor="end" x = "-370" y = "149" transform="rotate(0 -370 149)" fill = "white" font-size = "32">?</text><text text-anchor="start" x = "-340" y = "150" transform="rotate(0 -340 150)" fill = "white" font-size = "24">PCIE_RXN[2]</text><text text-anchor="start" x = "370" y = "249" transform="rotate(0 370 249)" fill = "white" font-size = "32">?</text><text text-anchor="end" x = "340" y = "250" transform="rotate(0 340 250)" fill = "white" font-size = "24">PCIE_TXN[1]</text><text text-anchor="start" x = "370" y = "149" transform="rotate(0 370 149)" fill = "white" font-size = "32">?</text><text text-anchor="end" x = "340" y = "150" transform="rotate(0 340 150)" fill = "white" font-size = "24">PCIE_TXN[2]</text><text text-anchor="start" x = "370" y = "-200" transform="rotate(0 370 -200)" fill = "white" font-size = "32">?</text><text text-anchor="end" x = "340" y = "-200" transform="rotate(0 340 -200)" fill = "white" font-size = "24">PCIE_TXP[5]</text><text text-anchor="start" x = "370" y = "-250" transform="rotate(0 370 -250)" fill = "white" font-size = "32">?</text><text text-anchor="end" x = "340" y = "-250" transform="rotate(0 340 -250)" fill = "white" font-size = "24">PCIE_TXN[6]</text><text text-anchor="start" x = "370" y = "-350" transform="rotate(0 370 -350)" fill = "white" font-size = "32">?</text><text text-anchor="end" x = "340" y = "-350" transform="rotate(0 340 -350)" fill = "white" font-size = "24">PCIE_TXN[7]</text><text text-anchor="end" x = "-370" y = "-150" transform="rotate(0 -370 -150)" fill = "white" font-size = "32">?</text><text text-anchor="start" x = "-340" y = "-150" transform="rotate(0 -340 -150)" fill = "white" font-size = "24">PCIE_RXN[5]</text><text text-anchor="end" x = "-370" y = "-200" transform="rotate(0 -370 -200)" fill = "white" font-size = "32">?</text><text text-anchor="start" x = "-340" y = "-200" transform="rotate(0 -340 -200)" fill = "white" font-size = "24">PCIE_RXP[5]</text><text text-anchor="end" x = "-370" y = "-100" transform="rotate(0 -370 -100)" fill = "white" font-size = "32">?</text><text text-anchor="start" x = "-340" y = "-100" transform="rotate(0 -340 -100)" fill = "white" font-size = "24">PCIE_RXP[4]</text><text text-anchor="end" x = "-370" y = "199" transform="rotate(0 -370 199)" fill = "white" font-size = "32">?</text><text text-anchor="start" x = "-340" y = "200" transform="rotate(0 -340 200)" fill = "white" font-size = "24">PCIE_RXP[1]</text><text text-anchor="end" x = "-370" y = "249" transform="rotate(0 -370 249)" fill = "white" font-size = "32">?</text><text text-anchor="start" x = "-340" y = "250" transform="rotate(0 -340 250)" fill = "white" font-size = "24">PCIE_RXN[1]</text><text text-anchor="end" x = "-370" y = "299" transform="rotate(0 -370 299)" fill = "white" font-size = "32">?</text><text text-anchor="start" x = "-340" y = "300" transform="rotate(0 -340 300)" fill = "white" font-size = "24">PCIE_RXP[0]</text><text text-anchor="end" x = "-370" y = "349" transform="rotate(0 -370 349)" fill = "white" font-size = "32">?</text><text text-anchor="start" x = "-340" y = "350" transform="rotate(0 -340 350)" fill = "white" font-size = "24">PCIE_RXN[0]</text><text text-anchor="start" x = "370" y = "99" transform="rotate(0 370 99)" fill = "white" font-size = "32">?</text><text text-anchor="end" x = "340" y = "100" transform="rotate(0 340 100)" fill = "white" font-size = "24">PCIE_TXP[2]</text><text text-anchor="start" x = "370" y = "49" transform="rotate(0 370 49)" fill = "white" font-size = "32">?</text><text text-anchor="end" x = "340" y = "50" transform="rotate(0 340 50)" fill = "white" font-size = "24">PCIE_TXN[3]</text><text text-anchor="start" x = "370" y = "0" transform="rotate(0 370 0)" fill = "white" font-size = "32">?</text><text text-anchor="end" x = "340" y = "0" transform="rotate(0 340 0)" fill = "white" font-size = "24">PCIE_TXP[3]</text><text text-anchor="start" x = "370" y = "-50" transform="rotate(0 370 -50)" fill = "white" font-size = "32">?</text><text text-anchor="end" x = "340" y = "-50" transform="rotate(0 340 -50)" fill = "white" font-size = "24">PCIE_TXN[4]</text><text text-anchor="start" x = "370" y = "-100" transform="rotate(0 370 -100)" fill = "white" font-size = "32">?</text><text text-anchor="end" x = "340" y = "-100" transform="rotate(0 340 -100)" fill = "white" font-size = "24">PCIE_TXP[4]</text><text text-anchor="start" x = "370" y = "-150" transform="rotate(0 370 -150)" fill = "white" font-size = "32">?</text><text text-anchor="end" x = "340" y = "-150" transform="rotate(0 340 -150)" fill = "white" font-size = "24">PCIE_TXN[5]</text><text text-anchor="start" x = "370" y = "349" transform="rotate(0 370 349)" fill = "white" font-size = "32">?</text><text text-anchor="end" x = "340" y = "350" transform="rotate(0 340 350)" fill = "white" font-size = "24">PCIE_TXN[0]</text><text text-anchor="end" x = "-370" y = "-250" transform="rotate(0 -370 -250)" fill = "white" font-size = "32">?</text><text text-anchor="start" x = "-340" y = "-250" transform="rotate(0 -340 -250)" fill = "white" font-size = "24">PCIE_RXN[6]</text><text text-anchor="end" x = "-370" y = "-300" transform="rotate(0 -370 -300)" fill = "white" font-size = "32">?</text><text text-anchor="start" x = "-340" y = "-300" transform="rotate(0 -340 -300)" fill = "white" font-size = "24">PCIE_RXP[6]</text><text text-anchor="end" x = "-370" y = "-350" transform="rotate(0 -370 -350)" fill = "white" font-size = "32">?</text><text text-anchor="start" x = "-340" y = "-350" transform="rotate(0 -340 -350)" fill = "white" font-size = "24">PCIE_RXN[7]</text><text text-anchor="middle" x = "0" y = "-570" transform="rotate(0 0 -570)" fill = "blue" font-size = "48">?</text><rect x="-350" y="-550" width="700" height="1050" stroke="yellow" stroke-dasharray="5,5" stroke-width="3" fill="transparent" /> <text text-anchor="middle" x = "0" y = "480" transform="rotate(0 0 480)" fill = "white" font-size = "32">Symbol 8 of 10</text><text text-anchor="start" x = "-325" y = "-480" transform="rotate(0 -325 -480)" fill = "purple" font-size = "48">VIPER_ASIC</text><text text-anchor="start" x = "-325" y = "430" transform="rotate(0 -325 430)" fill = "purple" font-size = "48">PCIE PORTS</text><text text-anchor="end" x = "-425" y = "-50" transform="rotate(0 -425 -50)" fill = "white" font-size = "32">PCIE_RXN&lt;4&gt;</text><circle cx="-400" cy="-50" r="5" stroke="yellow" stroke-width="3" fill="red" /> <text text-anchor="end" x = "-425" y = "0" transform="rotate(0 -425 0)" fill = "white" font-size = "32">PCIE_RXP&lt;3&gt;</text><circle cx="-400" cy="0" r="5" stroke="yellow" stroke-width="3" fill="red" /> <text text-anchor="end" x = "-425" y = "50" transform="rotate(0 -425 50)" fill = "white" font-size = "32">PCIE_RXN&lt;3&gt;</text><circle cx="-400" cy="50" r="5" stroke="yellow" stroke-width="3" fill="red" /> <text text-anchor="end" x = "-425" y = "100" transform="rotate(0 -425 100)" fill = "white" font-size = "32">PCIE_RXP&lt;2&gt;</text><circle cx="-400" cy="100" r="5" stroke="yellow" stroke-width="3" fill="red" /> <text text-anchor="end" x = "-425" y = "-400" transform="rotate(0 -425 -400)" fill = "white" font-size = "32">PCIE_RXP&lt;7&gt;</text><circle cx="-400" cy="-400" r="5" stroke="yellow" stroke-width="3" fill="red" /> <text text-anchor="start" x = "425" y = "-300" transform="rotate(0 425 -300)" fill = "white" font-size = "32">PCIE_TXP&lt;6&gt;</text><circle cx="400" cy="-300" r="5" stroke="yellow" stroke-width="3" fill="red" /> <text text-anchor="start" x = "425" y = "-400" transform="rotate(0 425 -400)" fill = "white" font-size = "32">PCIE_TXP&lt;7&gt;</text><circle cx="400" cy="-400" r="5" stroke="yellow" stroke-width="3" fill="red" /> <text text-anchor="start" x = "425" y = "300" transform="rotate(0 425 300)" fill = "white" font-size = "32">PCIE_TXP&lt;0&gt;</text><circle cx="400" cy="300" r="5" stroke="yellow" stroke-width="3" fill="red" /> <text text-anchor="start" x = "425" y = "200" transform="rotate(0 425 200)" fill = "white" font-size = "32">PCIE_TXP&lt;1&gt;</text><circle cx="400" cy="200" r="5" stroke="yellow" stroke-width="3" fill="red" /> <text text-anchor="end" x = "-425" y = "150" transform="rotate(0 -425 150)" fill = "white" font-size = "32">PCIE_RXN&lt;2&gt;</text><circle cx="-400" cy="150" r="5" stroke="yellow" stroke-width="3" fill="red" /> <text text-anchor="start" x = "425" y = "250" transform="rotate(0 425 250)" fill = "white" font-size = "32">PCIE_TXN&lt;1&gt;</text><circle cx="400" cy="250" r="5" stroke="yellow" stroke-width="3" fill="red" /> <text text-anchor="start" x = "425" y = "150" transform="rotate(0 425 150)" fill = "white" font-size = "32">PCIE_TXN&lt;2&gt;</text><circle cx="400" cy="150" r="5" stroke="yellow" stroke-width="3" fill="red" /> <text text-anchor="start" x = "425" y = "-200" transform="rotate(0 425 -200)" fill = "white" font-size = "32">PCIE_TXP&lt;5&gt;</text><circle cx="400" cy="-200" r="5" stroke="yellow" stroke-width="3" fill="red" /> <text text-anchor="start" x = "425" y = "-250" transform="rotate(0 425 -250)" fill = "white" font-size = "32">PCIE_TXN&lt;6&gt;</text><circle cx="400" cy="-250" r="5" stroke="yellow" stroke-width="3" fill="red" /> <text text-anchor="start" x = "425" y = "-350" transform="rotate(0 425 -350)" fill = "white" font-size = "32">PCIE_TXN&lt;7&gt;</text><circle cx="400" cy="-350" r="5" stroke="yellow" stroke-width="3" fill="red" /> <text text-anchor="end" x = "-425" y = "-150" transform="rotate(0 -425 -150)" fill = "white" font-size = "32">PCIE_RXN&lt;5&gt;</text><circle cx="-400" cy="-150" r="5" stroke="yellow" stroke-width="3" fill="red" /> <text text-anchor="end" x = "-425" y = "-200" transform="rotate(0 -425 -200)" fill = "white" font-size = "32">PCIE_RXP&lt;5&gt;</text><circle cx="-400" cy="-200" r="5" stroke="yellow" stroke-width="3" fill="red" /> <text text-anchor="end" x = "-425" y = "-100" transform="rotate(0 -425 -100)" fill = "white" font-size = "32">PCIE_RXP&lt;4&gt;</text><circle cx="-400" cy="-100" r="5" stroke="yellow" stroke-width="3" fill="red" /> <text text-anchor="end" x = "-425" y = "200" transform="rotate(0 -425 200)" fill = "white" font-size = "32">PCIE_RXP&lt;1&gt;</text><circle cx="-400" cy="200" r="5" stroke="yellow" stroke-width="3" fill="red" /> <text text-anchor="end" x = "-425" y = "250" transform="rotate(0 -425 250)" fill = "white" font-size = "32">PCIE_RXN&lt;1&gt;</text><circle cx="-400" cy="250" r="5" stroke="yellow" stroke-width="3" fill="red" /> <text text-anchor="end" x = "-425" y = "300" transform="rotate(0 -425 300)" fill = "white" font-size = "32">PCIE_RXP&lt;0&gt;</text><circle cx="-400" cy="300" r="5" stroke="yellow" stroke-width="3" fill="red" /> <text text-anchor="end" x = "-425" y = "350" transform="rotate(0 -425 350)" fill = "white" font-size = "32">PCIE_RXN&lt;0&gt;</text><circle cx="-400" cy="350" r="5" stroke="yellow" stroke-width="3" fill="red" /> <text text-anchor="start" x = "425" y = "100" transform="rotate(0 425 100)" fill = "white" font-size = "32">PCIE_TXP&lt;2&gt;</text><circle cx="400" cy="100" r="5" stroke="yellow" stroke-width="3" fill="red" /> <text text-anchor="start" x = "425" y = "50" transform="rotate(0 425 50)" fill = "white" font-size = "32">PCIE_TXN&lt;3&gt;</text><circle cx="400" cy="50" r="5" stroke="yellow" stroke-width="3" fill="red" /> <text text-anchor="start" x = "425" y = "0" transform="rotate(0 425 0)" fill = "white" font-size = "32">PCIE_TXP&lt;3&gt;</text><circle cx="400" cy="0" r="5" stroke="yellow" stroke-width="3" fill="red" /> <text text-anchor="start" x = "425" y = "-50" transform="rotate(0 425 -50)" fill = "white" font-size = "32">PCIE_TXN&lt;4&gt;</text><circle cx="400" cy="-50" r="5" stroke="yellow" stroke-width="3" fill="red" /> <text text-anchor="start" x = "425" y = "-100" transform="rotate(0 425 -100)" fill = "white" font-size = "32">PCIE_TXP&lt;4&gt;</text><circle cx="400" cy="-100" r="5" stroke="yellow" stroke-width="3" fill="red" /> <text text-anchor="start" x = "425" y = "-150" transform="rotate(0 425 -150)" fill = "white" font-size = "32">PCIE_TXN&lt;5&gt;</text><circle cx="400" cy="-150" r="5" stroke="yellow" stroke-width="3" fill="red" /> <text text-anchor="start" x = "425" y = "350" transform="rotate(0 425 350)" fill = "white" font-size = "32">PCIE_TXN&lt;0&gt;</text><circle cx="400" cy="350" r="5" stroke="yellow" stroke-width="3" fill="red" /> <text text-anchor="end" x = "-425" y = "-250" transform="rotate(0 -425 -250)" fill = "white" font-size = "32">PCIE_RXN&lt;6&gt;</text><circle cx="-400" cy="-250" r="5" stroke="yellow" stroke-width="3" fill="red" /> <text text-anchor="end" x = "-425" y = "-300" transform="rotate(0 -425 -300)" fill = "white" font-size = "32">PCIE_RXP&lt;6&gt;</text><circle cx="-400" cy="-300" r="5" stroke="yellow" stroke-width="3" fill="red" /> <text text-anchor="end" x = "-425" y = "-350" transform="rotate(0 -425 -350)" fill = "white" font-size = "32">PCIE_RXN&lt;7&gt;</text><circle cx="-400" cy="-350" r="5" stroke="yellow" stroke-width="3" fill="red" /> <path d="M -350 -51 A 13 13 0 1 0 -350 -50" stroke="white" stroke-width="2" fill="transparent" /><path d="M -350 49 A 13 13 0 1 0 -350 50" stroke="white" stroke-width="2" fill="transparent" /><path d="M -350 149 A 13 13 0 1 0 -350 150" stroke="white" stroke-width="2" fill="transparent" /><path d="M 376 249 A 13 13 0 1 0 376 250" stroke="white" stroke-width="2" fill="transparent" /><path d="M 376 149 A 13 13 0 1 0 376 150" stroke="white" stroke-width="2" fill="transparent" /><path d="M 376 -251 A 13 13 0 1 0 376 -250" stroke="white" stroke-width="2" fill="transparent" /><path d="M 376 -351 A 13 13 0 1 0 376 -350" stroke="white" stroke-width="2" fill="transparent" /><path d="M -350 -151 A 13 13 0 1 0 -350 -150" stroke="white" stroke-width="2" fill="transparent" /><path d="M -350 249 A 13 13 0 1 0 -350 250" stroke="white" stroke-width="2" fill="transparent" /><path d="M -350 349 A 13 13 0 1 0 -350 350" stroke="white" stroke-width="2" fill="transparent" /><path d="M 376 49 A 13 13 0 1 0 376 50" stroke="white" stroke-width="2" fill="transparent" /><path d="M 376 -51 A 13 13 0 1 0 376 -50" stroke="white" stroke-width="2" fill="transparent" /><path d="M 376 -151 A 13 13 0 1 0 376 -150" stroke="white" stroke-width="2" fill="transparent" /><path d="M 376 349 A 13 13 0 1 0 376 350" stroke="white" stroke-width="2" fill="transparent" /><path d="M -350 -251 A 13 13 0 1 0 -350 -250" stroke="white" stroke-width="2" fill="transparent" /><path d="M -350 -351 A 13 13 0 1 0 -350 -350" stroke="white" stroke-width="2" fill="transparent" /><path d="M -400 -50 L -376 -50" stroke="white" stroke-width="2" fill="transparent" /><path d="M -400 0 L -350 0" stroke="white" stroke-width="2" fill="transparent" /><path d="M -400 50 L -376 50" stroke="white" stroke-width="2" fill="transparent" /><path d="M -400 100 L -350 100" stroke="white" stroke-width="2" fill="transparent" /><path d="M -400 -400 L -350 -400" stroke="white" stroke-width="2" fill="transparent" /><path d="M 400 -300 L 350 -300" stroke="white" stroke-width="2" fill="transparent" /><path d="M 400 -400 L 350 -400" stroke="white" stroke-width="2" fill="transparent" /><path d="M 400 300 L 350 300" stroke="white" stroke-width="2" fill="transparent" /><path d="M 400 200 L 350 200" stroke="white" stroke-width="2" fill="transparent" /><path d="M -400 150 L -376 150" stroke="white" stroke-width="2" fill="transparent" /><path d="M 400 250 L 376 250" stroke="white" stroke-width="2" fill="transparent" /><path d="M 400 150 L 376 150" stroke="white" stroke-width="2" fill="transparent" /><path d="M 400 -200 L 350 -200" stroke="white" stroke-width="2" fill="transparent" /><path d="M 400 -250 L 376 -250" stroke="white" stroke-width="2" fill="transparent" /><path d="M 400 -350 L 376 -350" stroke="white" stroke-width="2" fill="transparent" /><path d="M -400 -150 L -376 -150" stroke="white" stroke-width="2" fill="transparent" /><path d="M -400 -200 L -350 -200" stroke="white" stroke-width="2" fill="transparent" /><path d="M -400 -100 L -350 -100" stroke="white" stroke-width="2" fill="transparent" /><path d="M -400 200 L -350 200" stroke="white" stroke-width="2" fill="transparent" /><path d="M -400 250 L -376 250" stroke="white" stroke-width="2" fill="transparent" /><path d="M -400 300 L -350 300" stroke="white" stroke-width="2" fill="transparent" /><path d="M -400 350 L -376 350" stroke="white" stroke-width="2" fill="transparent" /><path d="M 400 100 L 350 100" stroke="white" stroke-width="2" fill="transparent" /><path d="M 400 50 L 376 50" stroke="white" stroke-width="2" fill="transparent" /><path d="M 400 0 L 350 0" stroke="white" stroke-width="2" fill="transparent" /><path d="M 400 -50 L 376 -50" stroke="white" stroke-width="2" fill="transparent" /><path d="M 400 -100 L 350 -100" stroke="white" stroke-width="2" fill="transparent" /><path d="M 400 -150 L 376 -150" stroke="white" stroke-width="2" fill="transparent" /><path d="M 400 350 L 376 350" stroke="white" stroke-width="2" fill="transparent" /><path d="M -400 -250 L -376 -250" stroke="white" stroke-width="2" fill="transparent" /><path d="M -400 -300 L -350 -300" stroke="white" stroke-width="2" fill="transparent" /><path d="M -400 -350 L -376 -350" stroke="white" stroke-width="2" fill="transparent" /><path d="M 350 -550 L 350 500" stroke="white" stroke-width="2" fill="transparent" /><path d="M -350 500 L 350 500" stroke="white" stroke-width="2" fill="transparent" /><path d="M -350 -550 L 350 -550" stroke="white" stroke-width="2" fill="transparent" /><path d="M -350 -550 L -350 500" stroke="white" stroke-width="2" fill="transparent" /><path d="M -10 10 L 10 -10" stroke="white" stroke-width="2" fill="transparent" /><path d="M -10 -10 L 10 10" stroke="white" stroke-width="2" fill="transparent" /><circle cx="0" cy="0" r="4" stroke="white" stroke-width="2" fill="green" /></svg>