<svg width="100&#37;" height="100&#37;" version="1.1" xmlns="http://www.w3.org/2000/svg" overflow="visible" style="background: black"> <text text-anchor="middle" x = "0" y = "-220" transform="rotate(0 0 -220)" fill = "blue" font-size = "48">?</text><rect x="-150" y="-200" width="300" height="400" stroke="yellow" stroke-dasharray="5,5" stroke-width="3" fill="transparent" /> <text text-anchor="end" x = "50" y = "219" transform="rotate(270 50 219)" fill = "white" font-size = "32">?</text><text text-anchor="start" x = "49" y = "190" transform="rotate(270 49 190)" fill = "white" font-size = "24">G3</text><text text-anchor="end" x = "0" y = "219" transform="rotate(270 0 219)" fill = "white" font-size = "32">?</text><text text-anchor="start" x = "0" y = "190" transform="rotate(270 0 190)" fill = "white" font-size = "24">G2</text><text text-anchor="end" x = "-50" y = "219" transform="rotate(270 -50 219)" fill = "white" font-size = "32">?</text><text text-anchor="start" x = "-50" y = "190" transform="rotate(270 -50 190)" fill = "white" font-size = "24">G1</text><text text-anchor="end" x = "-170" y = "99" transform="rotate(0 -170 99)" fill = "white" font-size = "32">?</text><text text-anchor="start" x = "-140" y = "99" transform="rotate(0 -140 99)" fill = "white" font-size = "24">DP_B-</text><text text-anchor="end" x = "-170" y = "49" transform="rotate(0 -170 49)" fill = "white" font-size = "32">?</text><text text-anchor="start" x = "-140" y = "50" transform="rotate(0 -140 50)" fill = "white" font-size = "24">DP_B+</text><text text-anchor="end" x = "-170" y = "0" transform="rotate(0 -170 0)" fill = "white" font-size = "32">?</text><text text-anchor="start" x = "-140" y = "0" transform="rotate(0 -140 0)" fill = "white" font-size = "24">DP_A-</text><text text-anchor="end" x = "-170" y = "-50" transform="rotate(0 -170 -50)" fill = "white" font-size = "32">?</text><text text-anchor="start" x = "-140" y = "-50" transform="rotate(0 -140 -50)" fill = "white" font-size = "24">DP_A+</text><text text-anchor="start" x = "-125" y = "-125" transform="rotate(0 -125 -125)" fill = "purple" font-size = "48">SATA</text><text text-anchor="end" x = "50" y = "275" transform="rotate(270 50 275)" fill = "white" font-size = "32">G3</text><circle cx="50" cy="250" r="5" stroke="yellow" stroke-width="3" fill="red" /> <text text-anchor="end" x = "0" y = "275" transform="rotate(270 0 275)" fill = "white" font-size = "32">G2</text><circle cx="0" cy="250" r="5" stroke="yellow" stroke-width="3" fill="red" /> <text text-anchor="end" x = "-50" y = "275" transform="rotate(270 -50 275)" fill = "white" font-size = "32">G1</text><circle cx="-50" cy="250" r="5" stroke="yellow" stroke-width="3" fill="red" /> <text text-anchor="end" x = "-225" y = "100" transform="rotate(0 -225 100)" fill = "white" font-size = "32">DP_BN</text><circle cx="-200" cy="100" r="5" stroke="yellow" stroke-width="3" fill="red" /> <text text-anchor="end" x = "-225" y = "50" transform="rotate(0 -225 50)" fill = "white" font-size = "32">DP_BP</text><circle cx="-200" cy="50" r="5" stroke="yellow" stroke-width="3" fill="red" /> <text text-anchor="end" x = "-225" y = "0" transform="rotate(0 -225 0)" fill = "white" font-size = "32">DP_AN</text><circle cx="-200" cy="0" r="5" stroke="yellow" stroke-width="3" fill="red" /> <text text-anchor="end" x = "-225" y = "-50" transform="rotate(0 -225 -50)" fill = "white" font-size = "32">DP_AP</text><circle cx="-200" cy="-50" r="5" stroke="yellow" stroke-width="3" fill="red" /> <path d="M 150 -200 L 150 200" stroke="white" stroke-width="2" fill="transparent" /><path d="M -150 -200 L -150 200" stroke="white" stroke-width="2" fill="transparent" /><path d="M -150 200 L 150 200" stroke="white" stroke-width="2" fill="transparent" /><path d="M -150 -200 L 150 -200" stroke="white" stroke-width="2" fill="transparent" /><path d="M 50 250 L 50 200" stroke="white" stroke-width="2" fill="transparent" /><path d="M 0 250 L 0 200" stroke="white" stroke-width="2" fill="transparent" /><path d="M -50 250 L -50 200" stroke="white" stroke-width="2" fill="transparent" /><path d="M -200 100 L -150 100" stroke="white" stroke-width="2" fill="transparent" /><path d="M -200 50 L -150 50" stroke="white" stroke-width="2" fill="transparent" /><path d="M -200 0 L -150 0" stroke="white" stroke-width="2" fill="transparent" /><path d="M -200 -50 L -150 -50" stroke="white" stroke-width="2" fill="transparent" /><path d="M -10 10 L 10 -10" stroke="white" stroke-width="2" fill="transparent" /><path d="M -10 -10 L 10 10" stroke="white" stroke-width="2" fill="transparent" /><circle cx="0" cy="0" r="4" stroke="white" stroke-width="2" fill="green" /></svg>