<svg width="100&#37;" height="100&#37;" version="1.1" xmlns="http://www.w3.org/2000/svg" overflow="visible" style="background: black"> <text text-anchor="start" x = "-95" y = "-170" transform="rotate(0 -95 -170)" fill = "white" font-size = "16">MSB</text><text text-anchor="start" x = "-95" y = "235" transform="rotate(0 -95 235)" fill = "white" font-size = "16">LSB</text><text text-anchor="start" x = "-550" y = "-200" transform="rotate(0 -550 -200)" fill = "white" font-size = "41">A</text><circle cx="-100" cy="-200" r="5" stroke="yellow" stroke-width="3" fill="transparent" /> <text text-anchor="start" x = "-550" y = "-150" transform="rotate(0 -550 -150)" fill = "white" font-size = "41">B</text><circle cx="-100" cy="-150" r="5" stroke="yellow" stroke-width="3" fill="transparent" /> <text text-anchor="start" x = "-550" y = "-100" transform="rotate(0 -550 -100)" fill = "white" font-size = "41">C</text><circle cx="-100" cy="-100" r="5" stroke="yellow" stroke-width="3" fill="transparent" /> <text text-anchor="start" x = "-550" y = "-50" transform="rotate(0 -550 -50)" fill = "white" font-size = "41">D</text><circle cx="-100" cy="-50" r="5" stroke="yellow" stroke-width="3" fill="transparent" /> <text text-anchor="start" x = "-550" y = "0" transform="rotate(0 -550 0)" fill = "white" font-size = "41">E</text><circle cx="-100" cy="0" r="5" stroke="yellow" stroke-width="3" fill="transparent" /> <text text-anchor="start" x = "-550" y = "50" transform="rotate(0 -550 50)" fill = "white" font-size = "41">F</text><circle cx="-100" cy="50" r="5" stroke="yellow" stroke-width="3" fill="transparent" /> <text text-anchor="start" x = "-550" y = "100" transform="rotate(0 -550 100)" fill = "white" font-size = "41">G</text><circle cx="-100" cy="100" r="5" stroke="yellow" stroke-width="3" fill="transparent" /> <text text-anchor="start" x = "-550" y = "150" transform="rotate(0 -550 150)" fill = "white" font-size = "41">H</text><circle cx="-100" cy="150" r="5" stroke="yellow" stroke-width="3" fill="transparent" /> <text text-anchor="start" x = "-550" y = "200" transform="rotate(0 -550 200)" fill = "white" font-size = "41">I</text><circle cx="-100" cy="200" r="5" stroke="yellow" stroke-width="3" fill="transparent" /> <text text-anchor="start" x = "-550" y = "250" transform="rotate(0 -550 250)" fill = "white" font-size = "41">J</text><circle cx="-100" cy="250" r="5" stroke="yellow" stroke-width="3" fill="transparent" /> <text text-anchor="start" x = "100" y = "0" transform="rotate(0 100 0)" fill = "white" font-size = "41">Y</text><circle cx="50" cy="25" r="5" stroke="yellow" stroke-width="3" fill="transparent" /> <path d="M -100 0 L -5 0" stroke="white" stroke-width="2" fill="transparent" /><path d="M -100 -200 L -50 -200" stroke="white" stroke-width="2" fill="transparent" /><path d="M -100 -150 L -40 -150" stroke="white" stroke-width="2" fill="transparent" /><path d="M -100 -100 L -30 -100" stroke="white" stroke-width="2" fill="transparent" /><path d="M -100 -50 L -20 -50" stroke="white" stroke-width="2" fill="transparent" /><path d="M -100 200 L -40 200" stroke="white" stroke-width="2" fill="transparent" /><path d="M -100 100 L -15 100" stroke="white" stroke-width="2" fill="transparent" /><path d="M -100 50 L -5 50" stroke="white" stroke-width="2" fill="transparent" /><path d="M -100 150 L -30 150" stroke="white" stroke-width="2" fill="transparent" /><path d="M -100 250 L -50 250" stroke="white" stroke-width="2" fill="transparent" /><path d="M -50 250 L 0 25" stroke="white" stroke-width="2" fill="transparent" /><path d="M -50 -200 L 0 25" stroke="white" stroke-width="2" fill="transparent" /><path d="M 0 25 L 50 25" stroke="white" stroke-width="2" fill="transparent" /><path d="M -10 10 L 10 -10" stroke="white" stroke-width="2" fill="transparent" /><path d="M -10 -10 L 10 10" stroke="white" stroke-width="2" fill="transparent" /><circle cx="0" cy="0" r="4" stroke="white" stroke-width="2" fill="green" /><rect x="-50" y="-200" width="50" height="450" stroke="yellow" stroke-dasharray="5,5" stroke-width="3" fill="transparent" /></svg>