<svg width="100&#37;" height="100&#37;" version="1.1" xmlns="http://www.w3.org/2000/svg" overflow="visible" style="background: black"> <text text-anchor="start" x = "80" y = "430" transform="rotate(0 80 430)" fill = "white" font-size = "16">LSB</text><text text-anchor="start" x = "80" y = "-420" transform="rotate(0 80 -420)" fill = "white" font-size = "16">MSB</text><text text-anchor="start" x = "150" y = "-450" transform="rotate(0 150 -450)" fill = "white" font-size = "41">A</text><circle cx="100" cy="-450" r="5" stroke="yellow" stroke-width="3" fill="transparent" /> <text text-anchor="start" x = "150" y = "-350" transform="rotate(0 150 -350)" fill = "white" font-size = "41">B</text><circle cx="100" cy="-350" r="5" stroke="yellow" stroke-width="3" fill="transparent" /> <text text-anchor="start" x = "150" y = "-250" transform="rotate(0 150 -250)" fill = "white" font-size = "41">C</text><circle cx="100" cy="-250" r="5" stroke="yellow" stroke-width="3" fill="transparent" /> <text text-anchor="start" x = "150" y = "-150" transform="rotate(0 150 -150)" fill = "white" font-size = "41">D</text><circle cx="100" cy="-150" r="5" stroke="yellow" stroke-width="3" fill="transparent" /> <text text-anchor="start" x = "150" y = "-50" transform="rotate(0 150 -50)" fill = "white" font-size = "41">E</text><circle cx="100" cy="-50" r="5" stroke="yellow" stroke-width="3" fill="transparent" /> <text text-anchor="start" x = "150" y = "50" transform="rotate(0 150 50)" fill = "white" font-size = "41">F</text><circle cx="100" cy="50" r="5" stroke="yellow" stroke-width="3" fill="transparent" /> <text text-anchor="start" x = "150" y = "150" transform="rotate(0 150 150)" fill = "white" font-size = "41">G</text><circle cx="100" cy="150" r="5" stroke="yellow" stroke-width="3" fill="transparent" /> <text text-anchor="start" x = "150" y = "250" transform="rotate(0 150 250)" fill = "white" font-size = "41">H</text><circle cx="100" cy="250" r="5" stroke="yellow" stroke-width="3" fill="transparent" /> <text text-anchor="start" x = "150" y = "350" transform="rotate(0 150 350)" fill = "white" font-size = "41">I</text><circle cx="100" cy="350" r="5" stroke="yellow" stroke-width="3" fill="transparent" /> <text text-anchor="start" x = "150" y = "450" transform="rotate(0 150 450)" fill = "white" font-size = "41">J</text><circle cx="100" cy="450" r="5" stroke="yellow" stroke-width="3" fill="transparent" /> <text text-anchor="start" x = "-470" y = "0" transform="rotate(0 -470 0)" fill = "white" font-size = "41">Y</text><circle cx="-50" cy="0" r="5" stroke="yellow" stroke-width="3" fill="transparent" /> <path d="M 100 -50 L 10 -50" stroke="white" stroke-width="2" fill="transparent" /><path d="M 100 -450 L 75 -450" stroke="white" stroke-width="2" fill="transparent" /><path d="M 100 -350 L 60 -350" stroke="white" stroke-width="2" fill="transparent" /><path d="M 100 -250 L 45 -250" stroke="white" stroke-width="2" fill="transparent" /><path d="M 100 -150 L 25 -150" stroke="white" stroke-width="2" fill="transparent" /><path d="M 100 350 L 60 350" stroke="white" stroke-width="2" fill="transparent" /><path d="M 100 150 L 25 150" stroke="white" stroke-width="2" fill="transparent" /><path d="M 100 50 L 10 50" stroke="white" stroke-width="2" fill="transparent" /><path d="M 100 250 L 40 250" stroke="white" stroke-width="2" fill="transparent" /><path d="M 100 450 L 75 450" stroke="white" stroke-width="2" fill="transparent" /><path d="M 0 0 L -50 0" stroke="white" stroke-width="2" fill="transparent" /><path d="M 75 -450 L 0 0" stroke="white" stroke-width="2" fill="transparent" /><path d="M 75 450 L 0 0" stroke="white" stroke-width="2" fill="transparent" /><path d="M -10 10 L 10 -10" stroke="white" stroke-width="2" fill="transparent" /><path d="M -10 -10 L 10 10" stroke="white" stroke-width="2" fill="transparent" /><circle cx="0" cy="0" r="4" stroke="white" stroke-width="2" fill="green" /><rect x="0" y="-450" width="75" height="900" stroke="yellow" stroke-dasharray="5,5" stroke-width="3" fill="transparent" /></svg>