<svg width="100&#37;" height="100&#37;" version="1.1" xmlns="http://www.w3.org/2000/svg" overflow="visible" style="background: black"> <text text-anchor="start" x = "45" y = "-25" transform="rotate(0 45 -25)" fill = "white" font-size = "16">MSB</text><text text-anchor="start" x = "45" y = "40" transform="rotate(0 45 40)" fill = "white" font-size = "16">LSB</text><text text-anchor="start" x = "150" y = "-50" transform="rotate(0 150 -50)" fill = "white" font-size = "41">A</text><circle cx="100" cy="-50" r="5" stroke="yellow" stroke-width="3" fill="transparent" /> <text text-anchor="start" x = "150" y = "0" transform="rotate(0 150 0)" fill = "white" font-size = "41">B</text><circle cx="100" cy="0" r="5" stroke="yellow" stroke-width="3" fill="transparent" /> <text text-anchor="start" x = "150" y = "50" transform="rotate(0 150 50)" fill = "white" font-size = "41">C</text><circle cx="100" cy="50" r="5" stroke="yellow" stroke-width="3" fill="transparent" /> <text text-anchor="start" x = "-475" y = "0" transform="rotate(0 -475 0)" fill = "white" font-size = "41">Y</text><circle cx="-50" cy="0" r="5" stroke="yellow" stroke-width="3" fill="transparent" /> <path d="M 50 50 L 100 50" stroke="white" stroke-width="2" fill="transparent" /><path d="M 0 0 L 50 50" stroke="white" stroke-width="2" fill="transparent" /><path d="M 50 -50 L 100 -50" stroke="white" stroke-width="2" fill="transparent" /><path d="M 0 0 L 50 -50" stroke="white" stroke-width="2" fill="transparent" /><path d="M 100 0 L -50 0" stroke="white" stroke-width="2" fill="transparent" /><path d="M -10 10 L 10 -10" stroke="white" stroke-width="2" fill="transparent" /><path d="M -10 -10 L 10 10" stroke="white" stroke-width="2" fill="transparent" /><circle cx="0" cy="0" r="4" stroke="white" stroke-width="2" fill="green" /><rect x="0" y="-50" width="50" height="100" stroke="yellow" stroke-dasharray="5,5" stroke-width="3" fill="transparent" /></svg>