<svg width="100&#37;" height="100&#37;" version="1.1" xmlns="http://www.w3.org/2000/svg" overflow="visible" style="background: black"> <text text-anchor="start" x = "-90" y = "85" transform="rotate(0 -90 85)" fill = "white" font-size = "16">LSB</text><text text-anchor="start" x = "-90" y = "-70" transform="rotate(0 -90 -70)" fill = "white" font-size = "16">MSB</text><text text-anchor="start" x = "-500" y = "-100" transform="rotate(0 -500 -100)" fill = "white" font-size = "41">A</text><circle cx="-100" cy="-100" r="5" stroke="yellow" stroke-width="3" fill="transparent" /> <text text-anchor="start" x = "-500" y = "0" transform="rotate(0 -500 0)" fill = "white" font-size = "41">B</text><circle cx="-100" cy="0" r="5" stroke="yellow" stroke-width="3" fill="transparent" /> <text text-anchor="start" x = "-500" y = "100" transform="rotate(0 -500 100)" fill = "white" font-size = "41">C</text><circle cx="-100" cy="100" r="5" stroke="yellow" stroke-width="3" fill="transparent" /> <text text-anchor="start" x = "100" y = "0" transform="rotate(0 100 0)" fill = "white" font-size = "41">Y</text><circle cx="50" cy="0" r="5" stroke="yellow" stroke-width="3" fill="transparent" /> <path d="M 0 0 L -50 -100" stroke="white" stroke-width="2" fill="transparent" /><path d="M -50 -100 L -100 -100" stroke="white" stroke-width="2" fill="transparent" /><path d="M 0 0 L -50 100" stroke="white" stroke-width="2" fill="transparent" /><path d="M -50 100 L -100 100" stroke="white" stroke-width="2" fill="transparent" /><path d="M 50 0 L -100 0" stroke="white" stroke-width="2" fill="transparent" /><path d="M -10 10 L 10 -10" stroke="white" stroke-width="2" fill="transparent" /><path d="M -10 -10 L 10 10" stroke="white" stroke-width="2" fill="transparent" /><circle cx="0" cy="0" r="4" stroke="white" stroke-width="2" fill="green" /><rect x="-50" y="-100" width="50" height="200" stroke="yellow" stroke-dasharray="5,5" stroke-width="3" fill="transparent" /></svg>