<svg width="100&#37;" height="100&#37;" version="1.1" xmlns="http://www.w3.org/2000/svg" overflow="visible" style="background: black"> <rect x="-65" y="-40" width="130" height="90" stroke="yellow" stroke-dasharray="5,5" stroke-width="3" fill="transparent" /> <text text-anchor="middle" x = "0" y = "-65" transform="rotate(0 0 -65)" fill = "red" font-size = "0">lpf_chebyshev</text><text text-anchor="start" x = "-50" y = "0" transform="rotate(0 -50 0)" fill = "white" font-size = "16">P1</text><circle cx="-50" cy="0" r="5" stroke="yellow" stroke-width="3" fill="red" /> <text text-anchor="start" x = "50" y = "0" transform="rotate(0 50 0)" fill = "white" font-size = "16">P2</text><circle cx="50" cy="0" r="5" stroke="yellow" stroke-width="3" fill="red" /> <path d="M 20 12 A 14 14 0 0 1 0 12" stroke="blue" stroke-width="2" fill="transparent" /><path d="M -19 13 A 13 13 0 0 1 -1 13" stroke="blue" stroke-width="2" fill="transparent" /><path d="M 20 0 A 14 14 0 0 1 0 0" stroke="blue" stroke-width="2" fill="transparent" /><path d="M -20 0 A 13 13 0 0 1 0 0" stroke="blue" stroke-width="2" fill="transparent" /><path d="M 20 -12 A 14 14 0 0 1 0 -12" stroke="blue" stroke-width="2" fill="transparent" /><path d="M -20 -12 A 14 14 0 0 1 0 -12" stroke="blue" stroke-width="2" fill="transparent" /><path d="M -40 -5 L -45 5" stroke="blue" stroke-width="2" fill="transparent" /><path d="M 5 -5 L -5 5" stroke="blue" stroke-width="2" fill="transparent" /><path d="M 5 -20 L -5 -5" stroke="blue" stroke-width="2" fill="transparent" /><path d="M 25 -25 L -25 -25" stroke="blue" stroke-width="2" fill="transparent" /><path d="M -25 25 L 25 25" stroke="blue" stroke-width="2" fill="transparent" /><path d="M -50 0 L -25 0" stroke="blue" stroke-width="2" fill="transparent" /><path d="M 25 0 L 50 0" stroke="blue" stroke-width="2" fill="transparent" /><path d="M 25 25 L 25 -25" stroke="blue" stroke-width="2" fill="transparent" /><path d="M -25 -25 L -25 25" stroke="blue" stroke-width="2" fill="transparent" /><path d="M -10 10 L 10 -10" stroke="white" stroke-width="2" fill="transparent" /><path d="M -10 -10 L 10 10" stroke="white" stroke-width="2" fill="transparent" /><circle cx="0" cy="0" r="4" stroke="white" stroke-width="2" fill="green" /></svg>