<svg width="100&#37;" height="100&#37;" version="1.1" xmlns="http://www.w3.org/2000/svg" overflow="visible" style="background: black"> <rect x="-65" y="-30" width="130" height="55" stroke="yellow" stroke-dasharray="5,5" stroke-width="3" fill="transparent" /> <text text-anchor="middle" x = "0" y = "-55" transform="rotate(0 0 -55)" fill = "red" font-size = "0">adsdiode</text><text text-anchor="start" x = "-50" y = "0" transform="rotate(0 -50 0)" fill = "white" font-size = "16">A1</text><circle cx="-50" cy="0" r="5" stroke="yellow" stroke-width="3" fill="red" /> <text text-anchor="start" x = "50" y = "0" transform="rotate(0 50 0)" fill = "white" font-size = "16">P2</text><circle cx="50" cy="0" r="5" stroke="yellow" stroke-width="3" fill="red" /> <path d="M -50 0 L -10 0" stroke="blue" stroke-width="2" fill="transparent" /><path d="M -10 10 L 15 0" stroke="blue" stroke-width="2" fill="transparent" /><path d="M 15 0 L -10 -15" stroke="blue" stroke-width="2" fill="transparent" /><path d="M 50 0 L 15 0" stroke="blue" stroke-width="2" fill="transparent" /><path d="M 15 10 L 15 -15" stroke="blue" stroke-width="2" fill="transparent" /><path d="M -10 10 L -10 -15" stroke="blue" stroke-width="2" fill="transparent" /><path d="M -10 10 L 10 -10" stroke="white" stroke-width="2" fill="transparent" /><path d="M -10 -10 L 10 10" stroke="white" stroke-width="2" fill="transparent" /><circle cx="0" cy="0" r="4" stroke="white" stroke-width="2" fill="green" /></svg>