<svg width="100&#37;" height="100&#37;" version="1.1" xmlns="http://www.w3.org/2000/svg" overflow="visible" style="background: black"> <text text-anchor="start" x = "10" y = "-25" transform="rotate(0 10 -25)" fill = "white" font-size = "29">#</text><text text-anchor="start" x = "10" y = "50" transform="rotate(0 10 50)" fill = "white" font-size = "29">#</text><text text-anchor="start" x = "50" y = "60" transform="rotate(0 50 60)" fill = "white" font-size = "29">?</text><text text-anchor="start" x = "50" y = "30" transform="rotate(0 50 30)" fill = "white" font-size = "29">?</text><text text-anchor="start" x = "50" y = "0" transform="rotate(0 50 0)" fill = "white" font-size = "29">?</text><text text-anchor="start" x = "50" y = "-30" transform="rotate(0 50 -30)" fill = "blue" font-size = "48">?</text><rect x="-50" y="-50" width="100" height="100" stroke="yellow" stroke-dasharray="5,5" stroke-width="3" fill="transparent" /> <text text-anchor="end" x = "-2" y = "96" transform="rotate(0 -2 96)" fill = "white" font-size = "29">B</text><circle cx="0" cy="100" r="5" stroke="yellow" stroke-width="3" fill="red" /> <text text-anchor="end" x = "-2" y = "-75" transform="rotate(0 -2 -75)" fill = "white" font-size = "29">A</text><circle cx="0" cy="-100" r="5" stroke="yellow" stroke-width="3" fill="red" /> <path d="M 0 15 L 0 100" stroke="white" stroke-width="2" fill="transparent" /><path d="M 0 -100 L 0 -15" stroke="white" stroke-width="2" fill="transparent" /><path d="M 40 -15 L -40 -15" stroke="white" stroke-width="2" fill="transparent" /><path d="M 40 15 L -40 15" stroke="white" stroke-width="2" fill="transparent" /><path d="M -10 10 L 10 -10" stroke="white" stroke-width="2" fill="transparent" /><path d="M -10 -10 L 10 10" stroke="white" stroke-width="2" fill="transparent" /><circle cx="0" cy="0" r="4" stroke="white" stroke-width="2" fill="green" /></svg>