<svg width="100&#37;" height="100&#37;" version="1.1" xmlns="http://www.w3.org/2000/svg" overflow="visible" style="background: black"> <text text-anchor="start" x = "25" y = "-1" transform="rotate(0 25 -1)" fill = "white" font-size = "29">#</text><text text-anchor="end" x = "-25" y = "-1" transform="rotate(0 -25 -1)" fill = "white" font-size = "29">#</text><text text-anchor="middle" x = "0" y = "105" transform="rotate(0 0 105)" fill = "white" font-size = "29">?</text><text text-anchor="middle" x = "0" y = "75" transform="rotate(0 0 75)" fill = "white" font-size = "29">?</text><text text-anchor="middle" x = "0" y = "-50" transform="rotate(0 0 -50)" fill = "white" font-size = "29">?</text><text text-anchor="middle" x = "0" y = "-80" transform="rotate(0 0 -80)" fill = "blue" font-size = "48">?</text><rect x="-50" y="-50" width="100" height="100" stroke="yellow" stroke-dasharray="5,5" stroke-width="3" fill="transparent" /> <text text-anchor="end" x = "98" y = "-5" transform="rotate(0 98 -5)" fill = "white" font-size = "29">B</text><circle cx="100" cy="0" r="5" stroke="yellow" stroke-width="3" fill="red" /> <text text-anchor="end" x = "-60" y = "-5" transform="rotate(0 -60 -5)" fill = "white" font-size = "29">A</text><circle cx="-100" cy="0" r="5" stroke="yellow" stroke-width="3" fill="red" /> <path d="M 15 0 L 100 0" stroke="white" stroke-width="2" fill="transparent" /><path d="M -100 0 L -15 0" stroke="white" stroke-width="2" fill="transparent" /><path d="M 15 -40 L 15 40" stroke="white" stroke-width="2" fill="transparent" /><path d="M -15 -40 L -15 40" stroke="white" stroke-width="2" fill="transparent" /><path d="M -10 10 L 10 -10" stroke="white" stroke-width="2" fill="transparent" /><path d="M -10 -10 L 10 10" stroke="white" stroke-width="2" fill="transparent" /><circle cx="0" cy="0" r="4" stroke="white" stroke-width="2" fill="green" /></svg>