<svg width="100&#37;" height="100&#37;" version="1.1" xmlns="http://www.w3.org/2000/svg" overflow="visible" style="background: black"> <rect x="-200" y="-125" width="400" height="250" stroke="yellow" stroke-dasharray="5,5" stroke-width="3" fill="transparent" /> <text text-anchor="end" x = "0" y = "-150" transform="rotate(0 0 -150)" fill = "white" font-size = "32">?</text><text text-anchor="end" x = "-225" y = "0" transform="rotate(0 -225 0)" fill = "white" font-size = "32">?</text><text text-anchor="start" x = "-190" y = "0" transform="rotate(0 -190 0)" fill = "white" font-size = "24">PRSNT1</text><text text-anchor="start" x = "225" y = "-12" transform="rotate(0 225 -12)" fill = "white" font-size = "32">?</text><text text-anchor="end" x = "190" y = "0" transform="rotate(0 190 0)" fill = "white" font-size = "24">SMDAT</text><text text-anchor="end" x = "-225" y = "50" transform="rotate(0 -225 50)" fill = "white" font-size = "32">?</text><text text-anchor="start" x = "-190" y = "50" transform="rotate(0 -190 50)" fill = "white" font-size = "24">PRSNT2</text><text text-anchor="end" x = "-225" y = "-50" transform="rotate(0 -225 -50)" fill = "white" font-size = "32">?</text><text text-anchor="start" x = "-190" y = "-50" transform="rotate(0 -190 -50)" fill = "white" font-size = "24">PERST</text><text text-anchor="start" x = "225" y = "37" transform="rotate(0 225 37)" fill = "white" font-size = "32">?</text><text text-anchor="end" x = "190" y = "50" transform="rotate(0 190 50)" fill = "white" font-size = "24">WAKE</text><text text-anchor="start" x = "225" y = "-62" transform="rotate(0 225 -62)" fill = "white" font-size = "32">?</text><text text-anchor="end" x = "190" y = "-50" transform="rotate(0 190 -50)" fill = "white" font-size = "24">SMCLK</text><text text-anchor="start" x = "-75" y = "-125" transform="rotate(0 -75 -125)" fill = "white" font-size = "24">CUSTOM_PCIE</text><text text-anchor="start" x = "-62" y = "100" transform="rotate(0 -62 100)" fill = "white" font-size = "24">Symbol 1 of 12</text><text text-anchor="end" x = "-350" y = "0" transform="rotate(0 -350 0)" fill = "white" font-size = "32">PRSNT1</text><circle cx="-325" cy="0" r="5" stroke="yellow" stroke-width="3" fill="red" /> <text text-anchor="start" x = "325" y = "0" transform="rotate(0 325 0)" fill = "white" font-size = "32">SMDAT</text><circle cx="300" cy="0" r="5" stroke="yellow" stroke-width="3" fill="red" /> <text text-anchor="end" x = "-350" y = "50" transform="rotate(0 -350 50)" fill = "white" font-size = "32">PRSNT2</text><circle cx="-325" cy="50" r="5" stroke="yellow" stroke-width="3" fill="red" /> <text text-anchor="end" x = "-350" y = "-50" transform="rotate(0 -350 -50)" fill = "white" font-size = "32">PERST</text><circle cx="-325" cy="-50" r="5" stroke="yellow" stroke-width="3" fill="red" /> <text text-anchor="start" x = "325" y = "50" transform="rotate(0 325 50)" fill = "white" font-size = "32">WAKE</text><circle cx="300" cy="50" r="5" stroke="yellow" stroke-width="3" fill="red" /> <text text-anchor="start" x = "325" y = "-50" transform="rotate(0 325 -50)" fill = "white" font-size = "32">SMCLK</text><circle cx="300" cy="-50" r="5" stroke="yellow" stroke-width="3" fill="red" /> <path d="M -200 125 L 200 125" stroke="white" stroke-width="2" fill="transparent" /><path d="M 200 -125 L 200 125" stroke="white" stroke-width="2" fill="transparent" /><path d="M -200 -125 L 200 -125" stroke="white" stroke-width="2" fill="transparent" /><path d="M -200 -125 L -200 125" stroke="white" stroke-width="2" fill="transparent" /><path d="M -325 0 L -200 0" stroke="white" stroke-width="2" fill="transparent" /><path d="M 300 0 L 200 0" stroke="white" stroke-width="2" fill="transparent" /><path d="M -325 50 L -200 50" stroke="white" stroke-width="2" fill="transparent" /><path d="M -325 -50 L -200 -50" stroke="white" stroke-width="2" fill="transparent" /><path d="M 300 50 L 200 50" stroke="white" stroke-width="2" fill="transparent" /><path d="M 300 -50 L 200 -50" stroke="white" stroke-width="2" fill="transparent" /><path d="M -10 10 L 10 -10" stroke="white" stroke-width="2" fill="transparent" /><path d="M -10 -10 L 10 10" stroke="white" stroke-width="2" fill="transparent" /><circle cx="0" cy="0" r="4" stroke="white" stroke-width="2" fill="green" /></svg>