<svg width="100&#37;" height="100&#37;" version="1.1" xmlns="http://www.w3.org/2000/svg" overflow="visible" style="background: black"> <rect x="-225" y="-125" width="450" height="250" stroke="yellow" stroke-dasharray="5,5" stroke-width="3" fill="transparent" /> <text text-anchor="end" x = "25" y = "-175" transform="rotate(0 25 -175)" fill = "white" font-size = "32">?</text><text text-anchor="start" x = "250" y = "-37" transform="rotate(0 250 -37)" fill = "white" font-size = "32">?</text><text text-anchor="end" x = "215" y = "-25" transform="rotate(0 215 -25)" fill = "white" font-size = "24">V3_3_B8</text><text text-anchor="end" x = "-250" y = "-25" transform="rotate(0 -250 -25)" fill = "white" font-size = "32">?</text><text text-anchor="start" x = "-215" y = "-25" transform="rotate(0 -215 -25)" fill = "white" font-size = "24">V12_B1</text><text text-anchor="start" x = "250" y = "-87" transform="rotate(0 250 -87)" fill = "white" font-size = "32">?</text><text text-anchor="end" x = "215" y = "-75" transform="rotate(0 215 -75)" fill = "white" font-size = "24">VUX3_3</text><text text-anchor="end" x = "-250" y = "25" transform="rotate(0 -250 25)" fill = "white" font-size = "32">?</text><text text-anchor="start" x = "-215" y = "25" transform="rotate(0 -215 25)" fill = "white" font-size = "24">V12_A2</text><text text-anchor="end" x = "-250" y = "75" transform="rotate(0 -250 75)" fill = "white" font-size = "32">?</text><text text-anchor="start" x = "-215" y = "75" transform="rotate(0 -215 75)" fill = "white" font-size = "24">V12_A3</text><text text-anchor="end" x = "-250" y = "-75" transform="rotate(0 -250 -75)" fill = "white" font-size = "32">?</text><text text-anchor="start" x = "-215" y = "-75" transform="rotate(0 -215 -75)" fill = "white" font-size = "24">V12_B2</text><text text-anchor="start" x = "250" y = "62" transform="rotate(0 250 62)" fill = "white" font-size = "32">?</text><text text-anchor="end" x = "215" y = "75" transform="rotate(0 215 75)" fill = "white" font-size = "24">V3_3_A9</text><text text-anchor="start" x = "250" y = "12" transform="rotate(0 250 12)" fill = "white" font-size = "32">?</text><text text-anchor="end" x = "215" y = "25" transform="rotate(0 215 25)" fill = "white" font-size = "24">V3_3_A10</text><text text-anchor="start" x = "-125" y = "-125" transform="rotate(0 -125 -125)" fill = "white" font-size = "24">CUSTOM_PCIE</text><text text-anchor="start" x = "-100" y = "125" transform="rotate(0 -100 125)" fill = "white" font-size = "24">Symbol 12 of 12</text><text text-anchor="start" x = "350" y = "-25" transform="rotate(0 350 -25)" fill = "white" font-size = "32">V3_3_B8</text><circle cx="325" cy="-25" r="5" stroke="yellow" stroke-width="3" fill="red" /> <text text-anchor="end" x = "-350" y = "-25" transform="rotate(0 -350 -25)" fill = "white" font-size = "32">V12_B1</text><circle cx="-325" cy="-25" r="5" stroke="yellow" stroke-width="3" fill="red" /> <text text-anchor="start" x = "350" y = "-75" transform="rotate(0 350 -75)" fill = "white" font-size = "32">VUX3_3</text><circle cx="325" cy="-75" r="5" stroke="yellow" stroke-width="3" fill="red" /> <text text-anchor="end" x = "-350" y = "25" transform="rotate(0 -350 25)" fill = "white" font-size = "32">V12_A2</text><circle cx="-325" cy="25" r="5" stroke="yellow" stroke-width="3" fill="red" /> <text text-anchor="end" x = "-350" y = "75" transform="rotate(0 -350 75)" fill = "white" font-size = "32">V12_A3</text><circle cx="-325" cy="75" r="5" stroke="yellow" stroke-width="3" fill="red" /> <text text-anchor="end" x = "-350" y = "-75" transform="rotate(0 -350 -75)" fill = "white" font-size = "32">V12_B2</text><circle cx="-325" cy="-75" r="5" stroke="yellow" stroke-width="3" fill="red" /> <text text-anchor="start" x = "350" y = "75" transform="rotate(0 350 75)" fill = "white" font-size = "32">V3_3_A9</text><circle cx="325" cy="75" r="5" stroke="yellow" stroke-width="3" fill="red" /> <text text-anchor="start" x = "350" y = "25" transform="rotate(0 350 25)" fill = "white" font-size = "32">V3_3_A10</text><circle cx="325" cy="25" r="5" stroke="yellow" stroke-width="3" fill="red" /> <path d="M -225 125 L 250 125" stroke="white" stroke-width="2" fill="transparent" /><path d="M 250 -150 L 250 125" stroke="white" stroke-width="2" fill="transparent" /><path d="M -225 -150 L -225 125" stroke="white" stroke-width="2" fill="transparent" /><path d="M -225 -150 L 250 -150" stroke="white" stroke-width="2" fill="transparent" /><path d="M 325 -25 L 225 -25" stroke="white" stroke-width="2" fill="transparent" /><path d="M -325 -25 L -225 -25" stroke="white" stroke-width="2" fill="transparent" /><path d="M 325 -75 L 225 -75" stroke="white" stroke-width="2" fill="transparent" /><path d="M -325 25 L -225 25" stroke="white" stroke-width="2" fill="transparent" /><path d="M -325 75 L -225 75" stroke="white" stroke-width="2" fill="transparent" /><path d="M -325 -75 L -225 -75" stroke="white" stroke-width="2" fill="transparent" /><path d="M 325 75 L 225 75" stroke="white" stroke-width="2" fill="transparent" /><path d="M 325 25 L 225 25" stroke="white" stroke-width="2" fill="transparent" /><path d="M -10 10 L 10 -10" stroke="white" stroke-width="2" fill="transparent" /><path d="M -10 -10 L 10 10" stroke="white" stroke-width="2" fill="transparent" /><circle cx="0" cy="0" r="4" stroke="white" stroke-width="2" fill="green" /></svg>