<svg width="100&#37;" height="100&#37;" version="1.1" xmlns="http://www.w3.org/2000/svg" overflow="visible" style="background: black"> <rect x="-225" y="-475" width="450" height="950" stroke="yellow" stroke-dasharray="5,5" stroke-width="3" fill="transparent" /> <text text-anchor="end" x = "0" y = "-500" transform="rotate(0 0 -500)" fill = "white" font-size = "32">?</text><text text-anchor="start" x = "250" y = "387" transform="rotate(0 250 387)" fill = "white" font-size = "32">?</text><text text-anchor="end" x = "215" y = "400" transform="rotate(0 215 400)" fill = "white" font-size = "24">GND_A24</text><text text-anchor="end" x = "-250" y = "300" transform="rotate(0 -250 300)" fill = "white" font-size = "32">?</text><text text-anchor="start" x = "-215" y = "-150" transform="rotate(0 -215 -150)" fill = "white" font-size = "24">GND_B44</text><text text-anchor="end" x = "-250" y = "-50" transform="rotate(0 -250 -50)" fill = "white" font-size = "32">?</text><text text-anchor="start" x = "-215" y = "400" transform="rotate(0 -215 400)" fill = "white" font-size = "24">GND_B29</text><text text-anchor="start" x = "250" y = "87" transform="rotate(0 250 87)" fill = "white" font-size = "32">?</text><text text-anchor="end" x = "215" y = "100" transform="rotate(0 215 100)" fill = "white" font-size = "24">GND_A18</text><text text-anchor="end" x = "-250" y = "200" transform="rotate(0 -250 200)" fill = "white" font-size = "32">?</text><text text-anchor="start" x = "-215" y = "-300" transform="rotate(0 -215 -300)" fill = "white" font-size = "24">GND_B40</text><text text-anchor="start" x = "250" y = "-462" transform="rotate(0 250 -462)" fill = "white" font-size = "32">?</text><text text-anchor="end" x = "215" y = "-450" transform="rotate(0 215 -450)" fill = "white" font-size = "24">GND_B13</text><text text-anchor="end" x = "-250" y = "150" transform="rotate(0 -250 150)" fill = "white" font-size = "32">?</text><text text-anchor="start" x = "-215" y = "-450" transform="rotate(0 -215 -450)" fill = "white" font-size = "24">GND_B39</text><text text-anchor="start" x = "250" y = "337" transform="rotate(0 250 337)" fill = "white" font-size = "32">?</text><text text-anchor="end" x = "215" y = "350" transform="rotate(0 215 350)" fill = "white" font-size = "24">GND_A28</text><text text-anchor="end" x = "-250" y = "-300" transform="rotate(0 -250 -300)" fill = "white" font-size = "32">?</text><text text-anchor="start" x = "-215" y = "150" transform="rotate(0 -215 150)" fill = "white" font-size = "24">GND_B18</text><text text-anchor="start" x = "250" y = "-62" transform="rotate(0 250 -62)" fill = "white" font-size = "32">?</text><text text-anchor="end" x = "215" y = "-50" transform="rotate(0 215 -50)" fill = "white" font-size = "24">GND_A46</text><text text-anchor="end" x = "-250" y = "50" transform="rotate(0 -250 50)" fill = "white" font-size = "32">?</text><text text-anchor="start" x = "-215" y = "0" transform="rotate(0 -215 0)" fill = "white" font-size = "24">GND_B35</text><text text-anchor="start" x = "250" y = "-312" transform="rotate(0 250 -312)" fill = "white" font-size = "32">?</text><text text-anchor="end" x = "215" y = "-300" transform="rotate(0 215 -300)" fill = "white" font-size = "24">GND_A38</text><text text-anchor="start" x = "250" y = "-212" transform="rotate(0 250 -212)" fill = "white" font-size = "32">?</text><text text-anchor="end" x = "215" y = "-200" transform="rotate(0 215 -200)" fill = "white" font-size = "24">GND_A42</text><text text-anchor="start" x = "250" y = "-412" transform="rotate(0 250 -412)" fill = "white" font-size = "32">?</text><text text-anchor="end" x = "215" y = "-400" transform="rotate(0 215 -400)" fill = "white" font-size = "24">GND_A4</text><text text-anchor="start" x = "250" y = "-12" transform="rotate(0 250 -12)" fill = "white" font-size = "32">?</text><text text-anchor="end" x = "215" y = "0" transform="rotate(0 215 0)" fill = "white" font-size = "24">GND_A34</text><text text-anchor="end" x = "-250" y = "-200" transform="rotate(0 -250 -200)" fill = "white" font-size = "32">?</text><text text-anchor="start" x = "-215" y = "200" transform="rotate(0 -215 200)" fill = "white" font-size = "24">GND_B22</text><text text-anchor="start" x = "250" y = "287" transform="rotate(0 250 287)" fill = "white" font-size = "32">?</text><text text-anchor="end" x = "215" y = "300" transform="rotate(0 215 300)" fill = "white" font-size = "24">GND_A23</text><text text-anchor="end" x = "-250" y = "-400" transform="rotate(0 -250 -400)" fill = "white" font-size = "32">?</text><text text-anchor="start" x = "-215" y = "-350" transform="rotate(0 -215 -350)" fill = "white" font-size = "24">GND_B7</text><text text-anchor="end" x = "-250" y = "350" transform="rotate(0 -250 350)" fill = "white" font-size = "32">?</text><text text-anchor="start" x = "-215" y = "-100" transform="rotate(0 -215 -100)" fill = "white" font-size = "24">GND_B47</text><text text-anchor="end" x = "-250" y = "-100" transform="rotate(0 -250 -100)" fill = "white" font-size = "32">?</text><text text-anchor="start" x = "-215" y = "350" transform="rotate(0 -215 350)" fill = "white" font-size = "24">GND_B26</text><text text-anchor="start" x = "250" y = "187" transform="rotate(0 250 187)" fill = "white" font-size = "32">?</text><text text-anchor="end" x = "215" y = "200" transform="rotate(0 215 200)" fill = "white" font-size = "24">GND_A15</text><text text-anchor="start" x = "250" y = "437" transform="rotate(0 250 437)" fill = "white" font-size = "32">?</text><text text-anchor="end" x = "215" y = "450" transform="rotate(0 215 450)" fill = "white" font-size = "24">GND_A27</text><text text-anchor="end" x = "-250" y = "-350" transform="rotate(0 -250 -350)" fill = "white" font-size = "32">?</text><text text-anchor="start" x = "-215" y = "100" transform="rotate(0 -215 100)" fill = "white" font-size = "24">GND_B16</text><text text-anchor="end" x = "-250" y = "-450" transform="rotate(0 -250 -450)" fill = "white" font-size = "32">?</text><text text-anchor="start" x = "-215" y = "-400" transform="rotate(0 -215 -400)" fill = "white" font-size = "24">GND_B4</text><text text-anchor="end" x = "-250" y = "0" transform="rotate(0 -250 0)" fill = "white" font-size = "32">?</text><text text-anchor="start" x = "-215" y = "300" transform="rotate(0 -215 300)" fill = "white" font-size = "24">GND_B32</text><text text-anchor="start" x = "250" y = "237" transform="rotate(0 250 237)" fill = "white" font-size = "32">?</text><text text-anchor="end" x = "215" y = "250" transform="rotate(0 215 250)" fill = "white" font-size = "24">GND_A20</text><text text-anchor="start" x = "250" y = "-162" transform="rotate(0 250 -162)" fill = "white" font-size = "32">?</text><text text-anchor="end" x = "215" y = "-150" transform="rotate(0 215 -150)" fill = "white" font-size = "24">GND_A49</text><text text-anchor="end" x = "-250" y = "100" transform="rotate(0 -250 100)" fill = "white" font-size = "32">?</text><text text-anchor="start" x = "-215" y = "-50" transform="rotate(0 -215 -50)" fill = "white" font-size = "24">GND_B36</text><text text-anchor="end" x = "-250" y = "250" transform="rotate(0 -250 250)" fill = "white" font-size = "32">?</text><text text-anchor="start" x = "-215" y = "-250" transform="rotate(0 -215 -250)" fill = "white" font-size = "24">GND_B43</text><text text-anchor="start" x = "250" y = "-112" transform="rotate(0 250 -112)" fill = "white" font-size = "32">?</text><text text-anchor="end" x = "215" y = "-100" transform="rotate(0 215 -100)" fill = "white" font-size = "24">GND_A45</text><text text-anchor="start" x = "250" y = "37" transform="rotate(0 250 37)" fill = "white" font-size = "32">?</text><text text-anchor="end" x = "215" y = "50" transform="rotate(0 215 50)" fill = "white" font-size = "24">GND_A31</text><text text-anchor="end" x = "-250" y = "-250" transform="rotate(0 -250 -250)" fill = "white" font-size = "32">?</text><text text-anchor="start" x = "-215" y = "50" transform="rotate(0 -215 50)" fill = "white" font-size = "24">GND_B21</text><text text-anchor="start" x = "250" y = "-362" transform="rotate(0 250 -362)" fill = "white" font-size = "32">?</text><text text-anchor="end" x = "215" y = "-350" transform="rotate(0 215 -350)" fill = "white" font-size = "24">GND_A37</text><text text-anchor="start" x = "250" y = "-262" transform="rotate(0 250 -262)" fill = "white" font-size = "32">?</text><text text-anchor="end" x = "215" y = "-250" transform="rotate(0 215 -250)" fill = "white" font-size = "24">GND_A41</text><text text-anchor="start" x = "250" y = "137" transform="rotate(0 250 137)" fill = "white" font-size = "32">?</text><text text-anchor="end" x = "215" y = "150" transform="rotate(0 215 150)" fill = "white" font-size = "24">GND_A12</text><text text-anchor="end" x = "-250" y = "400" transform="rotate(0 -250 400)" fill = "white" font-size = "32">?</text><text text-anchor="start" x = "-215" y = "-200" transform="rotate(0 -215 -200)" fill = "white" font-size = "24">GND_B49</text><text text-anchor="end" x = "-250" y = "-150" transform="rotate(0 -250 -150)" fill = "white" font-size = "32">?</text><text text-anchor="start" x = "-215" y = "250" transform="rotate(0 -215 250)" fill = "white" font-size = "24">GND_B25</text><text text-anchor="start" x = "-75" y = "-475" transform="rotate(0 -75 -475)" fill = "white" font-size = "24">CUSTOM_PCIE</text><text text-anchor="start" x = "-62" y = "450" transform="rotate(0 -62 450)" fill = "white" font-size = "24">Symbol 2 of 12</text><text text-anchor="start" x = "350" y = "400" transform="rotate(0 350 400)" fill = "white" font-size = "32">GND_A24</text><circle cx="325" cy="400" r="5" stroke="yellow" stroke-width="3" fill="red" /> <text text-anchor="end" x = "-350" y = "-150" transform="rotate(0 -350 -150)" fill = "white" font-size = "32">GND_B44</text><circle cx="-325" cy="-150" r="5" stroke="yellow" stroke-width="3" fill="red" /> <text text-anchor="end" x = "-350" y = "400" transform="rotate(0 -350 400)" fill = "white" font-size = "32">GND_B29</text><circle cx="-325" cy="400" r="5" stroke="yellow" stroke-width="3" fill="red" /> <text text-anchor="start" x = "350" y = "100" transform="rotate(0 350 100)" fill = "white" font-size = "32">GND_A18</text><circle cx="325" cy="100" r="5" stroke="yellow" stroke-width="3" fill="red" /> <text text-anchor="end" x = "-350" y = "-300" transform="rotate(0 -350 -300)" fill = "white" font-size = "32">GND_B40</text><circle cx="-325" cy="-300" r="5" stroke="yellow" stroke-width="3" fill="red" /> <text text-anchor="start" x = "350" y = "-450" transform="rotate(0 350 -450)" fill = "white" font-size = "32">GND_B13</text><circle cx="325" cy="-450" r="5" stroke="yellow" stroke-width="3" fill="red" /> <text text-anchor="end" x = "-350" y = "-450" transform="rotate(0 -350 -450)" fill = "white" font-size = "32">GND_B39</text><circle cx="-325" cy="-450" r="5" stroke="yellow" stroke-width="3" fill="red" /> <text text-anchor="start" x = "350" y = "350" transform="rotate(0 350 350)" fill = "white" font-size = "32">GND_A28</text><circle cx="325" cy="350" r="5" stroke="yellow" stroke-width="3" fill="red" /> <text text-anchor="end" x = "-350" y = "150" transform="rotate(0 -350 150)" fill = "white" font-size = "32">GND_B18</text><circle cx="-325" cy="150" r="5" stroke="yellow" stroke-width="3" fill="red" /> <text text-anchor="start" x = "350" y = "-50" transform="rotate(0 350 -50)" fill = "white" font-size = "32">GND_A46</text><circle cx="325" cy="-50" r="5" stroke="yellow" stroke-width="3" fill="red" /> <text text-anchor="end" x = "-350" y = "0" transform="rotate(0 -350 0)" fill = "white" font-size = "32">GND_B35</text><circle cx="-325" cy="0" r="5" stroke="yellow" stroke-width="3" fill="red" /> <text text-anchor="start" x = "350" y = "-300" transform="rotate(0 350 -300)" fill = "white" font-size = "32">GND_A38</text><circle cx="325" cy="-300" r="5" stroke="yellow" stroke-width="3" fill="red" /> <text text-anchor="start" x = "350" y = "-200" transform="rotate(0 350 -200)" fill = "white" font-size = "32">GND_A42</text><circle cx="325" cy="-200" r="5" stroke="yellow" stroke-width="3" fill="red" /> <text text-anchor="start" x = "350" y = "-400" transform="rotate(0 350 -400)" fill = "white" font-size = "32">GND_A4</text><circle cx="325" cy="-400" r="5" stroke="yellow" stroke-width="3" fill="red" /> <text text-anchor="start" x = "350" y = "0" transform="rotate(0 350 0)" fill = "white" font-size = "32">GND_A34</text><circle cx="325" cy="0" r="5" stroke="yellow" stroke-width="3" fill="red" /> <text text-anchor="end" x = "-350" y = "200" transform="rotate(0 -350 200)" fill = "white" font-size = "32">GND_B22</text><circle cx="-325" cy="200" r="5" stroke="yellow" stroke-width="3" fill="red" /> <text text-anchor="start" x = "350" y = "300" transform="rotate(0 350 300)" fill = "white" font-size = "32">GND_A23</text><circle cx="325" cy="300" r="5" stroke="yellow" stroke-width="3" fill="red" /> <text text-anchor="end" x = "-350" y = "-350" transform="rotate(0 -350 -350)" fill = "white" font-size = "32">GND_B7</text><circle cx="-325" cy="-350" r="5" stroke="yellow" stroke-width="3" fill="red" /> <text text-anchor="end" x = "-350" y = "-100" transform="rotate(0 -350 -100)" fill = "white" font-size = "32">GND_B47</text><circle cx="-325" cy="-100" r="5" stroke="yellow" stroke-width="3" fill="red" /> <text text-anchor="end" x = "-350" y = "350" transform="rotate(0 -350 350)" fill = "white" font-size = "32">GND_B26</text><circle cx="-325" cy="350" r="5" stroke="yellow" stroke-width="3" fill="red" /> <text text-anchor="start" x = "350" y = "200" transform="rotate(0 350 200)" fill = "white" font-size = "32">GND_A15</text><circle cx="325" cy="200" r="5" stroke="yellow" stroke-width="3" fill="red" /> <text text-anchor="start" x = "350" y = "450" transform="rotate(0 350 450)" fill = "white" font-size = "32">GND_A27</text><circle cx="325" cy="450" r="5" stroke="yellow" stroke-width="3" fill="red" /> <text text-anchor="end" x = "-350" y = "100" transform="rotate(0 -350 100)" fill = "white" font-size = "32">GND_B16</text><circle cx="-325" cy="100" r="5" stroke="yellow" stroke-width="3" fill="red" /> <text text-anchor="end" x = "-350" y = "-400" transform="rotate(0 -350 -400)" fill = "white" font-size = "32">GND_B4</text><circle cx="-325" cy="-400" r="5" stroke="yellow" stroke-width="3" fill="red" /> <text text-anchor="end" x = "-350" y = "300" transform="rotate(0 -350 300)" fill = "white" font-size = "32">GND_B32</text><circle cx="-325" cy="300" r="5" stroke="yellow" stroke-width="3" fill="red" /> <text text-anchor="start" x = "350" y = "250" transform="rotate(0 350 250)" fill = "white" font-size = "32">GND_A20</text><circle cx="325" cy="250" r="5" stroke="yellow" stroke-width="3" fill="red" /> <text text-anchor="start" x = "350" y = "-150" transform="rotate(0 350 -150)" fill = "white" font-size = "32">GND_A49</text><circle cx="325" cy="-150" r="5" stroke="yellow" stroke-width="3" fill="red" /> <text text-anchor="end" x = "-350" y = "-50" transform="rotate(0 -350 -50)" fill = "white" font-size = "32">GND_B36</text><circle cx="-325" cy="-50" r="5" stroke="yellow" stroke-width="3" fill="red" /> <text text-anchor="end" x = "-350" y = "-250" transform="rotate(0 -350 -250)" fill = "white" font-size = "32">GND_B43</text><circle cx="-325" cy="-250" r="5" stroke="yellow" stroke-width="3" fill="red" /> <text text-anchor="start" x = "350" y = "-100" transform="rotate(0 350 -100)" fill = "white" font-size = "32">GND_A45</text><circle cx="325" cy="-100" r="5" stroke="yellow" stroke-width="3" fill="red" /> <text text-anchor="start" x = "350" y = "50" transform="rotate(0 350 50)" fill = "white" font-size = "32">GND_A31</text><circle cx="325" cy="50" r="5" stroke="yellow" stroke-width="3" fill="red" /> <text text-anchor="end" x = "-350" y = "50" transform="rotate(0 -350 50)" fill = "white" font-size = "32">GND_B21</text><circle cx="-325" cy="50" r="5" stroke="yellow" stroke-width="3" fill="red" /> <text text-anchor="start" x = "350" y = "-350" transform="rotate(0 350 -350)" fill = "white" font-size = "32">GND_A37</text><circle cx="325" cy="-350" r="5" stroke="yellow" stroke-width="3" fill="red" /> <text text-anchor="start" x = "350" y = "-250" transform="rotate(0 350 -250)" fill = "white" font-size = "32">GND_A41</text><circle cx="325" cy="-250" r="5" stroke="yellow" stroke-width="3" fill="red" /> <text text-anchor="start" x = "350" y = "150" transform="rotate(0 350 150)" fill = "white" font-size = "32">GND_A12</text><circle cx="325" cy="150" r="5" stroke="yellow" stroke-width="3" fill="red" /> <text text-anchor="end" x = "-350" y = "-200" transform="rotate(0 -350 -200)" fill = "white" font-size = "32">GND_B49</text><circle cx="-325" cy="-200" r="5" stroke="yellow" stroke-width="3" fill="red" /> <text text-anchor="end" x = "-350" y = "250" transform="rotate(0 -350 250)" fill = "white" font-size = "32">GND_B25</text><circle cx="-325" cy="250" r="5" stroke="yellow" stroke-width="3" fill="red" /> <path d="M -225 475 L 225 475" stroke="white" stroke-width="2" fill="transparent" /><path d="M 225 -475 L 225 475" stroke="white" stroke-width="2" fill="transparent" /><path d="M -225 -475 L 225 -475" stroke="white" stroke-width="2" fill="transparent" /><path d="M -225 -475 L -225 475" stroke="white" stroke-width="2" fill="transparent" /><path d="M 325 400 L 225 400" stroke="white" stroke-width="2" fill="transparent" /><path d="M -325 -150 L -225 -150" stroke="white" stroke-width="2" fill="transparent" /><path d="M -325 400 L -225 400" stroke="white" stroke-width="2" fill="transparent" /><path d="M 325 100 L 225 100" stroke="white" stroke-width="2" fill="transparent" /><path d="M -325 -300 L -225 -300" stroke="white" stroke-width="2" fill="transparent" /><path d="M 325 -450 L 225 -450" stroke="white" stroke-width="2" fill="transparent" /><path d="M -325 -450 L -225 -450" stroke="white" stroke-width="2" fill="transparent" /><path d="M 325 350 L 225 350" stroke="white" stroke-width="2" fill="transparent" /><path d="M -325 150 L -225 150" stroke="white" stroke-width="2" fill="transparent" /><path d="M 325 -50 L 225 -50" stroke="white" stroke-width="2" fill="transparent" /><path d="M -325 0 L -225 0" stroke="white" stroke-width="2" fill="transparent" /><path d="M 325 -300 L 225 -300" stroke="white" stroke-width="2" fill="transparent" /><path d="M 325 -200 L 225 -200" stroke="white" stroke-width="2" fill="transparent" /><path d="M 325 -400 L 225 -400" stroke="white" stroke-width="2" fill="transparent" /><path d="M 325 0 L 225 0" stroke="white" stroke-width="2" fill="transparent" /><path d="M -325 200 L -225 200" stroke="white" stroke-width="2" fill="transparent" /><path d="M 325 300 L 225 300" stroke="white" stroke-width="2" fill="transparent" /><path d="M -325 -350 L -225 -350" stroke="white" stroke-width="2" fill="transparent" /><path d="M -325 -100 L -225 -100" stroke="white" stroke-width="2" fill="transparent" /><path d="M -325 350 L -225 350" stroke="white" stroke-width="2" fill="transparent" /><path d="M 325 200 L 225 200" stroke="white" stroke-width="2" fill="transparent" /><path d="M 325 450 L 225 450" stroke="white" stroke-width="2" fill="transparent" /><path d="M -325 100 L -225 100" stroke="white" stroke-width="2" fill="transparent" /><path d="M -325 -400 L -225 -400" stroke="white" stroke-width="2" fill="transparent" /><path d="M -325 300 L -225 300" stroke="white" stroke-width="2" fill="transparent" /><path d="M 325 250 L 225 250" stroke="white" stroke-width="2" fill="transparent" /><path d="M 325 -150 L 225 -150" stroke="white" stroke-width="2" fill="transparent" /><path d="M -325 -50 L -225 -50" stroke="white" stroke-width="2" fill="transparent" /><path d="M -325 -250 L -225 -250" stroke="white" stroke-width="2" fill="transparent" /><path d="M 325 -100 L 225 -100" stroke="white" stroke-width="2" fill="transparent" /><path d="M 325 50 L 225 50" stroke="white" stroke-width="2" fill="transparent" /><path d="M -325 50 L -225 50" stroke="white" stroke-width="2" fill="transparent" /><path d="M 325 -350 L 225 -350" stroke="white" stroke-width="2" fill="transparent" /><path d="M 325 -250 L 225 -250" stroke="white" stroke-width="2" fill="transparent" /><path d="M 325 150 L 225 150" stroke="white" stroke-width="2" fill="transparent" /><path d="M -325 -200 L -225 -200" stroke="white" stroke-width="2" fill="transparent" /><path d="M -325 250 L -225 250" stroke="white" stroke-width="2" fill="transparent" /><path d="M -10 10 L 10 -10" stroke="white" stroke-width="2" fill="transparent" /><path d="M -10 -10 L 10 10" stroke="white" stroke-width="2" fill="transparent" /><circle cx="0" cy="0" r="4" stroke="white" stroke-width="2" fill="green" /></svg>