<svg width="100&#37;" height="100&#37;" version="1.1" xmlns="http://www.w3.org/2000/svg" overflow="visible" style="background: black"> <text text-anchor="end" x = "0" y = "-125" transform="rotate(0 0 -125)" fill = "white" font-size = "32">?</text><rect x="-175" y="-100" width="350" height="175" stroke="yellow" stroke-dasharray="5,5" stroke-width="3" fill="transparent" /> <text text-anchor="start" x = "200" y = "12" transform="rotate(0 200 12)" fill = "white" font-size = "32">?</text><text text-anchor="end" x = "165" y = "25" transform="rotate(0 165 25)" fill = "white" font-size = "24">HSOP6</text><text text-anchor="end" x = "-200" y = "25" transform="rotate(0 -200 25)" fill = "white" font-size = "32">?</text><text text-anchor="start" x = "-165" y = "25" transform="rotate(0 -165 25)" fill = "white" font-size = "24">HSIP6</text><text text-anchor="start" x = "200" y = "-37" transform="rotate(0 200 -37)" fill = "white" font-size = "32">?</text><text text-anchor="end" x = "165" y = "-25" transform="rotate(0 165 -25)" fill = "white" font-size = "24">HSON6</text><text text-anchor="end" x = "-200" y = "-25" transform="rotate(0 -200 -25)" fill = "white" font-size = "32">?</text><text text-anchor="start" x = "-165" y = "-25" transform="rotate(0 -165 -25)" fill = "white" font-size = "24">HSIN6</text><text text-anchor="start" x = "-125" y = "-75" transform="rotate(0 -125 -75)" fill = "white" font-size = "24">CUSTOM_PCIE</text><text text-anchor="start" x = "-100" y = "75" transform="rotate(0 -100 75)" fill = "white" font-size = "26">Symbol 9 of 12</text><text text-anchor="start" x = "300" y = "25" transform="rotate(0 300 25)" fill = "white" font-size = "32">HSOP6</text><circle cx="275" cy="25" r="5" stroke="yellow" stroke-width="3" fill="red" /> <text text-anchor="end" x = "-300" y = "25" transform="rotate(0 -300 25)" fill = "white" font-size = "32">HSIP6</text><circle cx="-275" cy="25" r="5" stroke="yellow" stroke-width="3" fill="red" /> <text text-anchor="start" x = "300" y = "-25" transform="rotate(0 300 -25)" fill = "white" font-size = "32">HSON6</text><circle cx="275" cy="-25" r="5" stroke="yellow" stroke-width="3" fill="red" /> <text text-anchor="end" x = "-300" y = "-25" transform="rotate(0 -300 -25)" fill = "white" font-size = "32">HSIN6</text><circle cx="-275" cy="-25" r="5" stroke="yellow" stroke-width="3" fill="red" /> <path d="M -175 75 L 175 75" stroke="white" stroke-width="2" fill="transparent" /><path d="M 175 75 L 175 -100" stroke="white" stroke-width="2" fill="transparent" /><path d="M -175 75 L -175 -100" stroke="white" stroke-width="2" fill="transparent" /><path d="M -175 -100 L 175 -100" stroke="white" stroke-width="2" fill="transparent" /><path d="M 275 25 L 175 25" stroke="white" stroke-width="2" fill="transparent" /><path d="M -275 25 L -175 25" stroke="white" stroke-width="2" fill="transparent" /><path d="M 275 -25 L 175 -25" stroke="white" stroke-width="2" fill="transparent" /><path d="M -275 -25 L -175 -25" stroke="white" stroke-width="2" fill="transparent" /><path d="M -10 10 L 10 -10" stroke="white" stroke-width="2" fill="transparent" /><path d="M -10 -10 L 10 10" stroke="white" stroke-width="2" fill="transparent" /><circle cx="0" cy="0" r="4" stroke="white" stroke-width="2" fill="green" /></svg>