<svg width="100&#37;" height="100&#37;" version="1.1" xmlns="http://www.w3.org/2000/svg" overflow="visible" style="background: black"> <rect x="-200" y="-125" width="400" height="250" stroke="yellow" stroke-dasharray="5,5" stroke-width="3" fill="transparent" /> <text text-anchor="end" x = "25" y = "-200" transform="rotate(0 25 -200)" fill = "white" font-size = "32">?</text><text text-anchor="start" x = "225" y = "-12" transform="rotate(0 225 -12)" fill = "white" font-size = "32">?</text><text text-anchor="end" x = "190" y = "0" transform="rotate(0 190 0)" fill = "white" font-size = "24">TMS</text><text text-anchor="start" x = "225" y = "-62" transform="rotate(0 225 -62)" fill = "white" font-size = "32">?</text><text text-anchor="end" x = "190" y = "-50" transform="rotate(0 190 -50)" fill = "white" font-size = "24">TDI</text><text text-anchor="end" x = "-225" y = "-100" transform="rotate(0 -225 -100)" fill = "white" font-size = "32">?</text><text text-anchor="start" x = "-190" y = "-100" transform="rotate(0 -190 -100)" fill = "white" font-size = "24">REFCLKN</text><text text-anchor="end" x = "-225" y = "0" transform="rotate(0 -225 0)" fill = "white" font-size = "32">?</text><text text-anchor="start" x = "-190" y = "0" transform="rotate(0 -190 0)" fill = "white" font-size = "24">PRSNT2X1</text><text text-anchor="start" x = "225" y = "37" transform="rotate(0 225 37)" fill = "white" font-size = "32">?</text><text text-anchor="end" x = "190" y = "50" transform="rotate(0 190 50)" fill = "white" font-size = "24">TRST</text><text text-anchor="start" x = "225" y = "-112" transform="rotate(0 225 -112)" fill = "white" font-size = "32">?</text><text text-anchor="end" x = "190" y = "-100" transform="rotate(0 190 -100)" fill = "white" font-size = "24">TCK</text><text text-anchor="start" x = "225" y = "87" transform="rotate(0 225 87)" fill = "white" font-size = "32">?</text><text text-anchor="end" x = "190" y = "100" transform="rotate(0 190 100)" fill = "white" font-size = "24">TDO</text><text text-anchor="end" x = "-225" y = "-50" transform="rotate(0 -225 -50)" fill = "white" font-size = "32">?</text><text text-anchor="start" x = "-190" y = "-50" transform="rotate(0 -190 -50)" fill = "white" font-size = "24">REFCLKP</text><text text-anchor="end" x = "-225" y = "50" transform="rotate(0 -225 50)" fill = "white" font-size = "32">?</text><text text-anchor="start" x = "-190" y = "50" transform="rotate(0 -190 50)" fill = "white" font-size = "24">PRSNT2X4</text><text text-anchor="start" x = "-100" y = "150" transform="rotate(0 -100 150)" fill = "white" font-size = "24">Symbol 11 of 12</text><text text-anchor="start" x = "-100" y = "-150" transform="rotate(0 -100 -150)" fill = "white" font-size = "24">CUSTOM_PCIE</text><text text-anchor="start" x = "325" y = "0" transform="rotate(0 325 0)" fill = "white" font-size = "32">TMS</text><circle cx="300" cy="0" r="5" stroke="yellow" stroke-width="3" fill="red" /> <text text-anchor="start" x = "325" y = "-50" transform="rotate(0 325 -50)" fill = "white" font-size = "32">TDI</text><circle cx="300" cy="-50" r="5" stroke="yellow" stroke-width="3" fill="red" /> <text text-anchor="end" x = "-325" y = "-100" transform="rotate(0 -325 -100)" fill = "white" font-size = "32">REFCLKN</text><circle cx="-300" cy="-100" r="5" stroke="yellow" stroke-width="3" fill="red" /> <text text-anchor="end" x = "-325" y = "0" transform="rotate(0 -325 0)" fill = "white" font-size = "32">PRSNT2X1</text><circle cx="-300" cy="0" r="5" stroke="yellow" stroke-width="3" fill="red" /> <text text-anchor="start" x = "325" y = "50" transform="rotate(0 325 50)" fill = "white" font-size = "32">TRST</text><circle cx="300" cy="50" r="5" stroke="yellow" stroke-width="3" fill="red" /> <text text-anchor="start" x = "325" y = "-100" transform="rotate(0 325 -100)" fill = "white" font-size = "32">TCK</text><circle cx="300" cy="-100" r="5" stroke="yellow" stroke-width="3" fill="red" /> <text text-anchor="start" x = "325" y = "100" transform="rotate(0 325 100)" fill = "white" font-size = "32">TDO</text><circle cx="300" cy="100" r="5" stroke="yellow" stroke-width="3" fill="red" /> <text text-anchor="end" x = "-325" y = "-50" transform="rotate(0 -325 -50)" fill = "white" font-size = "32">REFCLKP</text><circle cx="-300" cy="-50" r="5" stroke="yellow" stroke-width="3" fill="red" /> <text text-anchor="end" x = "-325" y = "50" transform="rotate(0 -325 50)" fill = "white" font-size = "32">PRSNT2X4</text><circle cx="-300" cy="50" r="5" stroke="yellow" stroke-width="3" fill="red" /> <path d="M -200 150 L 200 150" stroke="white" stroke-width="2" fill="transparent" /><path d="M 200 -175 L 200 150" stroke="white" stroke-width="2" fill="transparent" /><path d="M -200 150 L -200 -175" stroke="white" stroke-width="2" fill="transparent" /><path d="M -200 -175 L 200 -175" stroke="white" stroke-width="2" fill="transparent" /><path d="M 300 0 L 200 0" stroke="white" stroke-width="2" fill="transparent" /><path d="M 300 -50 L 200 -50" stroke="white" stroke-width="2" fill="transparent" /><path d="M -300 -100 L -200 -100" stroke="white" stroke-width="2" fill="transparent" /><path d="M -300 0 L -200 0" stroke="white" stroke-width="2" fill="transparent" /><path d="M 300 50 L 200 50" stroke="white" stroke-width="2" fill="transparent" /><path d="M 300 -100 L 200 -100" stroke="white" stroke-width="2" fill="transparent" /><path d="M 300 100 L 200 100" stroke="white" stroke-width="2" fill="transparent" /><path d="M -300 -50 L -200 -50" stroke="white" stroke-width="2" fill="transparent" /><path d="M -300 50 L -200 50" stroke="white" stroke-width="2" fill="transparent" /><path d="M -10 10 L 10 -10" stroke="white" stroke-width="2" fill="transparent" /><path d="M -10 -10 L 10 10" stroke="white" stroke-width="2" fill="transparent" /><circle cx="0" cy="0" r="4" stroke="white" stroke-width="2" fill="green" /></svg>